<svg version="1.1" id="Layer_1" xmlns="http://www.w3.org/2000/svg" xmlns:xlink="http://www.w3.org/1999/xlink" x="0px" y="0px"
	 width="100%" viewBox="0 0 829 189" enable-background="new 0 0 829 189" xml:space="preserve">
<path fill="#212020" opacity="1.000000" stroke="none" 
	d="
M568.000000,190.000000 
	C378.666687,190.000000 189.833374,190.000000 1.000051,190.000000 
	C1.000034,127.000031 1.000034,64.000061 1.000017,1.000068 
	C277.333282,1.000045 553.666565,1.000045 829.999878,1.000023 
	C829.999878,63.999928 829.999878,126.999855 829.999939,189.999893 
	C742.833313,190.000000 655.666687,190.000000 568.000000,190.000000 
M77.081352,11.040706 
	C70.727219,11.078807 64.373077,11.116908 57.257923,10.789742 
	C50.176476,10.640187 43.095028,10.490633 35.219574,10.192417 
	C27.161892,10.508823 24.095139,13.690946 23.727104,21.577932 
	C23.626873,23.725891 22.588625,25.830082 21.251863,27.995033 
	C14.213452,30.519506 9.879957,36.691189 10.160616,43.790981 
	C10.460997,51.389694 14.895112,57.069405 22.610174,59.341995 
	C22.743931,61.905567 22.877687,64.469139 22.338688,67.259911 
	C13.936297,70.500580 9.711786,76.315987 10.171553,84.009018 
	C10.611688,91.373573 15.556598,97.337769 23.195112,99.970848 
	C25.025553,104.236580 23.186127,106.907143 18.771496,108.870781 
	C12.913840,111.994507 10.017861,117.020470 10.228604,123.510361 
	C10.460466,130.650620 14.089583,135.720825 21.371511,138.868042 
	C22.172144,140.530426 23.555222,142.151306 23.677181,143.862076 
	C24.374609,153.645035 27.311411,156.433258 37.937458,156.085449 
	C44.957092,156.045486 51.976730,156.005524 59.927677,156.085571 
	C65.954613,156.049469 71.981544,156.013382 78.937294,156.106628 
	C86.295753,155.958755 93.654221,155.810883 101.812737,155.877151 
	C108.875145,155.913589 115.937546,155.950012 123.911179,156.125763 
	C127.591301,156.125763 131.271423,156.125763 136.192566,156.125763 
	C133.470215,160.878983 131.439270,164.234192 129.593674,167.688446 
	C126.122093,174.185867 128.696457,180.081787 136.512222,182.651794 
	C139.295227,181.885483 143.382751,182.010406 144.625275,180.191681 
	C148.969955,173.832245 152.332565,166.801865 156.634308,159.620300 
	C159.152634,154.428253 164.130432,156.942520 168.908890,156.145416 
	C172.281815,156.082062 175.654755,156.018707 179.803711,156.164658 
	C185.961868,156.205826 192.127930,156.067764 198.275940,156.339050 
	C204.301865,156.604950 210.203583,151.828247 210.150879,144.728500 
	C209.846893,103.781265 210.015472,62.830616 209.986237,21.881153 
	C209.981308,14.976983 207.270538,11.376437 200.959641,10.282284 
	C198.386993,9.836253 195.659409,10.283861 192.078644,10.166406 
	C186.724121,10.225312 181.369614,10.284220 175.091873,10.166732 
	C168.742554,10.222116 162.393234,10.277499 155.117386,10.151025 
	C146.087219,10.214462 137.057068,10.277899 127.099854,10.177465 
	C121.407257,10.234160 115.714668,10.290856 109.097290,10.186562 
	C104.071869,10.241146 99.046440,10.295732 93.101585,10.184463 
	C88.071968,10.511914 83.042358,10.839365 77.081352,11.040706 
M493.781921,131.679276 
	C493.781921,131.679276 493.460083,131.632538 493.039612,131.112198 
	C484.448822,125.332802 480.756104,117.436157 483.091858,107.194130 
	C484.826355,99.588509 490.512360,95.384567 497.938843,92.034119 
	C505.617523,90.803566 512.768066,91.812164 518.969116,97.859055 
	C521.004517,94.645500 522.523254,91.927429 524.356873,89.441566 
	C526.233521,86.897247 525.483093,85.309868 523.057312,83.845894 
	C514.332581,78.580574 505.168640,76.165398 494.357147,79.332214 
	C478.557678,83.965622 468.526764,97.602074 468.975555,113.837074 
	C469.389221,128.802795 479.947296,142.279129 494.488373,145.928787 
	C506.137360,148.772247 516.664978,146.897324 526.200012,138.918671 
	C523.704651,134.917053 521.542725,131.450150 519.074036,127.491318 
	C512.102417,133.707794 504.422821,135.156555 495.592682,132.487320 
	C495.067657,132.292694 494.542633,132.098053 493.781921,131.679276 
M663.249573,96.161240 
	C651.988281,98.202072 646.431702,104.901779 647.859436,114.805237 
	C648.821899,121.481262 655.489258,129.794144 667.918640,128.002304 
	C670.569885,128.020264 673.264832,127.759369 675.855042,128.166122 
	C677.291199,128.391663 678.552185,129.733032 679.892090,130.571472 
	C678.529846,131.473251 677.218079,133.051270 675.796387,133.157547 
	C670.192932,133.576431 664.554993,133.532898 658.186646,133.370758 
	C654.798889,133.370758 651.411133,133.370758 647.921631,133.370758 
	C647.921631,137.922775 647.921631,141.797394 647.921631,145.785614 
	C652.166809,145.785614 656.097107,145.785614 660.948669,145.947189 
	C667.707581,145.670547 674.466431,145.393921 681.468933,145.264114 
	C681.691406,145.279083 681.839600,145.181335 682.630188,144.966522 
	C689.299988,141.909027 693.086548,136.806656 692.665771,129.379257 
	C692.307312,123.051086 689.027710,118.554626 682.306030,116.247978 
	C681.192505,116.135040 680.078979,116.022102 678.140503,115.640221 
	C673.780945,115.679131 669.421448,115.718033 664.261108,115.440887 
	C663.032532,114.240013 661.803894,113.039131 660.575317,111.838242 
	C662.381775,110.851746 664.188232,109.865250 666.924255,109.014679 
	C674.320679,109.014679 681.717163,109.014679 689.092407,109.014679 
	C689.092407,104.425117 689.092407,100.525131 689.092407,96.323792 
	C680.507324,96.323792 672.264404,96.323792 663.249573,96.161240 
M711.720276,123.343796 
	C711.650635,122.888893 711.580994,122.433983 711.688599,121.060539 
	C711.587158,113.051414 711.485718,105.042297 711.485657,96.497955 
	C710.996338,96.378136 710.506958,96.258316 709.189758,96.000877 
	C707.795654,96.049797 706.401550,96.098724 704.127136,95.993179 
	C702.528259,95.993179 700.929382,95.993179 698.910278,95.993179 
	C698.910278,104.377403 698.772339,112.181244 698.969849,119.976585 
	C699.065247,123.743874 699.791138,127.495193 700.299133,132.005707 
	C705.841431,144.941620 717.011597,149.975616 729.690613,144.864532 
	C731.973511,143.428574 734.256409,141.992599 735.952026,140.926041 
	C738.546082,143.078156 740.581848,144.767090 743.471008,147.164032 
	C743.471008,129.091141 743.471008,112.712303 743.471008,96.260834 
	C739.210571,96.260834 735.314880,96.260834 730.992615,96.260834 
	C730.992615,104.346252 730.760742,112.133972 731.072510,119.899872 
	C731.287598,125.256203 729.879944,129.693314 725.366577,133.465683 
	C724.600647,133.708847 723.834656,133.952011 722.249512,134.067032 
	C715.162415,133.651794 713.028564,131.648376 711.720276,123.343796 
M544.946716,144.796631 
	C552.556824,147.547531 560.004639,148.124542 567.732483,142.982742 
	C571.246582,139.269135 574.191772,139.154907 576.740845,144.112183 
	C577.256958,145.115845 578.870911,145.554916 580.728699,146.727722 
	C580.728699,129.190964 580.728699,112.760475 580.728699,95.188103 
	C578.692810,96.580246 577.046326,97.166580 576.279358,98.331818 
	C573.986389,101.815567 572.021362,101.109924 569.054810,98.965034 
	C566.819275,97.348640 563.702698,96.950768 560.630432,95.621559 
	C560.087463,95.434464 559.544556,95.247360 558.391235,94.535767 
	C557.601074,94.462959 556.810974,94.390144 555.188232,94.143127 
	C552.897217,94.433556 550.544495,94.484070 548.325867,95.055534 
	C538.170166,97.671432 530.715210,107.114693 530.086426,117.935509 
	C529.333252,130.897614 534.429382,140.276306 544.946716,144.796631 
M364.804749,107.824646 
	C366.150452,108.043671 367.496155,108.262703 369.225006,109.057770 
	C370.096771,111.653542 371.616577,114.223724 371.720306,116.849831 
	C372.048187,125.150642 371.955139,133.474487 371.795044,141.784988 
	C371.731110,145.105255 373.041962,146.311523 376.215088,146.042435 
	C377.868134,145.902252 379.546783,145.946991 381.207062,146.035675 
	C383.765533,146.172348 384.760590,145.042480 384.738617,142.488434 
	C384.656921,132.998825 384.886871,123.503197 384.640656,114.019157 
	C384.341217,102.485191 375.232727,94.433769 363.272186,95.196358 
	C359.624146,96.591759 355.976135,97.987152 351.663544,99.636757 
	C347.631256,96.071426 342.346039,93.702751 335.175995,95.818153 
	C330.746307,97.017380 326.463837,101.203545 322.234436,95.798141 
	C321.543335,96.728966 321.189301,96.983269 321.187469,97.240112 
	C321.076630,112.507004 320.937561,127.774498 321.043182,143.040268 
	C321.050018,144.025299 322.818298,145.499802 324.028320,145.853653 
	C325.713562,146.346481 327.657166,145.868118 329.469177,146.034531 
	C332.716980,146.332809 333.867798,144.982361 333.814514,141.740585 
	C333.669983,132.943161 333.790680,124.141594 333.774292,115.341736 
	C333.766357,111.078369 335.525970,108.352554 340.758453,108.017303 
	C344.750122,108.750557 346.200012,111.367180 346.186951,115.178223 
	C346.156708,124.001564 346.272949,132.826492 346.136597,141.647797 
	C346.087952,144.796219 347.024323,146.383499 350.391815,146.026810 
	C351.873596,145.869873 353.397705,145.876831 354.881561,146.022995 
	C358.235840,146.353409 359.217072,144.768265 359.138123,141.619400 
	C358.979614,135.297104 358.841522,128.955048 359.172546,122.646202 
	C359.411896,118.084778 360.421600,113.563789 361.697266,108.826828 
	C362.463806,108.446602 363.230377,108.066376 364.804749,107.824646 
M591.002930,97.899368 
	C591.063232,119.942230 591.123535,141.985092 591.134399,164.510025 
	C591.134399,164.510025 591.486145,164.843399 591.486145,164.843399 
	C591.486145,164.843399 591.970215,164.819244 592.853455,165.032608 
	C595.570435,164.985168 598.287415,164.937729 601.765991,165.032303 
	C602.393188,163.690125 603.020447,162.347946 603.822388,160.086090 
	C603.762756,155.055283 603.703186,150.024475 604.000916,144.263367 
	C605.319458,144.525406 606.630798,144.833435 607.957886,145.040909 
	C611.970825,145.668259 615.989929,146.256607 620.747742,146.928131 
	C622.177795,146.541794 623.607788,146.155472 625.626221,145.773453 
	C625.940796,145.552277 626.255371,145.331116 627.251953,145.129639 
	C638.887512,139.363785 644.162415,128.333023 641.751038,114.809563 
	C639.729126,103.469872 630.871765,95.559288 618.367004,94.276505 
	C613.299194,95.777885 607.649170,96.352661 603.339478,99.060570 
	C599.586792,101.418442 597.719177,100.882820 595.243469,97.782028 
	C594.909607,97.530014 594.575806,97.277992 593.912170,96.473259 
	C593.040344,96.650055 592.168579,96.826859 591.002930,97.899368 
M408.626923,145.426392 
	C416.924225,148.260269 424.716553,147.082458 431.883911,142.187469 
	C438.381927,137.749619 438.449768,136.342560 432.969421,130.974869 
	C431.698608,129.730133 430.323181,128.592239 428.853516,127.277832 
	C424.945465,131.119644 421.436829,135.259964 414.605804,133.212036 
	C422.645599,123.476463 430.222992,114.300850 437.721802,105.220413 
	C430.809082,94.666023 417.211304,91.069481 405.766205,96.772179 
	C396.800293,100.727386 391.047302,110.346161 391.340332,120.891731 
	C391.660095,132.399414 397.838837,141.351379 408.626923,145.426392 
M792.768799,146.070679 
	C804.434387,148.242020 814.280090,144.493591 819.064758,136.061554 
	C816.242432,133.151352 813.420166,130.241135 810.461792,127.190590 
	C806.899902,131.779633 802.974182,134.930435 796.131775,133.497269 
	C804.272705,123.626328 812.002563,114.253769 819.630249,105.005157 
	C811.628174,94.155792 797.947388,91.031044 786.330200,97.228264 
	C776.500244,103.017769 771.810608,113.068726 773.502502,124.720650 
	C775.038147,135.296860 782.025818,143.235916 792.768799,146.070679 
M292.418121,80.162766 
	C290.706482,79.799850 288.996735,79.133110 287.282867,79.122185 
	C273.797791,79.036217 260.311920,79.075081 246.826294,79.076660 
	C238.777679,79.077606 238.777740,79.078537 238.946182,87.322990 
	C238.949570,87.489426 238.965500,87.657921 238.946701,87.822151 
	C238.583099,90.994812 239.870087,92.417313 243.176468,92.250168 
	C246.663544,92.073883 250.183044,92.433014 253.659058,92.170357 
	C257.827484,91.855370 259.122955,93.501617 259.066803,97.620293 
	C258.869446,112.102089 259.206024,126.592865 258.891113,141.070465 
	C258.777527,146.292450 261.608002,146.183319 265.163910,146.035339 
	C268.687622,145.888702 272.511414,147.115295 272.313690,140.903732 
	C271.900757,127.930687 272.198822,114.935402 272.179993,101.949287 
	C272.163910,90.831718 271.819489,92.385620 281.840637,92.206924 
	C294.264587,91.985390 292.786743,94.331718 292.418121,80.162766 
M761.430786,146.025284 
	C762.870911,145.928604 764.310974,145.831909 765.920898,145.723831 
	C765.920898,122.498581 765.920898,99.630119 765.920898,76.525703 
	C761.621155,76.525703 757.578796,76.525703 753.403992,76.525703 
	C753.403992,99.717354 753.403992,122.585579 753.403992,146.022934 
	C755.924011,146.022934 758.202637,146.022934 761.430786,146.025284 
M298.219177,97.951965 
	C298.184235,112.416145 298.259064,126.881973 298.040924,141.343384 
	C297.982941,145.188370 299.417389,146.450775 303.012421,146.038879 
	C304.490509,145.869522 306.212738,146.442368 307.443329,145.865585 
	C308.867554,145.198029 310.885498,143.653168 310.905396,142.460175 
	C311.143494,128.165085 311.104462,113.864189 310.971832,99.566338 
	C310.960938,98.392822 309.742035,96.232422 309.077667,96.229797 
	C305.544189,96.215790 302.008575,96.743874 298.219177,97.951965 
M309.175568,89.979706 
	C313.928314,85.663704 314.438782,79.871773 310.389343,76.208359 
	C306.771973,72.935829 301.237152,73.476341 298.012085,77.519714 
	C295.563995,80.589020 295.250275,84.055214 297.439056,87.261009 
	C300.135468,91.210220 304.053680,91.987602 309.175568,89.979706 
z"/>
<path fill="#9F2727" opacity="1.000000" stroke="none" 
	d="
M292.547424,80.585968 
	C292.786743,94.331718 294.264587,91.985390 281.840637,92.206924 
	C271.819489,92.385620 272.163910,90.831718 272.179993,101.949287 
	C272.198822,114.935402 271.900757,127.930687 272.313690,140.903732 
	C272.511414,147.115295 268.687622,145.888702 265.163910,146.035339 
	C261.608002,146.183319 258.777527,146.292450 258.891113,141.070465 
	C259.206024,126.592865 258.869446,112.102089 259.066803,97.620293 
	C259.122955,93.501617 257.827484,91.855370 253.659058,92.170357 
	C250.183044,92.433014 246.663544,92.073883 243.176468,92.250168 
	C239.870087,92.417313 238.583099,90.994812 238.946701,87.822151 
	C238.965500,87.657921 238.949570,87.489426 238.946182,87.322990 
	C238.777740,79.078537 238.777679,79.077606 246.826294,79.076660 
	C260.311920,79.075081 273.797791,79.036217 287.282867,79.122185 
	C288.996735,79.133110 290.706482,79.799850 292.547424,80.585968 
z"/>
<path fill="#C59494" opacity="1.000000" stroke="none" 
	d="
M193.002319,10.324892 
	C195.659409,10.283861 198.386993,9.836253 200.959641,10.282284 
	C207.270538,11.376437 209.981308,14.976983 209.986237,21.881153 
	C210.015472,62.830616 209.846893,103.781265 210.150879,144.728500 
	C210.203583,151.828247 204.301865,156.604950 198.275940,156.339050 
	C192.127930,156.067764 185.961868,156.205826 179.707031,155.837021 
	C181.080292,155.339188 182.550217,155.168976 184.484314,154.998932 
	C188.912796,154.977829 192.884811,155.101379 196.839050,154.890839 
	C200.181076,154.712921 202.677582,153.418915 202.036957,148.997437 
	C202.590652,146.593185 203.196579,144.506088 203.199478,142.418137 
	C203.252472,104.371857 203.228973,66.325470 203.231522,28.279112 
	C203.232239,17.609339 203.246613,17.609341 192.998795,16.365376 
	C193.000488,14.082711 193.001404,12.203802 193.002319,10.324892 
z"/>
<path fill="#EDE0E0" opacity="1.000000" stroke="none" 
	d="
M787.011719,97.153969 
	C797.947388,91.031044 811.628174,94.155792 819.630249,105.005157 
	C812.002563,114.253769 804.272705,123.626328 796.131775,133.497269 
	C802.974182,134.930435 806.899902,131.779633 810.461792,127.190590 
	C813.420166,130.241135 816.242432,133.151352 819.069336,136.058685 
	C814.280090,144.493591 804.434387,148.242020 792.313110,145.576141 
	C787.821777,138.584534 789.260742,131.534515 789.902954,124.269836 
	C794.001648,118.603210 797.983765,113.243477 801.965942,107.883743 
	C801.747803,107.452438 801.529724,107.021133 801.311646,106.589828 
	C798.259460,107.214119 795.207275,107.838409 792.120605,108.000748 
	C793.440430,102.588905 789.962585,100.000198 787.011719,97.153969 
M791.497742,125.531120 
	C791.497742,125.531120 791.479980,125.485329 791.497742,125.531120 
z"/>
<path fill="#A13031" opacity="1.000000" stroke="none" 
	d="
M23.011444,67.032715 
	C22.877687,64.469139 22.743931,61.905567 22.305702,58.732018 
	C21.766430,56.180599 21.531630,54.239162 21.644070,52.371372 
	C22.611841,51.163227 23.696241,49.906998 23.768539,48.594994 
	C24.015142,44.119862 23.905401,39.625084 23.812012,34.786400 
	C23.121870,32.274784 22.551371,30.114571 21.980873,27.954359 
	C22.588625,25.830082 23.626873,23.725891 23.727104,21.577932 
	C24.095139,13.690946 27.161892,10.508823 35.614586,10.663261 
	C36.014801,13.013040 36.020004,14.891972 35.621605,16.840704 
	C28.930777,16.643967 30.503689,21.550447 29.589474,25.110222 
	C29.539936,28.498589 29.785543,31.791044 30.053596,35.546501 
	C30.080868,43.604252 30.338047,51.210239 30.000549,58.789742 
	C29.780722,63.726582 30.256918,67.835960 35.205997,69.804596 
	C33.209431,71.612846 31.608759,73.313957 30.036875,75.482094 
	C30.074289,86.218933 30.082916,96.488739 30.070499,107.158379 
	C30.029346,110.016838 30.009239,112.475479 30.018457,115.406189 
	C30.057377,124.870842 30.252790,133.868683 29.998350,142.853775 
	C29.870699,147.361572 31.256235,149.913956 36.001968,150.386642 
	C36.339859,152.502594 36.673779,154.234879 37.007698,155.967148 
	C27.311411,156.433258 24.374609,153.645035 23.677181,143.862076 
	C23.555222,142.151306 22.172144,140.530426 21.144901,138.149780 
	C20.961634,135.546738 21.004976,133.661957 21.441582,131.796005 
	C22.454920,131.375244 23.600843,130.951126 23.614305,130.493683 
	C23.760321,125.531975 23.780972,120.563843 23.668667,115.601250 
	C23.656744,115.074318 22.581844,114.571442 21.873196,113.753769 
	C20.960604,111.875694 20.174891,110.301270 19.389179,108.726837 
	C23.186127,106.907143 25.025553,104.236580 22.982197,99.264778 
	C22.187531,96.340355 21.605780,94.122009 21.426785,91.916443 
	C22.508011,90.655777 23.690195,89.413979 23.772594,88.103058 
	C24.043718,83.789703 23.916302,79.451309 23.938528,74.714966 
	C23.627201,71.882507 23.319323,69.457611 23.011444,67.032715 
z"/>
<path fill="#B15555" opacity="1.000000" stroke="none" 
	d="
M406.418976,96.667053 
	C417.211304,91.069481 430.809082,94.666023 437.721802,105.220413 
	C430.222992,114.300850 422.645599,123.476463 414.605804,133.212036 
	C421.436829,135.259964 424.945465,131.119644 428.853516,127.277832 
	C430.323181,128.592239 431.698608,129.730133 432.969421,130.974869 
	C438.449768,136.342560 438.381927,137.749619 431.883911,142.187469 
	C424.716553,147.082458 416.924225,148.260269 408.365509,144.867996 
	C408.589935,141.291534 409.604279,138.240005 409.415985,135.264603 
	C409.219604,132.161514 407.864075,129.131775 407.132324,125.748245 
	C411.502838,119.624908 415.756378,113.823303 420.822693,106.913109 
	C416.924103,107.133736 414.513763,107.270134 411.959595,107.040787 
	C410.016815,103.339035 408.217896,100.003044 406.418976,96.667053 
z"/>
<path fill="#B96B6B" opacity="1.000000" stroke="none" 
	d="
M493.834808,145.567413 
	C479.947296,142.279129 469.389221,128.802795 468.975555,113.837074 
	C468.526764,97.602074 478.557678,83.965622 494.867371,79.636032 
	C495.921448,83.970932 496.465302,88.002014 497.009155,92.033089 
	C490.512360,95.384567 484.826355,99.588509 483.091858,107.194130 
	C480.756104,117.436157 484.448822,125.332802 492.946899,131.618256 
	C491.207886,134.631439 489.561615,137.138550 487.423920,140.393967 
	C490.426056,140.393967 492.286469,140.393967 494.449371,140.393967 
	C494.215057,142.366516 494.024933,143.966965 493.834808,145.567413 
M489.473541,142.495392 
	C489.473541,142.495392 489.503693,142.528976 489.473541,142.495392 
z"/>
<path fill="#E5CFD0" opacity="1.000000" stroke="none" 
	d="
M760.955994,146.024109 
	C758.202637,146.022934 755.924011,146.022934 753.403992,146.022934 
	C753.403992,122.585579 753.403992,99.717354 753.403992,76.525703 
	C757.578796,76.525703 761.621155,76.525703 765.920898,76.525703 
	C765.920898,99.630119 765.920898,122.498581 765.920898,145.723831 
	C764.310974,145.831909 762.870911,145.928604 760.955994,146.024109 
z"/>
<path fill="#C98C8D" opacity="1.000000" stroke="none" 
	d="
M556.020813,94.317329 
	C556.810974,94.390144 557.601074,94.462959 558.828735,94.980576 
	C559.836975,95.620422 560.407593,95.815468 560.978271,96.010513 
	C563.702698,96.950768 566.819275,97.348640 569.054810,98.965034 
	C572.021362,101.109924 573.986389,101.815567 576.279358,98.331818 
	C577.046326,97.166580 578.692810,96.580246 580.728699,95.188103 
	C580.728699,112.760475 580.728699,129.190964 580.728699,146.727722 
	C578.870911,145.554916 577.256958,145.115845 576.740845,144.112183 
	C574.191772,139.154907 571.246582,139.269135 567.273682,142.714417 
	C565.543457,141.880798 564.198853,141.437073 563.015503,140.725311 
	C560.413208,139.160049 556.319702,138.912537 557.351624,134.130249 
	C564.734558,131.396805 568.384583,126.478165 568.144653,119.906723 
	C567.902100,113.263680 563.779968,108.782585 555.927185,106.343307 
	C555.900818,102.083969 555.960815,98.200645 556.020813,94.317329 
z"/>
<path fill="#D2A1A2" opacity="1.000000" stroke="none" 
	d="
M619.072937,94.555573 
	C630.871765,95.559288 639.729126,103.469872 641.751038,114.809563 
	C644.162415,128.333023 638.887512,139.363785 626.630188,145.170807 
	C625.684937,145.397705 625.361389,145.583420 625.037842,145.769135 
	C623.607788,146.155472 622.177795,146.541794 620.375122,146.453323 
	C619.671997,142.091949 619.341492,138.205368 619.351074,134.179871 
	C627.086060,131.155243 630.177246,126.038918 629.219177,118.271172 
	C628.376709,111.440887 624.307312,107.879280 616.011597,106.303322 
	C617.031677,102.114845 618.052307,98.335213 619.072937,94.555573 
z"/>
<path fill="#A63C3D" opacity="1.000000" stroke="none" 
	d="
M361.087769,109.024765 
	C360.421600,113.563789 359.411896,118.084778 359.172546,122.646202 
	C358.841522,128.955048 358.979614,135.297104 359.138123,141.619400 
	C359.217072,144.768265 358.235840,146.353409 354.881561,146.022995 
	C353.397705,145.876831 351.873596,145.869873 350.391815,146.026810 
	C347.024323,146.383499 346.087952,144.796219 346.136597,141.647797 
	C346.272949,132.826492 346.156708,124.001564 346.186951,115.178223 
	C346.200012,111.367180 344.750122,108.750557 340.377869,107.569794 
	C338.645569,103.363976 337.293823,99.605659 335.942078,95.847343 
	C342.346039,93.702751 347.631256,96.071426 351.663544,99.636757 
	C355.976135,97.987152 359.624146,96.591759 363.727020,95.616760 
	C365.501129,101.560425 365.501129,101.560425 358.308746,101.749123 
	C359.178650,104.276688 356.181000,107.927437 361.087769,109.024765 
z"/>
<path fill="#CE9695" opacity="1.000000" stroke="none" 
	d="
M591.183838,164.027954 
	C591.123535,141.985092 591.063232,119.942230 591.516663,97.448853 
	C592.767578,97.007545 593.504761,97.016762 594.241943,97.025978 
	C594.575806,97.277992 594.909607,97.530014 595.227295,98.413986 
	C596.807495,102.357422 599.170959,105.533913 599.783997,109.018387 
	C600.395081,112.491379 601.568176,114.143990 604.895874,114.733307 
	C604.533691,116.081894 604.211243,117.049484 603.781677,118.114212 
	C603.515991,118.488983 603.559143,118.742607 603.866089,119.385818 
	C604.612549,122.892021 605.296936,125.984642 605.879883,129.355286 
	C605.033081,130.897354 604.491577,132.356644 603.503540,133.388306 
	C600.704712,136.310760 600.683777,142.077133 603.643555,144.993668 
	C603.703186,150.024475 603.762756,155.055283 603.448181,160.653259 
	C602.384155,162.443726 601.694275,163.667023 601.004395,164.890320 
	C598.287415,164.937729 595.570435,164.985168 592.301758,164.774216 
	C591.586243,164.324295 591.397522,164.161682 591.183838,164.027954 
z"/>
<path fill="#DCB4B4" opacity="1.000000" stroke="none" 
	d="
M682.689148,116.698357 
	C689.027710,118.554626 692.307312,123.051086 692.665771,129.379257 
	C693.086548,136.806656 689.299988,141.909027 682.150635,144.949219 
	C681.671143,144.931900 681.225342,145.117279 681.225342,145.117279 
	C674.466431,145.393921 667.707581,145.670547 660.485229,145.448822 
	C659.657776,141.187302 659.293823,137.424133 658.929810,133.660965 
	C664.554993,133.532898 670.192932,133.576431 675.796387,133.157547 
	C677.218079,133.051270 678.529846,131.473251 679.892090,130.571472 
	C678.552185,129.733032 677.291199,128.391663 675.855042,128.166122 
	C673.264832,127.759369 670.569885,128.020264 667.446899,127.560257 
	C664.243042,123.683823 662.040100,120.160309 665.061890,115.756943 
	C669.421448,115.718033 673.780945,115.679131 678.858154,116.027504 
	C680.613525,116.509308 681.651367,116.603828 682.689148,116.698357 
z"/>
<path fill="#A84444" opacity="1.000000" stroke="none" 
	d="
M361.392517,108.925797 
	C356.181000,107.927437 359.178650,104.276688 358.308746,101.749123 
	C365.501129,101.560425 365.501129,101.560425 364.103058,95.685471 
	C375.232727,94.433769 384.341217,102.485191 384.640656,114.019157 
	C384.886871,123.503197 384.656921,132.998825 384.738617,142.488434 
	C384.760590,145.042480 383.765533,146.172348 381.207062,146.035675 
	C379.546783,145.946991 377.868134,145.902252 376.215088,146.042435 
	C373.041962,146.311523 371.731110,145.105255 371.795044,141.784988 
	C371.955139,133.474487 372.048187,125.150642 371.720306,116.849831 
	C371.616577,114.223724 370.096771,111.653542 369.022675,108.392426 
	C367.243988,104.006279 365.633881,104.264877 363.996918,107.686142 
	C363.230377,108.066376 362.463806,108.446602 361.392517,108.925797 
z"/>
<path fill="#A13333" opacity="1.000000" stroke="none" 
	d="
M335.559021,95.832748 
	C337.293823,99.605659 338.645569,103.363976 340.006958,107.502518 
	C335.525970,108.352554 333.766357,111.078369 333.774292,115.341736 
	C333.790680,124.141594 333.669983,132.943161 333.814514,141.740585 
	C333.867798,144.982361 332.716980,146.332809 329.469177,146.034531 
	C327.657166,145.868118 325.713562,146.346481 324.028320,145.853653 
	C322.818298,145.499802 321.050018,144.025299 321.043182,143.040268 
	C320.937561,127.774498 321.076630,112.507004 321.187469,97.240112 
	C321.189301,96.983269 321.543335,96.728966 322.234436,95.798141 
	C326.463837,101.203545 330.746307,97.017380 335.559021,95.832748 
z"/>
<path fill="#C38081" opacity="1.000000" stroke="none" 
	d="
M555.604492,94.230225 
	C555.960815,98.200645 555.900818,102.083969 555.535645,106.440453 
	C547.561340,107.857933 543.157837,112.004562 543.045105,119.136917 
	C542.994690,122.324112 544.078186,125.529236 544.376831,128.930359 
	C544.967957,131.910889 545.080566,135.355728 546.841919,137.328339 
	C550.841736,141.807785 547.435791,142.760696 544.379272,144.239594 
	C534.429382,140.276306 529.333252,130.897614 530.086426,117.935509 
	C530.715210,107.114693 538.170166,97.671432 548.325867,95.055534 
	C550.544495,94.484070 552.897217,94.433556 555.604492,94.230225 
z"/>
<path fill="#E0C5C6" opacity="1.000000" stroke="none" 
	d="
M725.965820,133.331451 
	C729.879944,129.693314 731.287598,125.256203 731.072510,119.899872 
	C730.760742,112.133972 730.992615,104.346252 730.992615,96.260834 
	C735.314880,96.260834 739.210571,96.260834 743.471008,96.260834 
	C743.471008,112.712303 743.471008,129.091141 743.471008,147.164032 
	C740.581848,144.767090 738.546082,143.078156 735.952026,140.926041 
	C734.256409,141.992599 731.973511,143.428574 729.405640,144.538330 
	C729.989868,140.123947 730.220764,136.322723 725.087280,134.773010 
	C725.456909,134.151062 725.711365,133.741257 725.965820,133.331451 
z"/>
<path fill="#9D2A2A" opacity="1.000000" stroke="none" 
	d="
M298.346436,97.518127 
	C302.008575,96.743874 305.544189,96.215790 309.077667,96.229797 
	C309.742035,96.232422 310.960938,98.392822 310.971832,99.566338 
	C311.104462,113.864189 311.143494,128.165085 310.905396,142.460175 
	C310.885498,143.653168 308.867554,145.198029 307.443329,145.865585 
	C306.212738,146.442368 304.490509,145.869522 303.012421,146.038879 
	C299.417389,146.450775 297.982941,145.188370 298.040924,141.343384 
	C298.259064,126.881973 298.184235,112.416145 298.346436,97.518127 
z"/>
<path fill="#AD4D4D" opacity="1.000000" stroke="none" 
	d="
M407.015350,126.069977 
	C407.864075,129.131775 409.219604,132.161514 409.415985,135.264603 
	C409.604279,138.240005 408.589935,141.291534 408.045898,144.660248 
	C397.838837,141.351379 391.660095,132.399414 391.340332,120.891731 
	C391.047302,110.346161 396.800293,100.727386 406.092590,96.719612 
	C408.217896,100.003044 410.016815,103.339035 411.788727,107.250793 
	C411.262024,108.026108 410.762299,108.225655 410.104126,108.265541 
	C409.620575,108.457802 409.295532,108.809723 408.796875,109.446198 
	C407.199036,112.840866 405.261444,115.834991 404.523743,119.100220 
	C403.996338,121.434532 402.985535,124.928108 407.015350,126.069977 
z"/>
<path fill="#E2C2C1" opacity="1.000000" stroke="none" 
	d="
M724.972168,134.985168 
	C730.220764,136.322723 729.989868,140.123947 729.051758,144.572266 
	C717.011597,149.975616 705.841431,144.941620 700.725769,131.576431 
	C701.768250,131.097702 702.384155,131.048248 703.020691,131.183807 
	C703.172485,131.554520 703.303589,131.740189 703.434692,131.925842 
	C703.471863,131.819336 703.572937,131.667816 703.535156,131.614151 
	C703.379761,131.393478 703.182068,131.202545 702.998230,130.556427 
	C703.666809,118.790695 704.337158,107.469170 705.007446,96.147644 
	C706.401550,96.098724 707.795654,96.049797 709.733521,96.235771 
	C710.646301,96.658173 711.015259,96.845673 711.384277,97.033173 
	C711.485718,105.042297 711.587158,113.051414 711.381775,121.596268 
	C711.232666,122.761230 711.390381,123.390457 711.548035,124.019699 
	C713.028564,131.648376 715.162415,133.651794 722.854919,134.310303 
	C723.964294,134.697449 724.468201,134.841309 724.972168,134.985168 
z"/>
<path fill="#E8D8D7" opacity="1.000000" stroke="none" 
	d="
M786.670959,97.191116 
	C789.962585,100.000198 793.440430,102.588905 791.931030,108.261688 
	C785.909058,114.095772 784.436157,120.549667 787.908508,126.101433 
	C788.537964,125.590385 789.162231,125.083557 789.786499,124.576736 
	C789.260742,131.534515 787.821777,138.584534 791.933838,145.414886 
	C782.025818,143.235916 775.038147,135.296860 773.502502,124.720650 
	C771.810608,113.068726 776.500244,103.017769 786.670959,97.191116 
z"/>
<path fill="#D2A8A8" opacity="1.000000" stroke="none" 
	d="
M664.661499,115.598915 
	C662.040100,120.160309 664.243042,123.683823 666.995361,127.474472 
	C655.489258,129.794144 648.821899,121.481262 647.859436,114.805237 
	C646.431702,104.901779 651.988281,98.202072 663.643860,96.595444 
	C665.524963,100.409409 667.008423,103.777359 665.427979,107.584793 
	C665.303101,107.885849 665.791382,108.441437 665.994690,108.878738 
	C664.188232,109.865250 662.381775,110.851746 660.575317,111.838242 
	C661.803894,113.039131 663.032532,114.240013 664.661499,115.598915 
z"/>
<path fill="#BF7574" opacity="1.000000" stroke="none" 
	d="
M494.161591,145.748108 
	C494.024933,143.966965 494.215057,142.366516 494.449371,140.393967 
	C492.286469,140.393967 490.426056,140.393967 487.423920,140.393967 
	C489.561615,137.138550 491.207886,134.631439 493.157135,131.878433 
	C493.460083,131.632538 493.781921,131.679276 493.839600,132.155792 
	C493.713226,134.137405 493.529175,135.642502 493.345123,137.147614 
	C493.766846,137.200317 494.188538,137.253006 494.610260,137.305710 
	C495.070923,135.834763 495.531586,134.363815 495.992249,132.892883 
	C504.422821,135.156555 512.102417,133.707794 519.074036,127.491318 
	C521.542725,131.450150 523.704651,134.917053 526.200012,138.918671 
	C516.664978,146.897324 506.137360,148.772247 494.161591,145.748108 
z"/>
<path fill="#C07676" opacity="1.000000" stroke="none" 
	d="
M497.473999,92.033600 
	C496.465302,88.002014 495.921448,83.970932 495.235138,79.636147 
	C505.168640,76.165398 514.332581,78.580574 523.057312,83.845894 
	C525.483093,85.309868 526.233521,86.897247 524.356873,89.441566 
	C522.523254,91.927429 521.004517,94.645500 518.969116,97.859055 
	C512.768066,91.812164 505.617523,90.803566 497.473999,92.033600 
z"/>
<path fill="#BA6E6E" opacity="1.000000" stroke="none" 
	d="
M135.865356,182.278046 
	C128.696457,180.081787 126.122093,174.185867 129.593674,167.688446 
	C131.439270,164.234192 133.470215,160.878983 136.192566,156.125763 
	C131.271423,156.125763 127.591301,156.125763 123.436440,155.673233 
	C122.639572,153.467911 122.317444,151.715103 122.458420,149.887909 
	C128.912842,149.486969 134.904160,149.160400 141.051971,149.149139 
	C141.971283,151.743958 142.734085,154.023468 143.423431,156.653931 
	C140.929016,161.264450 138.531342,165.537491 136.079880,169.779449 
	C134.016876,173.349243 134.515656,175.699921 139.009613,176.653503 
	C137.958771,178.779785 136.912064,180.528915 135.865356,182.278046 
z"/>
<path fill="#DEB4B5" opacity="1.000000" stroke="none" 
	d="
M666.459473,108.946701 
	C665.791382,108.441437 665.303101,107.885849 665.427979,107.584793 
	C667.008423,103.777359 665.524963,100.409409 664.029846,96.676720 
	C672.264404,96.323792 680.507324,96.323792 689.092407,96.323792 
	C689.092407,100.525131 689.092407,104.425117 689.092407,109.014679 
	C681.717163,109.014679 674.320679,109.014679 666.459473,108.946701 
z"/>
<path fill="#CD9999" opacity="1.000000" stroke="none" 
	d="
M604.935608,114.352303 
	C601.568176,114.143990 600.395081,112.491379 599.783997,109.018387 
	C599.170959,105.533913 596.807495,102.357422 595.234070,98.636002 
	C597.719177,100.882820 599.586792,101.418442 603.339478,99.060570 
	C607.649170,96.352661 613.299194,95.777885 618.719971,94.416046 
	C618.052307,98.335213 617.031677,102.114845 615.650757,106.423386 
	C610.780823,107.938416 606.795837,109.658737 604.935608,114.352303 
z"/>
<path fill="#9B2A2B" opacity="1.000000" stroke="none" 
	d="
M308.830933,90.184792 
	C304.053680,91.987602 300.135468,91.210220 297.439056,87.261009 
	C295.250275,84.055214 295.563995,80.589020 298.012085,77.519714 
	C301.237152,73.476341 306.771973,72.935829 310.389343,76.208359 
	C314.438782,79.871773 313.928314,85.663704 308.830933,90.184792 
z"/>
<path fill="#CE9B9C" opacity="1.000000" stroke="none" 
	d="
M603.822266,144.628510 
	C600.683777,142.077133 600.704712,136.310760 603.503540,133.388306 
	C604.491577,132.356644 605.033081,130.897354 606.173889,129.523010 
	C609.732910,133.542618 614.149719,134.494156 619.010925,134.318802 
	C619.341492,138.205368 619.671997,142.091949 620.004517,146.419342 
	C615.989929,146.256607 611.970825,145.668259 607.957886,145.040909 
	C606.630798,144.833435 605.319458,144.525406 603.822266,144.628510 
z"/>
<path fill="#9A2929" opacity="1.000000" stroke="none" 
	d="
M22.675068,67.146317 
	C23.319323,69.457611 23.627201,71.882507 23.569420,74.635193 
	C18.947329,75.447472 16.759167,78.348015 17.232590,82.087662 
	C17.660212,85.465515 19.696911,88.639671 21.024029,91.903656 
	C21.605780,94.122009 22.187531,96.340355 22.819832,98.942078 
	C15.556598,97.337769 10.611688,91.373573 10.171553,84.009018 
	C9.711786,76.315987 13.936297,70.500580 22.675068,67.146317 
z"/>
<path fill="#99292A" opacity="1.000000" stroke="none" 
	d="
M21.616367,27.974697 
	C22.551371,30.114571 23.121870,32.274784 23.447975,34.733261 
	C21.401390,36.497654 18.920315,37.607731 17.928499,39.498867 
	C15.299437,44.511795 17.936462,48.605118 21.296829,52.297726 
	C21.531630,54.239162 21.766430,56.180599 22.003372,58.542641 
	C14.895112,57.069405 10.460997,51.389694 10.160616,43.790981 
	C9.879957,36.691189 14.213452,30.519506 21.616367,27.974697 
z"/>
<path fill="#9A2929" opacity="1.000000" stroke="none" 
	d="
M19.080338,108.798813 
	C20.174891,110.301270 20.960604,111.875694 21.599285,113.954529 
	C15.348841,120.119766 15.238754,124.839554 21.048319,131.777176 
	C21.004976,133.661957 20.961634,135.546738 20.879345,137.910172 
	C14.089583,135.720825 10.460466,130.650620 10.228604,123.510361 
	C10.017861,117.020470 12.913840,111.994507 19.080338,108.798813 
z"/>
<path fill="#C48686" opacity="1.000000" stroke="none" 
	d="
M544.662964,144.518112 
	C547.435791,142.760696 550.841736,141.807785 546.841919,137.328339 
	C545.080566,135.355728 544.967957,131.910889 544.617554,129.140884 
	C548.069214,133.221558 552.296936,134.309570 557.011353,134.268204 
	C556.319702,138.912537 560.413208,139.160049 563.015503,140.725311 
	C564.198853,141.437073 565.543457,141.880798 566.926453,142.796967 
	C560.004639,148.124542 552.556824,147.547531 544.662964,144.518112 
z"/>
<path fill="#B87373" opacity="1.000000" stroke="none" 
	d="
M128.026901,10.341335 
	C137.057068,10.277899 146.087219,10.214462 155.541153,10.644712 
	C155.515823,13.009905 155.066727,14.881409 154.241913,16.832388 
	C145.247833,16.861282 136.629471,16.810703 128.010315,16.357193 
	C128.015305,14.083287 128.021103,12.212311 128.026901,10.341335 
z"/>
<path fill="#BA7374" opacity="1.000000" stroke="none" 
	d="
M136.188782,182.464920 
	C136.912064,180.528915 137.958771,178.779785 139.294815,176.448059 
	C143.665741,169.445465 147.747330,163.025467 151.993896,156.924713 
	C153.462006,158.171432 154.765137,159.098892 156.068237,160.026367 
	C152.332565,166.801865 148.969955,173.832245 144.625275,180.191681 
	C143.382751,182.010406 139.295227,181.885483 136.188782,182.464920 
z"/>
<path fill="#C27E7F" opacity="1.000000" stroke="none" 
	d="
M156.351288,159.823334 
	C154.765137,159.098892 153.462006,158.171432 152.199051,156.660049 
	C155.944427,149.614624 159.649643,143.153122 163.667053,136.898987 
	C165.030701,138.426346 166.082153,139.746292 167.165375,141.437378 
	C166.127686,144.141205 165.058258,146.473907 163.832214,149.148224 
	C165.503632,149.465851 166.748947,149.702515 167.995758,150.371582 
	C167.998993,152.533401 168.000748,154.262787 168.002487,155.992172 
	C164.130432,156.942520 159.152634,154.428253 156.351288,159.823334 
z"/>
<path fill="#DBBABA" opacity="1.000000" stroke="none" 
	d="
M703.000000,130.998779 
	C702.384155,131.048248 701.768250,131.097702 700.692017,131.200439 
	C699.791138,127.495193 699.065247,123.743874 698.969849,119.976585 
	C698.772339,112.181244 698.910278,104.377403 698.910278,95.993179 
	C700.929382,95.993179 702.528259,95.993179 704.567322,96.070412 
	C704.337158,107.469170 703.666809,118.790695 702.998230,130.556107 
	C703.000000,131.000000 703.000000,130.998779 703.000000,130.998779 
z"/>
<path fill="#CCA3A3" opacity="1.000000" stroke="none" 
	d="
M658.558228,133.515869 
	C659.293823,137.424133 659.657776,141.187302 660.024536,145.368042 
	C656.097107,145.785614 652.166809,145.785614 647.921631,145.785614 
	C647.921631,141.797394 647.921631,137.922775 647.921631,133.370758 
	C651.411133,133.370758 654.798889,133.370758 658.558228,133.515869 
z"/>
<path fill="#A63C3D" opacity="1.000000" stroke="none" 
	d="
M36.025211,16.770905 
	C36.020004,14.891972 36.014801,13.013040 36.011589,10.737593 
	C43.095028,10.490633 50.176476,10.640187 57.632690,11.371865 
	C58.011326,13.556766 58.015198,15.159543 57.553978,16.836277 
	C50.067665,16.863791 43.046436,16.817348 36.025211,16.770905 
z"/>
<path fill="#B35656" opacity="1.000000" stroke="none" 
	d="
M101.012680,155.662994 
	C93.654221,155.810883 86.295753,155.958755 78.471527,155.614304 
	C77.999771,153.409073 77.993774,151.696167 78.454292,149.920135 
	C86.276932,149.898788 93.633049,149.940582 100.991684,150.444519 
	C101.000366,152.492111 101.006523,154.077560 101.012680,155.662994 
z"/>
<path fill="#C98385" opacity="1.000000" stroke="none" 
	d="
M154.617630,16.752914 
	C155.066727,14.881409 155.515823,13.009905 156.004425,10.735641 
	C162.393234,10.277499 168.742554,10.222116 175.524658,10.594017 
	C175.308716,12.925488 174.659973,14.829675 173.549713,16.821175 
	C166.931351,16.856628 160.774490,16.804771 154.617630,16.752914 
z"/>
<path fill="#A63C3D" opacity="1.000000" stroke="none" 
	d="
M37.472580,156.026306 
	C36.673779,154.234879 36.339859,152.502594 36.468098,150.332382 
	C43.284935,149.919876 49.639614,149.945312 56.081856,150.301910 
	C57.111732,152.410583 58.054050,154.188065 58.996368,155.965561 
	C51.976730,156.005524 44.957092,156.045486 37.472580,156.026306 
z"/>
<path fill="#CE8F90" opacity="1.000000" stroke="none" 
	d="
M174.011230,16.733860 
	C174.659973,14.829675 175.308716,12.925488 175.986267,10.682214 
	C181.369614,10.284220 186.724121,10.225312 192.540482,10.245649 
	C193.001404,12.203802 193.000488,14.082711 192.536285,16.442850 
	C186.052429,16.860672 180.031815,16.797266 174.011230,16.733860 
z"/>
<path fill="#BA6262" opacity="1.000000" stroke="none" 
	d="
M101.412712,155.770081 
	C101.006523,154.077560 101.000366,152.492111 101.457214,150.375214 
	C108.611931,149.883270 115.303619,149.922791 121.995316,149.962311 
	C122.317444,151.715103 122.639572,153.467911 122.980827,155.603577 
	C115.937546,155.950012 108.875145,155.913589 101.412712,155.770081 
z"/>
<path fill="#B86768" opacity="1.000000" stroke="none" 
	d="
M127.563377,10.259400 
	C128.021103,12.212311 128.015305,14.083287 127.547546,16.434393 
	C121.726646,16.898151 116.367729,16.881777 110.987381,16.495716 
	C110.651314,14.199871 110.336693,12.273712 110.022072,10.347552 
	C115.714668,10.290856 121.407257,10.234160 127.563377,10.259400 
z"/>
<path fill="#AE4848" opacity="1.000000" stroke="none" 
	d="
M59.462021,156.025574 
	C58.054050,154.188065 57.111732,152.410583 56.548599,150.249420 
	C63.947777,149.904922 70.967773,149.944092 77.987778,149.983261 
	C77.993774,151.696167 77.999771,153.409073 78.007126,155.549637 
	C71.981544,156.013382 65.954613,156.049469 59.462021,156.025574 
z"/>
<path fill="#B15555" opacity="1.000000" stroke="none" 
	d="
M78.012741,11.166817 
	C83.042358,10.839365 88.071968,10.511914 93.564194,10.627144 
	C94.358994,12.960807 94.691185,14.851789 94.559120,16.821493 
	C88.404495,16.845390 82.714119,16.790565 77.024162,16.376743 
	C77.353966,14.400770 77.683357,12.783793 78.012741,11.166817 
z"/>
<path fill="#AE4848" opacity="1.000000" stroke="none" 
	d="
M77.547043,11.103762 
	C77.683357,12.783793 77.353966,14.400770 76.558762,16.450577 
	C70.068321,16.843044 64.043694,16.802683 58.019066,16.762320 
	C58.015198,15.159543 58.011326,13.556766 58.013199,11.554499 
	C64.373077,11.116908 70.727219,11.078807 77.547043,11.103762 
z"/>
<path fill="#B6605E" opacity="1.000000" stroke="none" 
	d="
M95.023376,16.742771 
	C94.691185,14.851789 94.358994,12.960807 94.023911,10.710070 
	C99.046440,10.295732 104.071869,10.241146 109.559677,10.267057 
	C110.336693,12.273712 110.651314,14.199871 110.523605,16.560192 
	C105.061974,16.910492 100.042679,16.826632 95.023376,16.742771 
z"/>
<path fill="#C98A8B" opacity="1.000000" stroke="none" 
	d="
M168.455688,156.068787 
	C168.000748,154.262787 167.998993,152.533401 168.457306,150.291321 
	C173.944473,149.843384 178.971573,149.908127 184.000092,150.391800 
	C184.007721,152.206741 184.013931,153.602768 184.020142,154.998779 
	C182.550217,155.168976 181.080292,155.339188 179.319031,155.732361 
	C175.654755,156.018707 172.281815,156.082062 168.455688,156.068787 
z"/>
<path fill="#A63C3D" opacity="1.000000" stroke="none" 
	d="
M364.400818,107.755394 
	C365.633881,104.264877 367.243988,104.006279 368.831116,108.104401 
	C367.496155,108.262703 366.150452,108.043671 364.400818,107.755394 
z"/>
<path fill="#B96B6B" opacity="1.000000" stroke="none" 
	d="
M495.792480,132.690094 
	C495.531586,134.363815 495.070923,135.834763 494.610260,137.305710 
	C494.188538,137.253006 493.766846,137.200317 493.345123,137.147614 
	C493.529175,135.642502 493.713226,134.137405 493.957458,132.267853 
	C494.542633,132.098053 495.067657,132.292694 495.792480,132.690094 
z"/>
<path fill="#CE9B9C" opacity="1.000000" stroke="none" 
	d="
M601.385193,164.961304 
	C601.694275,163.667023 602.384155,162.443726 603.360840,161.113098 
	C603.020447,162.347946 602.393188,163.690125 601.385193,164.961304 
z"/>
<path fill="#D2A8A8" opacity="1.000000" stroke="none" 
	d="
M682.497559,116.473167 
	C681.651367,116.603828 680.613525,116.509308 679.270630,116.161972 
	C680.078979,116.022102 681.192505,116.135040 682.497559,116.473167 
z"/>
<path fill="#DBBABA" opacity="1.000000" stroke="none" 
	d="
M725.087280,134.773010 
	C724.468201,134.841309 723.964294,134.697449 723.264526,134.374390 
	C723.834656,133.952011 724.600647,133.708847 725.666199,133.398560 
	C725.711365,133.741257 725.456909,134.151062 725.087280,134.773010 
z"/>
<path fill="#C38081" opacity="1.000000" stroke="none" 
	d="
M560.804321,95.816032 
	C560.407593,95.815468 559.836975,95.620422 559.133911,95.242821 
	C559.544556,95.247360 560.087463,95.434464 560.804321,95.816032 
z"/>
<path fill="#DBBABA" opacity="1.000000" stroke="none" 
	d="
M711.634155,123.681747 
	C711.390381,123.390457 711.232666,122.761230 711.293213,122.055534 
	C711.580994,122.433983 711.650635,122.888893 711.634155,123.681747 
z"/>
<path fill="#CD9999" opacity="1.000000" stroke="none" 
	d="
M594.077026,96.749619 
	C593.504761,97.016762 592.767578,97.007545 591.663574,97.000992 
	C592.168579,96.826859 593.040344,96.650055 594.077026,96.749619 
z"/>
<path fill="#DBBABA" opacity="1.000000" stroke="none" 
	d="
M711.434937,96.765564 
	C711.015259,96.845673 710.646301,96.658173 710.147461,96.304581 
	C710.506958,96.258316 710.996338,96.378136 711.434937,96.765564 
z"/>
<path fill="#CD9999" opacity="1.000000" stroke="none" 
	d="
M591.159119,164.268982 
	C591.397522,164.161682 591.586243,164.324295 591.860107,164.667542 
	C591.970215,164.819244 591.486145,164.843399 591.486145,164.843399 
	C591.486145,164.843399 591.134399,164.510025 591.159119,164.268982 
z"/>
<path fill="#CCA3A3" opacity="1.000000" stroke="none" 
	d="
M681.347168,145.190704 
	C681.225342,145.117279 681.671143,144.931900 681.792358,144.951370 
	C681.839600,145.181335 681.691406,145.279083 681.347168,145.190704 
z"/>
<path fill="#CE9B9C" opacity="1.000000" stroke="none" 
	d="
M625.332031,145.771301 
	C625.361389,145.583420 625.684937,145.397705 626.289185,145.160950 
	C626.255371,145.331116 625.940796,145.552277 625.332031,145.771301 
z"/>
<path fill="#222121" opacity="1.000000" stroke="none" 
	d="
M183.998688,149.972870 
	C178.971573,149.908127 173.944473,149.843384 168.455811,149.858902 
	C166.748947,149.702515 165.503632,149.465851 163.832214,149.148224 
	C165.058258,146.473907 166.127686,144.141205 167.437622,141.249359 
	C172.114532,133.125671 176.550964,125.561111 181.136108,117.689713 
	C183.158447,114.772316 185.032074,112.161758 187.030762,109.376953 
	C190.492874,112.367043 190.586472,115.343422 188.708649,118.613625 
	C185.229523,124.672440 181.565872,130.635727 178.378662,136.843933 
	C177.641586,138.279633 178.514572,140.541916 178.646652,142.423843 
	C180.400955,141.724442 182.939621,141.532349 183.775986,140.239227 
	C187.744705,134.103271 191.399948,127.748497 194.875046,121.314072 
	C198.097641,115.347168 197.478836,110.299591 192.718109,105.328278 
	C190.825378,103.351822 190.726273,101.961388 191.867981,99.756912 
	C193.924744,95.785568 193.497086,91.694649 190.317764,88.726471 
	C187.223038,85.837280 183.196060,84.871704 178.619568,86.779587 
	C177.038513,87.821373 175.441483,88.668762 174.662933,89.996208 
	C170.230576,97.553383 165.993484,105.225098 161.432220,113.074722 
	C160.204788,115.247635 159.235138,117.203682 158.240021,119.155457 
	C158.214569,119.151176 158.182846,119.190315 157.787506,119.320068 
	C151.597137,119.644531 145.802109,119.839226 139.551575,119.953049 
	C135.399567,119.926643 131.703064,119.981117 127.543564,119.955528 
	C121.055779,119.929085 115.031006,119.982689 108.543030,119.956589 
	C101.721870,119.930450 95.363907,119.984001 88.542519,119.964157 
	C83.619072,119.888252 79.134560,119.620872 74.712608,120.029907 
	C73.207542,120.169128 71.860016,122.011421 70.440498,123.075508 
	C71.841240,124.135101 73.188789,126.011116 74.652359,126.106491 
	C79.743820,126.438263 84.875488,126.152863 90.457474,126.165031 
	C97.281158,126.174019 103.639236,126.120132 110.460358,126.141884 
	C116.615402,126.178154 122.307404,126.138786 128.457458,126.185921 
	C133.277649,126.220261 137.639771,126.168098 142.411041,126.203972 
	C145.896835,126.450653 148.973465,126.609306 152.934158,126.813553 
	C148.627213,134.691513 144.761353,141.762680 140.895477,148.833832 
	C134.904160,149.160400 128.912842,149.486969 122.458420,149.887909 
	C115.303619,149.922791 108.611931,149.883270 101.454704,149.913055 
	C93.633049,149.940582 86.276932,149.898788 78.454292,149.920135 
	C70.967773,149.944092 63.947777,149.904922 56.461033,149.918243 
	C49.639614,149.945312 43.284935,149.919876 36.464130,149.948700 
	C31.256235,149.913956 29.870699,147.361572 29.998350,142.853775 
	C30.252790,133.868683 30.057377,124.870842 30.396240,115.360321 
	C35.036533,115.551247 35.528271,119.210556 36.936626,122.369514 
	C37.641273,123.950027 39.548660,124.994308 40.912064,126.281113 
	C41.725475,124.381142 43.453968,122.344223 43.193668,120.604950 
	C42.075073,113.130814 37.504936,108.494637 30.091543,106.758553 
	C30.082916,96.488739 30.074289,86.218933 30.410313,75.422302 
	C35.504478,75.785339 35.794289,79.853683 37.117367,83.377449 
	C37.595078,84.649742 39.496048,85.387650 40.747536,86.369408 
	C41.727077,85.046951 43.671009,83.601311 43.520531,82.423203 
	C42.840473,77.099106 41.420147,71.944756 35.601894,69.697456 
	C30.256918,67.835960 29.780722,63.726582 30.000549,58.789742 
	C30.338047,51.210239 30.080868,43.604252 30.421402,35.496292 
	C35.057549,35.681850 35.529114,39.353825 36.911167,42.498737 
	C37.626957,44.127552 39.425140,46.559868 40.573524,46.474186 
	C43.734741,46.238312 43.933140,43.595226 43.427975,40.824425 
	C42.364079,34.988972 39.009270,31.027670 33.923454,28.231058 
	C32.437019,27.413689 31.223324,26.100332 29.884619,25.014311 
	C30.503689,21.550447 28.930777,16.643967 35.621605,16.840704 
	C43.046436,16.817348 50.067665,16.863791 57.553978,16.836277 
	C64.043694,16.802683 70.068321,16.843044 76.558350,16.809574 
	C82.714119,16.790565 88.404495,16.845390 94.559128,16.821493 
	C100.042679,16.826632 105.061974,16.910492 110.545044,16.929878 
	C116.367729,16.881777 121.726646,16.898151 127.548340,16.837322 
	C136.629471,16.810703 145.247833,16.861282 154.241913,16.832388 
	C160.774490,16.804771 166.931351,16.856628 173.549713,16.821171 
	C180.031815,16.797266 186.052429,16.860672 192.535522,16.846603 
	C203.246613,17.609341 203.232239,17.609339 203.231522,28.279112 
	C203.228973,66.325470 203.252472,104.371857 203.199478,142.418137 
	C203.196579,144.506088 202.590652,146.593185 201.586853,149.072128 
	C195.271774,149.633347 189.635223,149.803101 183.998688,149.972870 
M113.702461,89.407021 
	C119.874390,90.484383 125.354523,88.824852 130.979446,85.002769 
	C133.211700,83.051109 135.392319,81.036362 137.685654,79.159340 
	C145.348892,72.887199 148.820877,60.957428 145.620941,51.684143 
	C142.144501,41.609539 133.516006,37.731621 123.266632,42.097748 
	C121.641701,43.156216 120.109787,44.427036 118.357445,45.194649 
	C117.281364,45.666027 115.694519,45.776783 114.641350,45.330811 
	C112.301582,44.340008 110.153290,42.897038 107.400986,41.141293 
	C96.999100,37.844315 87.787964,44.675354 86.969452,56.506355 
	C85.997337,70.557571 93.540642,79.627037 105.375229,86.830864 
	C107.911362,87.590034 110.447502,88.349213 113.702461,89.407021 
M136.405380,103.338264 
	C136.405380,103.338264 136.025345,103.452370 135.324585,103.341270 
	C134.857101,103.395988 134.389618,103.450714 133.150284,103.261055 
	C126.109268,103.333328 119.068260,103.405602 111.107666,103.292038 
	C106.427490,103.321938 101.747307,103.351830 96.144730,103.180992 
	C92.154655,103.179932 88.126328,102.864769 84.194733,103.343750 
	C82.769028,103.517441 81.574585,105.589355 80.274612,106.795135 
	C81.552719,107.838310 82.771019,109.676224 84.119980,109.777718 
	C88.405754,110.100182 92.740234,109.775421 97.978104,109.820717 
	C104.654480,109.768311 111.330856,109.715904 118.927963,109.829124 
	C124.295242,109.771477 129.662521,109.713837 135.948547,109.812874 
	C140.087814,109.834862 144.257996,110.156136 148.351288,109.733192 
	C150.014755,109.561310 151.511002,107.770889 153.083328,106.716927 
	C151.457047,105.546631 149.928558,103.584724 148.184326,103.369293 
	C144.446579,102.907623 140.597412,103.348022 136.405380,103.338264 
z"/>
<path fill="#CE9695" opacity="1.000000" stroke="none" 
	d="
M184.000092,150.391800 
	C189.635223,149.803101 195.271774,149.633347 201.358414,149.388885 
	C202.677582,153.418915 200.181076,154.712921 196.839050,154.890839 
	C192.884811,155.101379 188.912796,154.977829 184.484314,154.998932 
	C184.013931,153.602768 184.007721,152.206741 184.000092,150.391800 
z"/>
<path fill="#302E2E" opacity="1.000000" stroke="none" 
	d="
M789.902954,124.269836 
	C789.162231,125.083557 788.537964,125.590385 787.908508,126.101433 
	C784.436157,120.549667 785.909058,114.095772 791.965515,108.723640 
	C795.207275,107.838409 798.259460,107.214119 801.311646,106.589828 
	C801.529724,107.021133 801.747803,107.452438 801.965942,107.883743 
	C797.983765,113.243477 794.001648,118.603210 789.902954,124.269836 
z"/>
<path fill="#E8D8D7" opacity="1.000000" stroke="none" 
	d="
M791.488892,125.508224 
	C791.479980,125.485329 791.497742,125.531120 791.488892,125.508224 
z"/>
<path fill="#9E3536" opacity="1.000000" stroke="none" 
	d="
M29.589474,25.110222 
	C31.223324,26.100332 32.437019,27.413689 33.923454,28.231058 
	C39.009270,31.027670 42.364079,34.988972 43.427975,40.824425 
	C43.933140,43.595226 43.734741,46.238312 40.573524,46.474186 
	C39.425140,46.559868 37.626957,44.127552 36.911167,42.498737 
	C35.529114,39.353825 35.057549,35.681850 30.398956,35.033291 
	C29.785543,31.791044 29.539936,28.498589 29.589474,25.110222 
z"/>
<path fill="#9E3536" opacity="1.000000" stroke="none" 
	d="
M30.070499,107.158379 
	C37.504936,108.494637 42.075073,113.130814 43.193668,120.604950 
	C43.453968,122.344223 41.725475,124.381142 40.912064,126.281113 
	C39.548660,124.994308 37.641273,123.950027 36.936626,122.369514 
	C35.528271,119.210556 35.036533,115.551247 30.366913,114.888245 
	C30.009239,112.475479 30.029346,110.016838 30.070499,107.158379 
z"/>
<path fill="#9E3536" opacity="1.000000" stroke="none" 
	d="
M35.205997,69.804596 
	C41.420147,71.944756 42.840473,77.099106 43.520531,82.423203 
	C43.671009,83.601311 41.727077,85.046951 40.747536,86.369408 
	C39.496048,85.387650 37.595078,84.649742 37.117367,83.377449 
	C35.794289,79.853683 35.504478,75.785339 30.381525,74.955276 
	C31.608759,73.313957 33.209431,71.612846 35.205997,69.804596 
z"/>
<path fill="#332222" opacity="1.000000" stroke="none" 
	d="
M21.441582,131.796005 
	C15.238754,124.839554 15.348841,120.119766 21.726166,114.258179 
	C22.581844,114.571442 23.656744,115.074318 23.668667,115.601250 
	C23.780972,120.563843 23.760321,125.531975 23.614305,130.493683 
	C23.600843,130.951126 22.454920,131.375244 21.441582,131.796005 
z"/>
<path fill="#2F2222" opacity="1.000000" stroke="none" 
	d="
M21.426785,91.916443 
	C19.696911,88.639671 17.660212,85.465515 17.232590,82.087662 
	C16.759167,78.348015 18.947329,75.447472 23.572868,75.042755 
	C23.916302,79.451309 24.043718,83.789703 23.772594,88.103058 
	C23.690195,89.413979 22.508011,90.655777 21.426785,91.916443 
z"/>
<path fill="#2F2222" opacity="1.000000" stroke="none" 
	d="
M21.644070,52.371372 
	C17.936462,48.605118 15.299437,44.511795 17.928499,39.498867 
	C18.920315,37.607731 21.401390,36.497654 23.567616,35.084663 
	C23.905401,39.625084 24.015142,44.119862 23.768539,48.594994 
	C23.696241,49.906998 22.611841,51.163227 21.644070,52.371372 
z"/>
<path fill="#2B2323" opacity="1.000000" stroke="none" 
	d="
M407.132324,125.748245 
	C402.985535,124.928108 403.996338,121.434532 404.523743,119.100220 
	C405.261444,115.834991 407.199036,112.840866 409.037140,109.369019 
	C409.721527,108.813255 409.992065,108.619225 410.262604,108.425201 
	C410.762299,108.225655 411.262024,108.026108 411.932587,107.616547 
	C414.513763,107.270134 416.924103,107.133736 420.822693,106.913109 
	C415.756378,113.823303 411.502838,119.624908 407.132324,125.748245 
z"/>
<path fill="#212020" opacity="1.000000" stroke="none" 
	d="
M489.488617,142.512177 
	C489.503693,142.528976 489.473541,142.495392 489.488617,142.512177 
z"/>
<path fill="#252323" opacity="1.000000" stroke="none" 
	d="
M557.351624,134.130249 
	C552.296936,134.309570 548.069214,133.221558 544.887695,128.936768 
	C544.078186,125.529236 542.994690,122.324112 543.045105,119.136917 
	C543.157837,112.004562 547.561340,107.857933 555.621948,106.816475 
	C563.779968,108.782585 567.902100,113.263680 568.144653,119.906723 
	C568.384583,126.478165 564.734558,131.396805 557.351624,134.130249 
z"/>
<path fill="#252323" opacity="1.000000" stroke="none" 
	d="
M619.351074,134.179871 
	C614.149719,134.494156 609.732910,133.542618 606.275330,129.245010 
	C605.296936,125.984642 604.612549,122.892021 603.939087,119.151611 
	C603.949951,118.503830 603.888733,118.017075 603.888733,118.017075 
	C604.211243,117.049484 604.533691,116.081894 604.895874,114.733307 
	C606.795837,109.658737 610.780823,107.938416 615.651306,106.832230 
	C624.307312,107.879280 628.376709,111.440887 629.219177,118.271172 
	C630.177246,126.038918 627.086060,131.155243 619.351074,134.179871 
z"/>
<path fill="#CD9999" opacity="1.000000" stroke="none" 
	d="
M603.781677,118.114212 
	C603.888733,118.017075 603.949951,118.503830 603.876953,118.738037 
	C603.559143,118.742607 603.515991,118.488983 603.781677,118.114212 
z"/>
<path fill="#B15555" opacity="1.000000" stroke="none" 
	d="
M410.104126,108.265533 
	C409.992065,108.619225 409.721527,108.813255 409.210754,109.084465 
	C409.295532,108.809723 409.620575,108.457802 410.104126,108.265533 
z"/>
<path fill="#DBBABA" opacity="1.000000" stroke="none" 
	d="
M703.000000,131.000336 
	C703.182068,131.202545 703.379761,131.393478 703.535156,131.614151 
	C703.572937,131.667816 703.471863,131.819336 703.434692,131.925842 
	C703.303589,131.740189 703.172485,131.554520 703.020691,131.183807 
	C703.000000,130.998779 703.000000,131.000000 703.000000,131.000336 
z"/>
<path fill="#2A2625" opacity="1.000000" stroke="none" 
	d="
M163.354858,136.691605 
	C159.649643,143.153122 155.944427,149.614624 152.034058,156.340805 
	C147.747330,163.025467 143.665741,169.445465 139.298950,176.070923 
	C134.515656,175.699921 134.016876,173.349243 136.079880,169.779449 
	C138.531342,165.537491 140.929016,161.264450 143.648239,156.411041 
	C149.710632,145.753830 155.474792,135.690475 161.507141,125.383301 
	C167.902435,114.448189 174.029541,103.756897 180.486954,92.918411 
	C182.434631,93.020386 184.584641,92.749268 185.498947,93.685249 
	C186.215759,94.419014 185.856674,96.880074 185.192139,98.170242 
	C182.266754,103.849945 179.057190,109.383286 175.682861,115.179573 
	C171.395035,122.490189 167.374954,129.590897 163.354858,136.691605 
z"/>
<path fill="#BE7879" opacity="1.000000" stroke="none" 
	d="
M161.238953,125.627113 
	C155.474792,135.690475 149.710632,145.753830 143.721680,156.060089 
	C142.734085,154.023468 141.971283,151.743958 141.051971,149.149139 
	C144.761353,141.762680 148.627213,134.691513 152.934158,126.813553 
	C148.973465,126.609306 145.896835,126.450653 142.397217,125.835938 
	C141.318527,123.597900 140.662811,121.815910 140.007095,120.033920 
	C145.802109,119.839226 151.597137,119.644531 157.958862,119.750946 
	C159.430038,121.910416 160.334503,123.768761 161.238953,125.627113 
z"/>
<path fill="#C18484" opacity="1.000000" stroke="none" 
	d="
M163.667053,136.898987 
	C167.374954,129.590897 171.395035,122.490189 175.936768,115.394348 
	C177.968063,116.264992 179.477722,117.130768 180.987396,117.996552 
	C176.550964,125.561111 172.114532,133.125671 167.405853,140.878235 
	C166.082153,139.746292 165.030701,138.426346 163.667053,136.898987 
z"/>
<path fill="#C68C8D" opacity="1.000000" stroke="none" 
	d="
M181.136093,117.689713 
	C179.477722,117.130768 177.968063,116.264992 176.204498,115.184433 
	C179.057190,109.383286 182.266754,103.849945 185.192139,98.170242 
	C185.856674,96.880074 186.215759,94.419014 185.498947,93.685249 
	C184.584641,92.749268 182.434631,93.020386 180.125671,92.885666 
	C174.190948,91.307777 179.923874,88.813477 178.981583,86.806885 
	C183.196060,84.871704 187.223038,85.837280 190.317764,88.726471 
	C193.497086,91.694649 193.924744,95.785568 191.867981,99.756912 
	C190.726273,101.961388 190.825378,103.351822 192.718109,105.328278 
	C197.478836,110.299591 198.097641,115.347168 194.875046,121.314072 
	C191.399948,127.748497 187.744705,134.103271 183.775986,140.239227 
	C182.939621,141.532349 180.400955,141.724442 178.646652,142.423843 
	C178.514572,140.541916 177.641586,138.279633 178.378662,136.843933 
	C181.565872,130.635727 185.229523,124.672440 188.708649,118.613625 
	C190.586472,115.343422 190.492874,112.367043 187.030762,109.376953 
	C185.032074,112.161758 183.158447,114.772316 181.136093,117.689713 
z"/>
<path fill="#BA6F70" opacity="1.000000" stroke="none" 
	d="
M123.956749,41.947563 
	C133.516006,37.731621 142.144501,41.609539 145.620941,51.684143 
	C148.820877,60.957428 145.348892,72.887199 137.685654,79.159340 
	C135.392319,81.036362 133.211700,83.051109 130.371353,84.877159 
	C128.378067,83.441833 126.992874,82.132111 125.857834,80.570511 
	C134.396988,75.741287 139.506989,68.852219 139.952682,59.324528 
	C140.440262,48.901955 134.897034,44.988609 125.043472,47.820305 
	C124.682358,45.625004 124.319557,43.786282 123.956749,41.947563 
z"/>
<path fill="#AC5555" opacity="1.000000" stroke="none" 
	d="
M104.883293,86.353760 
	C93.540642,79.627037 85.997337,70.557571 86.969452,56.506355 
	C87.787964,44.675354 96.999100,37.844315 107.679611,41.865593 
	C107.946785,44.447468 107.935341,46.305046 107.545517,48.041054 
	C99.398346,45.658939 94.823395,48.579605 93.829292,56.459827 
	C93.004089,63.001171 95.020683,68.616837 99.452751,73.416473 
	C101.350273,75.471352 103.280930,77.495636 105.049744,79.885468 
	C104.896400,82.275993 104.889847,84.314880 104.883293,86.353760 
z"/>
<path fill="#C18284" opacity="1.000000" stroke="none" 
	d="
M178.619568,86.779587 
	C179.923874,88.813477 174.190948,91.307777 179.795364,93.032867 
	C174.029541,103.756897 167.902435,114.448189 161.507141,125.383301 
	C160.334503,123.768761 159.430038,121.910416 158.354218,119.621193 
	C158.182846,119.190315 158.214569,119.151176 158.674805,119.360077 
	C163.496964,119.250305 164.041458,117.820091 161.690002,112.857864 
	C165.993484,105.225098 170.230576,97.553383 174.662933,89.996208 
	C175.441483,88.668762 177.038513,87.821373 178.619568,86.779587 
z"/>
<path fill="#B16160" opacity="1.000000" stroke="none" 
	d="
M107.923889,48.162624 
	C107.935341,46.305046 107.946785,44.447468 107.942589,42.114140 
	C110.153290,42.897038 112.301582,44.340008 114.641350,45.330811 
	C115.694519,45.776783 117.281364,45.666027 118.357445,45.194649 
	C120.109787,44.427036 121.641701,43.156216 123.611694,42.022655 
	C124.319557,43.786282 124.682358,45.625004 124.853638,48.085999 
	C123.122223,50.424328 121.469299,52.053440 120.067741,53.875866 
	C117.696312,56.959400 115.692757,56.705414 113.375336,53.743019 
	C111.782761,51.707214 109.756371,50.010761 107.923889,48.162624 
z"/>
<path fill="#B46869" opacity="1.000000" stroke="none" 
	d="
M112.027245,103.477875 
	C119.068260,103.405602 126.109268,103.333328 133.562805,103.795502 
	C134.326813,106.105354 134.678299,107.880775 135.029800,109.656189 
	C129.662521,109.713837 124.295242,109.771477 118.422470,109.392258 
	C116.934883,108.301834 115.837967,107.768181 114.999191,106.964973 
	C113.901794,105.914085 113.008400,104.650154 112.027245,103.477875 
z"/>
<path fill="#B6605E" opacity="1.000000" stroke="none" 
	d="
M111.567459,103.384956 
	C113.008400,104.650154 113.901794,105.914085 114.999191,106.964973 
	C115.837967,107.768181 116.934883,108.301834 117.962097,109.309441 
	C111.330856,109.715904 104.654480,109.768311 97.390640,109.470161 
	C95.644196,108.165924 94.485214,107.212242 93.244659,106.191437 
	C94.803047,105.045937 95.935089,104.213829 97.067123,103.381714 
	C101.747307,103.351830 106.427490,103.321938 111.567459,103.384956 
z"/>
<path fill="#C07676" opacity="1.000000" stroke="none" 
	d="
M135.489166,109.734528 
	C134.678299,107.880775 134.326813,106.105354 133.948730,103.917686 
	C134.389618,103.450714 134.857101,103.395988 135.736725,103.580048 
	C136.363861,103.685555 136.578873,103.552284 136.793869,103.419014 
	C140.597412,103.348022 144.446579,102.907623 148.184326,103.369293 
	C149.928558,103.584724 151.457047,105.546631 153.083328,106.716927 
	C151.511002,107.770889 150.014755,109.561310 148.351288,109.733192 
	C144.257996,110.156136 140.087814,109.834862 135.489166,109.734528 
z"/>
<path fill="#B75C5D" opacity="1.000000" stroke="none" 
	d="
M89.005951,120.037560 
	C95.363907,119.984001 101.721870,119.930450 108.559525,120.338692 
	C109.358589,122.555740 109.677956,124.310997 109.997314,126.066246 
	C103.639236,126.120132 97.281158,126.174019 90.398773,125.782562 
	C89.584969,123.570656 89.295464,121.804108 89.005951,120.037560 
z"/>
<path fill="#B05050" opacity="1.000000" stroke="none" 
	d="
M88.542519,119.964157 
	C89.295464,121.804108 89.584969,123.570656 89.933167,125.719681 
	C84.875488,126.152863 79.743820,126.438263 74.652359,126.106491 
	C73.188789,126.011116 71.841240,124.135101 70.440498,123.075508 
	C71.860016,122.011421 73.207542,120.169128 74.712608,120.029907 
	C79.134560,119.620872 83.619072,119.888252 88.542519,119.964157 
z"/>
<path fill="#BC6867" opacity="1.000000" stroke="none" 
	d="
M110.460365,126.141884 
	C109.677956,124.310997 109.358589,122.555740 109.022720,120.418396 
	C115.031006,119.982689 121.055779,119.929085 127.541870,120.387192 
	C128.001907,122.632408 128.000656,124.365913 127.999390,126.099419 
	C122.307404,126.138786 116.615402,126.178154 110.460365,126.141884 
z"/>
<path fill="#9B5151" opacity="1.000000" stroke="none" 
	d="
M96.605927,103.281357 
	C95.935089,104.213829 94.803047,105.045937 93.244659,106.191437 
	C94.485214,107.212242 95.644196,108.165924 96.929535,109.410202 
	C92.740234,109.775421 88.405754,110.100182 84.119980,109.777718 
	C82.771019,109.676224 81.552719,107.838310 80.274612,106.795135 
	C81.574585,105.589355 82.769028,103.517441 84.194733,103.343750 
	C88.126328,102.864769 92.154655,103.179932 96.605927,103.281357 
z"/>
<path fill="#B96B6B" opacity="1.000000" stroke="none" 
	d="
M125.607681,80.822388 
	C126.992874,82.132111 128.378067,83.441833 130.050812,84.976761 
	C125.354523,88.824852 119.874390,90.484383 113.370369,88.826996 
	C113.328407,86.555595 113.618538,84.864204 114.307236,83.186127 
	C118.339752,82.407089 121.973717,81.614738 125.607681,80.822388 
z"/>
<path fill="#BE7270" opacity="1.000000" stroke="none" 
	d="
M128.457458,126.185921 
	C128.000656,124.365913 128.001907,122.632408 128.004883,120.467239 
	C131.703064,119.981117 135.399567,119.926643 139.551575,119.953049 
	C140.662811,121.815910 141.318527,123.597900 141.988068,125.747910 
	C137.639771,126.168098 133.277649,126.220261 128.457458,126.185921 
z"/>
<path fill="#B16160" opacity="1.000000" stroke="none" 
	d="
M113.908676,83.172821 
	C113.618538,84.864204 113.328407,86.555595 113.010956,88.677689 
	C110.447502,88.349213 107.911362,87.590034 105.129257,86.592316 
	C104.889847,84.314880 104.896400,82.275993 105.367256,80.063324 
	C108.523926,80.983963 111.216301,82.078392 113.908676,83.172821 
z"/>
<path fill="#BE7879" opacity="1.000000" stroke="none" 
	d="
M161.432220,113.074722 
	C164.041458,117.820091 163.496964,119.250305 158.700256,119.364357 
	C159.235138,117.203682 160.204788,115.247635 161.432220,113.074722 
z"/>
<path fill="#B46869" opacity="1.000000" stroke="none" 
	d="
M136.599625,103.378639 
	C136.578873,103.552284 136.363861,103.685555 136.087097,103.635597 
	C136.025345,103.452370 136.405380,103.338264 136.599625,103.378639 
z"/>
<path fill="#232121" opacity="1.000000" stroke="none" 
	d="
M114.307228,83.186127 
	C111.216301,82.078392 108.523926,80.983963 105.514046,79.711670 
	C103.280930,77.495636 101.350273,75.471352 99.452751,73.416473 
	C95.020683,68.616837 93.004089,63.001171 93.829292,56.459827 
	C94.823395,48.579605 99.398346,45.658939 107.545517,48.041054 
	C109.756371,50.010761 111.782761,51.707214 113.375336,53.743019 
	C115.692757,56.705414 117.696312,56.959400 120.067741,53.875866 
	C121.469299,52.053440 123.122223,50.424328 124.851944,48.442581 
	C134.897034,44.988609 140.440262,48.901955 139.952682,59.324528 
	C139.506989,68.852219 134.396988,75.741287 125.857834,80.570511 
	C121.973717,81.614738 118.339752,82.407089 114.307228,83.186127 
z"/>
</svg>