<svg version="1.1" id="Layer_1" xmlns="http://www.w3.org/2000/svg" xmlns:xlink="http://www.w3.org/1999/xlink" x="0px" y="0px"
	 width="100%" viewBox="0 0 820 660" enable-background="new 0 0 820 660" xml:space="preserve">
<path fill="#191A1C" opacity="1.000000" stroke="none" 
	d="
M821.000000,49.000000 
	C821.000000,252.958145 821.000000,456.916290 821.000000,660.937256 
	C547.764587,660.937256 274.529205,660.937256 1.000000,660.937256 
	C1.000000,457.306580 1.000000,253.612991 1.455951,49.459572 
	C274.941254,48.999821 547.970642,48.999912 821.000000,49.000000 
M22.982767,507.884796 
	C23.935705,508.652466 24.888643,509.420105 25.950251,510.944489 
	C27.320099,513.838867 28.689947,516.733215 30.771618,519.917908 
	C34.475262,520.165222 34.954712,517.778442 35.145264,514.306885 
	C36.746540,511.867279 38.347816,509.427673 40.707245,507.033020 
	C42.075912,505.714539 43.444580,504.396027 44.813244,503.077515 
	C43.164345,502.136230 41.515446,501.194946 39.641350,499.637817 
	C38.354031,498.443085 37.066711,497.248322 35.791805,495.262238 
	C34.672714,492.717499 33.553627,490.172791 32.329937,487.595215 
	C32.329937,487.595215 32.250031,487.670288 32.095261,487.141968 
	C31.734707,487.112274 31.374151,487.082611 30.261345,486.890686 
	C29.471914,488.906647 28.682484,490.922638 27.492657,493.471375 
	C26.628826,495.268280 25.764994,497.065155 24.315269,499.014771 
	C24.157999,499.141357 24.000727,499.267944 23.138231,499.424286 
	C21.341251,500.554901 19.544273,501.685516 17.747284,502.816101 
	C19.382242,504.332550 21.017200,505.849030 22.982767,507.884796 
M151.849335,539.305176 
	C151.245255,539.003174 150.641174,538.701111 149.540085,538.039917 
	C147.354385,538.330933 145.168686,538.621887 142.285721,538.973572 
	C141.045059,540.232727 139.804398,541.491821 137.957367,543.048218 
	C134.399780,548.545593 134.423706,551.288147 138.208130,556.634094 
	C140.025284,558.479675 141.842453,560.325195 144.014389,562.743469 
	C146.302490,564.215881 148.590591,565.688293 151.332397,567.672058 
	C152.757095,568.364624 154.181808,569.057129 156.235107,569.998169 
	C158.178024,569.122559 160.120941,568.246948 162.755051,567.195740 
	C164.899521,565.635376 167.043991,564.075012 169.765594,562.116089 
	C170.660751,561.156067 171.481750,560.111633 172.462769,559.249268 
	C180.377792,552.292297 178.914642,542.839722 168.671585,537.957947 
	C164.431076,536.659729 161.236633,538.897400 157.253983,541.025391 
	C155.522842,540.635986 153.791702,540.246521 152.057571,539.944702 
	C152.057571,539.944702 152.145126,539.939819 151.849335,539.305176 
M199.641159,518.775574 
	C199.388092,518.523193 199.135025,518.270813 198.729935,517.302185 
	C197.934998,514.710938 197.366760,512.015198 196.241699,509.576233 
	C195.740509,508.489746 194.118195,507.920410 192.288666,507.106171 
	C191.557953,508.743683 190.827225,510.381165 189.774078,512.636414 
	C188.847382,514.816833 187.920685,516.997192 186.278091,519.285767 
	C185.655136,519.488220 184.955643,519.572144 184.423798,519.915588 
	C182.889740,520.906250 181.423248,522.001526 179.930237,523.055664 
	C181.061157,524.518860 182.048080,526.130676 183.362488,527.404541 
	C184.745712,528.745056 186.442123,529.762451 188.252090,531.565613 
	C188.877945,533.023438 189.503799,534.481262 190.087143,536.712524 
	C190.830154,539.810852 192.235199,541.602173 196.142471,539.070312 
	C196.807220,536.600403 197.471985,534.130554 198.698502,531.255249 
	C199.449371,530.378845 200.200241,529.502502 201.589523,528.392883 
	C203.358719,526.736572 205.127899,525.080261 206.897079,523.423950 
	C205.218582,522.363342 203.558716,521.271423 201.852264,520.257874 
	C201.182114,519.859863 200.407730,519.637329 199.529968,519.234863 
	C199.529968,519.234863 199.698364,519.302795 199.641159,518.775574 
M196.853745,470.960205 
	C196.853745,470.960205 196.848389,470.571716 197.453629,470.197235 
	C199.321854,468.905457 201.190079,467.613647 203.058304,466.321838 
	C201.260269,464.972412 199.478806,463.599762 197.650665,462.292480 
	C197.269119,462.019653 196.714981,461.988220 195.985214,461.320831 
	C195.368790,460.854034 194.752380,460.387238 193.859177,459.279114 
	C191.936676,456.173004 190.014175,453.066895 188.182266,449.180054 
	C187.506088,447.171478 187.185928,444.919586 186.035049,443.235413 
	C185.195496,442.006866 183.261124,441.526489 181.114929,440.839325 
	C179.287949,445.167938 177.460983,449.496582 175.145157,454.194397 
	C174.208435,455.807465 173.271713,457.420563 171.729187,459.296326 
	C170.819519,460.231659 169.909836,461.167023 168.239197,462.141907 
	C166.304794,463.311249 164.370392,464.480560 162.435989,465.649872 
	C164.127655,467.346405 165.793503,469.070282 167.535583,470.713348 
	C167.836945,470.997589 168.461227,470.939423 169.355530,471.528137 
	C170.897568,472.692078 172.439606,473.855988 174.201584,475.580841 
	C174.808548,476.384186 175.415512,477.187561 176.206451,478.713226 
	C177.212509,481.571533 178.097931,484.480621 179.271393,487.268463 
	C179.939560,488.855835 181.078278,490.245148 182.735764,491.942108 
	C183.840012,490.943573 185.504242,490.143677 185.942368,488.908813 
	C187.202179,485.358002 187.966370,481.631378 189.269211,477.417694 
	C190.815857,475.937225 192.362488,474.456787 194.503281,472.776672 
	C195.135742,472.251434 195.768204,471.726196 196.465027,471.183350 
	C196.465027,471.183350 196.503845,471.129089 196.853745,470.960205 
M67.358910,469.300415 
	C65.086761,471.124634 62.814606,472.948853 59.939125,475.008820 
	C46.900547,487.428619 50.132664,505.986877 61.051418,517.913391 
	C64.317131,521.402161 67.582840,524.890930 71.138351,528.936035 
	C73.349228,530.732117 75.560097,532.528259 78.139603,534.857361 
	C82.438652,537.871826 86.737694,540.886353 91.426437,544.442749 
	C95.637054,546.883179 99.847664,549.323669 104.557327,552.088989 
	C108.209938,550.172668 111.862549,548.256348 115.948204,546.022705 
	C116.008728,545.854248 116.069244,545.685852 116.515022,545.372498 
	C116.808647,545.383240 117.072121,545.299011 117.898033,544.767761 
	C123.650642,540.541077 129.403259,536.314392 135.782837,531.834290 
	C139.427002,528.179565 143.071167,524.524841 147.252640,520.466370 
	C149.555115,517.237000 152.224213,514.206116 154.097504,510.744476 
	C162.898560,494.481140 158.976883,483.295135 146.889160,471.805847 
	C142.148972,468.371948 137.022354,466.216675 130.259857,466.832642 
	C128.835739,467.239502 127.411621,467.646393 125.486633,467.689606 
	C121.112633,470.019440 116.738632,472.349274 111.725754,474.812378 
	C108.798370,476.378387 107.670395,481.109619 102.983315,479.076294 
	C98.330299,475.835846 93.677284,472.595398 88.416306,468.912048 
	C86.256012,468.350647 84.095718,467.789246 81.259148,466.908447 
	C76.850456,467.678192 72.441772,468.447937 67.358910,469.300415 
M96.889702,650.994446 
	C96.889702,650.994446 96.995277,650.781189 97.603149,650.595215 
	C102.120956,645.209045 106.638763,639.822937 111.895653,634.287476 
	C118.982758,630.554260 126.069855,626.821045 133.908615,623.045837 
	C137.578766,621.285217 141.248917,619.524597 145.594849,617.594788 
	C152.221359,612.812622 158.847855,608.030457 166.110931,603.057922 
	C168.902786,600.757324 171.977859,598.720703 174.423462,596.097290 
	C178.618210,591.597656 178.113693,584.291687 173.718384,579.970886 
	C169.195541,575.524719 162.718628,575.414185 157.128082,579.795288 
	C152.723236,582.248352 148.318390,584.701416 143.739960,587.251160 
	C142.177582,582.242615 139.901199,578.565308 134.318420,576.944153 
	C133.544601,576.946350 132.770767,576.948608 131.396912,576.710938 
	C125.932442,579.487610 120.467964,582.264282 114.297943,585.037231 
	C111.187424,586.993347 108.076897,588.949463 104.217613,591.022949 
	C101.691193,589.231934 99.164772,587.440857 96.643669,585.653625 
	C105.221107,574.277649 106.539589,570.429626 103.354042,565.391602 
	C100.527489,560.921387 96.390541,558.974121 90.324112,560.116150 
	C86.156097,563.623352 81.988083,567.130493 77.194954,570.899780 
	C75.123215,572.932739 73.051483,574.965759 70.666092,576.257874 
	C73.460213,564.776306 65.366318,557.971558 57.129551,560.204529 
	C53.654606,561.146606 50.865360,564.617981 47.154655,567.166565 
	C40.209202,572.272034 36.705555,578.405640 37.125214,587.749573 
	C37.503033,596.161987 35.038105,604.712646 33.719898,613.185669 
	C33.186077,616.616821 32.368221,620.003906 31.150345,623.840820 
	C28.059219,627.507080 24.968096,631.173340 21.298534,635.167480 
	C17.341164,639.619507 13.260081,643.970703 9.502052,648.585083 
	C8.379115,649.963867 7.302157,652.381714 7.790159,653.763245 
	C8.201912,654.928955 10.878058,655.785950 12.608458,655.896729 
	C16.728861,656.160400 20.882692,655.901672 25.952808,655.953308 
	C32.983128,655.916870 40.013447,655.880493 47.951462,655.940430 
	C52.265438,655.879883 56.579418,655.819336 61.702621,655.915527 
	C66.151299,655.890503 70.599983,655.865479 75.972862,655.943604 
	C81.321594,655.873291 86.670319,655.803040 92.656464,655.718872 
	C93.992722,654.117737 95.328979,652.516663 96.889702,650.994446 
M781.493103,602.484741 
	C792.036621,608.884827 806.791809,606.780579 813.057800,597.715088 
	C811.018555,595.730530 808.932678,593.700562 806.767883,591.593811 
	C801.677917,595.544495 796.193665,597.217163 789.544006,595.320190 
	C788.389709,594.843933 787.235413,594.367676 786.032654,593.990295 
	C786.032654,593.990295 786.114563,593.916565 785.759705,593.305969 
	C784.277527,591.134766 782.795288,588.963501 780.931274,586.232971 
	C784.111572,585.973083 786.069641,585.813049 788.944153,585.842590 
	C797.859497,585.842590 806.774841,585.842590 815.811279,585.842590 
	C817.329407,579.524414 816.493042,573.907288 813.531982,568.679688 
	C807.991089,558.897766 795.189941,554.686523 786.115051,559.862366 
	C785.141357,559.956543 783.992126,559.746826 783.221130,560.192017 
	C775.750366,564.505371 770.948914,570.728271 770.324158,579.554810 
	C769.657471,588.973511 772.562195,596.814819 781.493103,602.484741 
M558.453735,604.797302 
	C558.453735,604.797302 558.526978,604.757996 558.722656,605.088806 
	C558.722656,605.088806 559.090027,605.239319 559.090027,605.239319 
	C559.090027,605.239319 559.485657,605.203613 559.867920,605.582031 
	C560.215271,605.613770 560.562683,605.645508 561.784973,605.944458 
	C568.169006,606.896606 573.797607,605.252625 578.568604,600.338196 
	C578.894287,602.300598 579.105225,603.571716 579.303589,604.767029 
	C582.909912,604.767029 586.288696,604.767029 589.713074,604.767029 
	C589.713074,589.298157 589.713074,574.262756 589.713074,558.675964 
	C586.943237,558.675964 584.417725,558.322083 582.080750,558.831970 
	C580.987427,559.070496 580.258179,560.977539 578.687622,562.505981 
	C578.445984,562.596924 578.204407,562.687866 577.546326,562.169067 
	C576.093811,561.293030 574.641357,560.416992 572.666382,559.070801 
	C560.004211,554.774719 548.041809,560.808167 543.753845,573.653381 
	C539.411438,586.661743 545.775696,600.745850 558.045349,604.843994 
	C558.045349,604.843994 558.372253,604.780884 558.453735,604.797302 
M632.674194,558.378723 
	C632.109314,558.363708 631.544434,558.348694 630.212524,558.084412 
	C629.144897,558.085510 628.077209,558.086548 626.170227,557.906738 
	C621.821777,559.163757 617.473328,560.420715 613.102905,561.684021 
	C612.106995,558.267944 609.054382,557.459229 602.521973,559.564087 
	C602.521973,581.281128 602.521973,602.952393 602.521973,624.591187 
	C606.073792,624.591187 609.171875,624.591187 613.027771,624.591187 
	C613.027771,616.862915 613.027771,609.390076 613.027771,601.832764 
	C615.818909,603.069702 617.916199,603.999146 620.599121,605.385437 
	C633.766113,608.645447 645.240051,602.004150 648.682922,589.130005 
	C652.267517,575.725952 645.443909,562.471924 632.674194,558.378723 
M499.008942,593.053833 
	C483.051910,580.556030 486.259460,556.962646 501.775452,549.048401 
	C511.632507,545.464355 520.602112,547.021667 528.344971,553.767212 
	C531.096130,551.348877 533.620789,549.129578 536.120911,546.931824 
	C526.465271,536.738098 511.243225,533.678955 498.264252,539.025146 
	C482.616974,545.701416 473.955780,561.789612 477.500458,578.347351 
	C480.114044,590.555847 486.325104,600.052063 499.575256,604.413452 
	C512.266113,609.359436 529.024780,605.609436 536.243652,595.976379 
	C533.945007,593.743225 531.609558,591.474304 529.007874,588.946777 
	C520.153931,597.572815 509.747162,596.473511 499.008942,593.053833 
M377.737701,567.840088 
	C384.142334,570.394836 385.801300,572.627258 385.864197,579.328369 
	C385.943329,587.759583 385.883270,596.192139 385.883270,604.757324 
	C387.854370,605.003296 389.144989,605.205872 390.443420,605.319336 
	C396.550751,605.852844 396.619629,605.826904 396.566345,599.693909 
	C396.491302,591.052490 396.245117,582.411865 396.243805,573.770874 
	C396.243011,568.461365 393.672363,564.630493 389.839569,561.392700 
	C385.374573,557.620850 380.058380,559.144104 374.186127,558.951172 
	C370.298340,560.422302 366.410553,561.893494 362.010315,563.558533 
	C354.603973,556.446411 345.684204,555.920471 335.346832,561.618774 
	C335.154541,561.150024 334.979340,560.042908 334.634125,559.987000 
	C331.356628,559.456970 328.035980,558.817749 324.765900,558.979614 
	C324.206970,559.007385 323.455719,562.673279 323.429382,564.666931 
	C323.297516,574.656433 323.377716,584.648682 323.382355,594.640015 
	C323.383972,598.077454 323.382629,601.514832 323.382629,605.152588 
	C325.408691,605.253540 326.707672,605.305969 328.005096,605.385010 
	C334.630341,605.788635 334.628815,605.791077 334.669067,599.177246 
	C334.714630,591.684937 334.603577,584.187012 334.863892,576.702148 
	C335.049835,571.355896 338.501465,568.222778 343.823975,567.930908 
	C350.595154,567.559570 354.508911,571.348755 354.736542,579.130676 
	C354.950562,586.447693 354.828064,593.783264 354.578583,601.101318 
	C354.458008,604.637878 355.782745,605.990967 359.221100,605.658325 
	C362.128326,605.377014 365.902130,606.915894 365.744812,601.501892 
	C365.541748,594.514160 365.698273,587.515503 365.722168,580.521667 
	C365.754974,570.915405 367.645477,568.769470 377.737701,567.840088 
M404.463165,579.868042 
	C404.383942,593.128296 410.396912,601.887024 421.901703,605.269165 
	C431.758911,608.167114 442.900909,604.937195 447.514252,597.582031 
	C445.544800,595.526062 443.517670,593.409851 441.600708,591.408691 
	C429.086761,598.927490 418.536926,596.722839 416.408600,586.159973 
	C418.065308,586.079590 419.670197,585.937500 421.275360,585.934692 
	C429.774200,585.919983 438.277283,586.075500 446.767883,585.814575 
	C448.172760,585.771423 450.517578,584.147644 450.745544,582.937378 
	C453.086121,570.511902 442.958130,558.253784 430.360352,557.905273 
	C416.320099,557.516907 407.236206,564.938110 404.463165,579.868042 
M249.514633,537.079529 
	C246.685043,537.082336 243.838928,537.278809 241.030014,537.039246 
	C237.454697,536.734253 236.812973,538.584717 236.976440,541.558105 
	C237.137543,544.488159 236.254517,547.845154 241.133820,547.633972 
	C245.286835,547.454285 249.475357,547.873779 253.609695,547.544800 
	C258.061096,547.190430 259.322723,548.890991 259.259003,553.237549 
	C259.032196,568.713745 259.346130,584.198608 259.059692,599.672791 
	C258.973450,604.330811 260.718323,605.211792 264.873596,605.153931 
	C268.828461,605.098877 270.934845,604.644836 270.840759,599.808472 
	C270.542938,584.501160 270.950592,569.179382 270.601196,553.874268 
	C270.481903,548.648743 272.227753,547.085815 277.157593,547.543579 
	C280.952576,547.895996 284.818146,547.419861 288.632996,547.642944 
	C293.474548,547.925964 292.726288,544.678833 292.911896,541.684021 
	C293.119476,538.334595 292.101715,536.954712 288.459351,537.010193 
	C275.812439,537.203064 263.160675,537.082581 249.514633,537.079529 
M702.861694,597.647217 
	C708.191895,605.242737 715.837158,607.523865 724.382751,605.739502 
	C732.552368,604.033630 738.896851,598.958252 739.579041,590.223999 
	C740.388489,579.860413 739.769409,569.385254 739.769409,559.050049 
	C736.152954,559.050049 732.788452,559.050049 729.191040,559.050049 
	C729.191040,568.482544 729.351135,577.466675 729.135681,586.441833 
	C728.987854,592.600830 726.364929,595.361450 721.063049,595.851990 
	C714.715942,596.439209 710.480286,592.930420 710.303101,586.305298 
	C710.059937,577.213379 710.242371,568.110046 710.242371,558.935303 
	C706.310425,558.935303 703.064270,558.935303 699.366150,558.935303 
	C699.366150,568.040039 699.061462,576.837646 699.506409,585.597046 
	C699.702209,589.451538 701.423157,593.228577 702.861694,597.647217 
M683.359070,570.852783 
	C688.364868,572.507629 688.416443,567.003906 691.431274,565.772949 
	C685.841125,557.901184 673.481567,555.135681 664.770630,559.550110 
	C659.670837,562.134583 657.181763,566.406128 657.185791,572.037781 
	C657.189880,577.610962 659.963379,581.565125 665.069153,583.643250 
	C668.748840,585.140869 672.786316,585.852600 676.296204,587.638184 
	C678.288818,588.651917 679.540344,591.122253 681.125671,592.936646 
	C678.981140,594.107666 676.685913,596.463684 674.721985,596.213928 
	C669.996338,595.612976 665.425903,593.791382 660.008179,592.237061 
	C658.826721,593.502625 656.855591,595.614136 654.929932,597.676941 
	C660.493103,603.984985 666.995361,606.541321 675.820618,606.175537 
	C684.602417,605.811584 690.593201,600.898438 691.661621,593.184326 
	C692.659302,585.979980 688.921448,580.899231 680.307068,577.897095 
	C677.331055,576.859985 674.147827,576.299255 671.342712,574.937195 
	C669.820129,574.197876 668.893494,572.231384 667.698059,570.818420 
	C669.318481,569.698364 671.029114,567.537354 672.541199,567.668396 
	C676.014587,567.969360 679.391357,569.386780 683.359070,570.852783 
M761.449829,555.501099 
	C761.449829,548.882446 761.449829,542.263733 761.449829,535.629395 
	C757.564392,535.629395 754.328125,535.629395 750.784363,535.629395 
	C750.784363,557.807190 750.780518,579.621887 750.795227,601.436523 
	C750.796021,602.581238 750.954407,603.725830 751.058044,605.121521 
	C754.459045,605.121521 757.703003,605.121521 761.449402,605.121521 
	C761.449402,588.738281 761.449402,572.619507 761.449829,555.501099 
M300.930084,591.493530 
	C300.933075,594.821350 301.153412,598.166992 300.882996,601.472473 
	C300.559662,605.424255 302.760681,605.798584 305.799194,605.672363 
	C308.771851,605.548889 311.917633,606.315002 311.857574,601.466187 
	C311.696808,588.489746 311.691345,575.508484 311.861816,562.532227 
	C311.926086,557.638367 308.709381,558.528625 305.790741,558.335266 
	C302.677094,558.128906 300.778717,558.665344 300.868408,562.543274 
	C301.083832,571.856140 300.932495,581.177490 300.930084,591.493530 
M308.669769,537.659790 
	C306.501801,537.997253 303.954285,537.730286 302.247559,538.802185 
	C299.022400,540.827759 298.895599,545.674377 301.464142,548.366760 
	C303.881653,550.900818 308.449097,551.026917 310.866211,548.626282 
	C313.781738,545.730652 313.172760,541.412231 308.669769,537.659790 
z"/>
<path fill="#191A1C" opacity="1.000000" stroke="none" 
	d="
M1.000000,48.000000 
	C1.000000,32.340805 1.000000,16.681614 1.000000,1.043094 
	C274.333344,1.043094 547.666687,1.043094 821.000000,1.043094 
	C821.000000,16.412224 821.000000,31.738258 820.544067,47.531891 
	C547.058777,47.999660 274.029388,47.999828 1.000000,48.000000 
z"/>
<path fill="#343839" opacity="1.000000" stroke="none" 
	d="
M1.000000,48.250000 
	C274.029388,47.999828 547.058777,47.999660 820.544067,47.999744 
	C821.000000,48.000000 821.000000,48.500000 821.000000,48.750000 
	C547.970642,48.999912 274.941254,48.999821 1.455951,48.999866 
	C1.000000,49.000000 1.000000,48.500000 1.000000,48.250000 
z"/>
<path fill="#AC5354" opacity="1.000000" stroke="none" 
	d="
M404.488220,579.444702 
	C407.236206,564.938110 416.320099,557.516907 430.360352,557.905273 
	C442.958130,558.253784 453.086121,570.511902 450.745544,582.937378 
	C450.517578,584.147644 448.172760,585.771423 446.767883,585.814575 
	C438.277283,586.075500 429.774200,585.919983 421.275360,585.934692 
	C419.670197,585.937500 418.065308,586.079590 416.408600,586.159973 
	C418.536926,596.722839 429.086761,598.927490 441.600708,591.408691 
	C443.517670,593.409851 445.544800,595.526062 447.514252,597.582031 
	C442.900909,604.937195 431.758911,608.167114 421.901703,605.269165 
	C410.396912,601.887024 404.383942,593.128296 404.488220,579.444702 
M428.492493,577.019897 
	C432.207611,577.019897 435.922729,577.019897 439.801178,577.019897 
	C438.077850,569.892578 434.499878,567.479187 427.195587,567.814697 
	C421.164001,568.091797 417.447479,571.196960 416.593414,577.021790 
	C420.270508,577.021790 423.893311,577.021790 428.492493,577.019897 
z"/>
<path fill="#A23435" opacity="1.000000" stroke="none" 
	d="
M377.010986,567.643372 
	C367.645477,568.769470 365.754974,570.915405 365.722168,580.521667 
	C365.698273,587.515503 365.541748,594.514160 365.744812,601.501892 
	C365.902130,606.915894 362.128326,605.377014 359.221100,605.658325 
	C355.782745,605.990967 354.458008,604.637878 354.578583,601.101318 
	C354.828064,593.783264 354.950562,586.447693 354.736542,579.130676 
	C354.508911,571.348755 350.595154,567.559570 343.823975,567.930908 
	C338.501465,568.222778 335.049835,571.355896 334.863892,576.702148 
	C334.603577,584.187012 334.714630,591.684937 334.669067,599.177246 
	C334.628815,605.791077 334.630341,605.788635 328.005096,605.385010 
	C326.707672,605.305969 325.408691,605.253540 323.382629,605.152588 
	C323.382629,601.514832 323.383972,598.077454 323.382355,594.640015 
	C323.377716,584.648682 323.297516,574.656433 323.429382,564.666931 
	C323.455719,562.673279 324.206970,559.007385 324.765900,558.979614 
	C328.035980,558.817749 331.356628,559.456970 334.634125,559.987000 
	C334.979340,560.042908 335.154541,561.150024 335.346832,561.618774 
	C345.684204,555.920471 354.603973,556.446411 362.010315,563.558533 
	C366.410553,561.893494 370.298340,560.422302 374.586151,559.406372 
	C375.661102,562.455566 376.336060,565.049438 377.010986,567.643372 
z"/>
<path fill="#9D2727" opacity="1.000000" stroke="none" 
	d="
M250.012695,537.080383 
	C263.160675,537.082581 275.812439,537.203064 288.459351,537.010193 
	C292.101715,536.954712 293.119476,538.334595 292.911896,541.684021 
	C292.726288,544.678833 293.474548,547.925964 288.632996,547.642944 
	C284.818146,547.419861 280.952576,547.895996 277.157593,547.543579 
	C272.227753,547.085815 270.481903,548.648743 270.601196,553.874268 
	C270.950592,569.179382 270.542938,584.501160 270.840759,599.808472 
	C270.934845,604.644836 268.828461,605.098877 264.873596,605.153931 
	C260.718323,605.211792 258.973450,604.330811 259.059692,599.672791 
	C259.346130,584.198608 259.032196,568.713745 259.259003,553.237549 
	C259.322723,548.890991 258.061096,547.190430 253.609695,547.544800 
	C249.475357,547.873779 245.286835,547.454285 241.133820,547.633972 
	C236.254517,547.845154 237.137543,544.488159 236.976440,541.558105 
	C236.812973,538.584717 237.454697,536.734253 241.030014,537.039246 
	C243.838928,537.278809 246.685043,537.082336 250.012695,537.080383 
z"/>
<path fill="#E0C5C6" opacity="1.000000" stroke="none" 
	d="
M702.656677,597.343994 
	C701.423157,593.228577 699.702209,589.451538 699.506409,585.597046 
	C699.061462,576.837646 699.366150,568.040039 699.366150,558.935303 
	C703.064270,558.935303 706.310425,558.935303 710.242371,558.935303 
	C710.242371,568.110046 710.059937,577.213379 710.303101,586.305298 
	C710.480286,592.930420 714.715942,596.439209 721.063049,595.851990 
	C726.364929,595.361450 728.987854,592.600830 729.135681,586.441833 
	C729.351135,577.466675 729.191040,568.482544 729.191040,559.050049 
	C732.788452,559.050049 736.152954,559.050049 739.769409,559.050049 
	C739.769409,569.385254 740.388489,579.860413 739.579041,590.223999 
	C738.896851,598.958252 732.552368,604.033630 724.382751,605.739502 
	C715.837158,607.523865 708.191895,605.242737 702.656677,597.343994 
z"/>
<path fill="#D5AFAF" opacity="1.000000" stroke="none" 
	d="
M683.083191,570.601929 
	C679.391357,569.386780 676.014587,567.969360 672.541199,567.668396 
	C671.029114,567.537354 669.318481,569.698364 667.698059,570.818420 
	C668.893494,572.231384 669.820129,574.197876 671.342712,574.937195 
	C674.147827,576.299255 677.331055,576.859985 680.307068,577.897095 
	C688.921448,580.899231 692.659302,585.979980 691.661621,593.184326 
	C690.593201,600.898438 684.602417,605.811584 675.820618,606.175537 
	C666.995361,606.541321 660.493103,603.984985 654.929932,597.676941 
	C656.855591,595.614136 658.826721,593.502625 660.008179,592.237061 
	C665.425903,593.791382 669.996338,595.612976 674.721985,596.213928 
	C676.685913,596.463684 678.981140,594.107666 681.125671,592.936646 
	C679.540344,591.122253 678.288818,588.651917 676.296204,587.638184 
	C672.786316,585.852600 668.748840,585.140869 665.069153,583.643250 
	C659.963379,581.565125 657.189880,577.610962 657.185791,572.037781 
	C657.181763,566.406128 659.670837,562.134583 664.770630,559.550110 
	C673.481567,555.135681 685.841125,557.901184 691.431274,565.772949 
	C688.416443,567.003906 688.364868,572.507629 683.083191,570.601929 
z"/>
<path fill="#CA9797" opacity="1.000000" stroke="none" 
	d="
M620.013550,604.928528 
	C617.916199,603.999146 615.818909,603.069702 613.027771,601.832764 
	C613.027771,609.390076 613.027771,616.862915 613.027771,624.591187 
	C609.171875,624.591187 606.073792,624.591187 602.521973,624.591187 
	C602.521973,602.952393 602.521973,581.281128 602.521973,559.564087 
	C609.054382,557.459229 612.106995,558.267944 613.102905,561.684021 
	C617.473328,560.420715 621.821777,559.163757 626.566101,558.344482 
	C623.968384,562.487976 623.317505,565.672241 628.886536,567.494507 
	C628.967407,567.520996 628.967163,567.795837 628.568054,567.985229 
	C618.896606,567.784119 613.746582,571.283447 612.334473,578.781067 
	C611.111633,585.273743 613.350403,593.816956 622.991638,596.624268 
	C621.984619,599.631775 620.999084,602.280151 620.013550,604.928528 
z"/>
<path fill="#B96C6C" opacity="1.000000" stroke="none" 
	d="
M498.997101,603.971619 
	C486.325104,600.052063 480.114044,590.555847 477.500458,578.347351 
	C473.955780,561.789612 482.616974,545.701416 498.618256,539.370483 
	C499.145691,541.333069 499.195984,542.976074 499.527130,544.560425 
	C499.858917,546.147827 500.471100,547.676636 500.960358,549.231140 
	C486.259460,556.962646 483.051910,580.556030 499.037842,593.762024 
	C499.043549,597.637329 499.020325,600.804504 498.997101,603.971619 
z"/>
<path fill="#E3D2D2" opacity="1.000000" stroke="none" 
	d="
M761.449585,556.000916 
	C761.449402,572.619507 761.449402,588.738281 761.449402,605.121521 
	C757.703003,605.121521 754.459045,605.121521 751.058044,605.121521 
	C750.954407,603.725830 750.796021,602.581238 750.795227,601.436523 
	C750.780518,579.621887 750.784363,557.807190 750.784363,535.629395 
	C754.328125,535.629395 757.564392,535.629395 761.449829,535.629395 
	C761.449829,542.263733 761.449829,548.882446 761.449585,556.000916 
z"/>
<path fill="#C48585" opacity="1.000000" stroke="none" 
	d="
M557.766113,604.662537 
	C545.775696,600.745850 539.411438,586.661743 543.753845,573.653381 
	C548.041809,560.808167 560.004211,554.774719 572.717407,559.598267 
	C568.688721,561.932190 571.747070,565.345703 570.570435,567.935425 
	C559.221802,567.356384 553.562439,572.225586 553.694580,582.100159 
	C553.823547,591.740784 559.470032,596.470581 570.040283,595.807739 
	C570.526367,595.777222 571.020386,595.872620 571.789490,595.809509 
	C572.374756,595.468933 572.681213,595.228271 573.198975,594.885376 
	C573.410278,594.783203 573.868347,594.680298 573.997253,594.996216 
	C573.753418,598.895874 572.353088,601.388184 568.336060,602.070435 
	C565.010193,602.635254 561.792542,603.837952 558.526978,604.757996 
	C558.526978,604.757996 558.453735,604.797302 558.492004,604.578125 
	C558.275574,604.460144 558.020874,604.561340 557.766113,604.662537 
z"/>
<path fill="#D1A3A3" opacity="1.000000" stroke="none" 
	d="
M629.004822,567.954712 
	C628.967163,567.795837 628.967407,567.520996 628.886536,567.494507 
	C623.317505,565.672241 623.968384,562.487976 626.985779,558.434937 
	C628.077209,558.086548 629.144897,558.085510 630.668518,558.458496 
	C631.772583,558.822144 632.420715,558.811707 633.068787,558.801270 
	C645.443909,562.471924 652.267517,575.725952 648.682922,589.130005 
	C645.240051,602.004150 633.766113,608.645447 620.306335,605.156982 
	C620.999084,602.280151 621.984619,599.631775 623.416748,596.583862 
	C633.076294,595.947998 638.056274,591.302612 638.432373,582.829224 
	C638.752808,575.610962 635.308960,570.908569 629.004822,567.954712 
z"/>
<path fill="#CA9797" opacity="1.000000" stroke="none" 
	d="
M571.016846,567.906311 
	C571.747070,565.345703 568.688721,561.932190 572.978638,559.833313 
	C574.641357,560.416992 576.093811,561.293030 577.847412,562.669067 
	C578.572754,563.260498 578.996948,563.351990 579.421204,563.443420 
	C579.402100,563.005066 579.382996,562.566711 579.363892,562.128357 
	C580.258179,560.977539 580.987427,559.070496 582.080750,558.831970 
	C584.417725,558.322083 586.943237,558.675964 589.713074,558.675964 
	C589.713074,574.262756 589.713074,589.298157 589.713074,604.767029 
	C586.288696,604.767029 582.909912,604.767029 579.303589,604.767029 
	C579.105225,603.571716 578.894287,602.300598 578.568604,600.338196 
	C573.797607,605.252625 568.169006,606.896606 561.142883,605.654541 
	C560.162415,605.310974 559.824036,605.257324 559.485657,605.203613 
	C559.485657,605.203613 559.090027,605.239319 559.090027,605.239319 
	C559.090027,605.239319 558.722656,605.088806 558.624817,604.923401 
	C561.792542,603.837952 565.010193,602.635254 568.336060,602.070435 
	C572.353088,601.388184 573.753418,598.895874 574.145752,594.702820 
	C583.229614,585.459167 581.919800,574.565247 571.016846,567.906311 
z"/>
<path fill="#EEE1E1" opacity="1.000000" stroke="none" 
	d="
M786.899536,559.771240 
	C795.189941,554.686523 807.991089,558.897766 813.531982,568.679688 
	C816.493042,573.907288 817.329407,579.524414 815.811279,585.842590 
	C806.774841,585.842590 797.859497,585.842590 788.401611,585.406311 
	C787.245605,582.389343 786.632019,579.808594 786.479248,577.146240 
	C793.134644,577.064514 799.329224,577.064514 805.683289,577.064514 
	C805.571106,576.026733 805.629272,575.512024 805.453430,575.096191 
	C802.710144,568.606873 799.140259,567.085693 788.986938,567.661987 
	C788.275330,564.773987 787.587402,562.272583 786.899536,559.771240 
z"/>
<path fill="#AE494A" opacity="1.000000" stroke="none" 
	d="
M377.374329,567.741699 
	C376.336060,565.049438 375.661102,562.455566 374.994873,559.459229 
	C380.058380,559.144104 385.374573,557.620850 389.839569,561.392700 
	C393.672363,564.630493 396.243011,568.461365 396.243805,573.770874 
	C396.245117,582.411865 396.491302,591.052490 396.566345,599.693909 
	C396.619629,605.826904 396.550751,605.852844 390.443420,605.319336 
	C389.144989,605.205872 387.854370,605.003296 385.883270,604.757324 
	C385.883270,596.192139 385.943329,587.759583 385.864197,579.328369 
	C385.801300,572.627258 384.142334,570.394836 377.374329,567.741699 
z"/>
<path fill="#9D2727" opacity="1.000000" stroke="none" 
	d="
M300.929626,590.994507 
	C300.932495,581.177490 301.083832,571.856140 300.868408,562.543274 
	C300.778717,558.665344 302.677094,558.128906 305.790741,558.335266 
	C308.709381,558.528625 311.926086,557.638367 311.861816,562.532227 
	C311.691345,575.508484 311.696808,588.489746 311.857574,601.466187 
	C311.917633,606.315002 308.771851,605.548889 305.799194,605.672363 
	C302.760681,605.798584 300.559662,605.424255 300.882996,601.472473 
	C301.153412,598.166992 300.933075,594.821350 300.929626,590.994507 
z"/>
<path fill="#E3D2D2" opacity="1.000000" stroke="none" 
	d="
M786.507324,559.816772 
	C787.587402,562.272583 788.275330,564.773987 788.780396,567.929688 
	C785.200195,570.291077 782.365173,572.441284 781.952087,576.755188 
	C783.467712,576.931335 784.743103,577.079651 786.018494,577.227905 
	C786.632019,579.808594 787.245605,582.389343 787.943420,585.311523 
	C786.069641,585.813049 784.111572,585.973083 780.931274,586.232971 
	C782.795288,588.963501 784.277527,591.134766 785.682251,593.683838 
	C785.292114,594.330811 784.979492,594.599854 784.666870,594.868958 
	C784.849792,595.019531 785.032776,595.170105 785.215698,595.320679 
	C785.504211,594.844238 785.792664,594.367798 786.081177,593.891357 
	C787.235413,594.367676 788.389709,594.843933 789.693481,595.876587 
	C788.449951,600.279602 786.090271,599.605103 783.384155,597.197144 
	C782.452209,599.065613 781.736328,600.500793 781.020447,601.936035 
	C772.562195,596.814819 769.657471,588.973511 770.324158,579.554810 
	C770.948914,570.728271 775.750366,564.505371 783.221130,560.192017 
	C783.992126,559.746826 785.141357,559.956543 786.507324,559.816772 
z"/>
<path fill="#BF7777" opacity="1.000000" stroke="none" 
	d="
M70.979752,576.998718 
	C73.051483,574.965759 75.123215,572.932739 77.585411,571.138916 
	C79.090813,572.645691 80.205750,573.913391 81.261879,575.551086 
	C80.150688,578.564392 78.047684,581.279968 78.223526,583.838928 
	C79.094666,596.516663 75.667587,608.416626 72.834976,620.506409 
	C71.470726,626.329041 68.585556,630.773010 64.066780,634.176147 
	C62.943855,632.206543 61.963135,630.580566 61.126740,628.644897 
	C66.880409,622.814575 66.389755,615.010803 68.840477,608.305237 
	C70.274796,604.380737 70.077354,601.093262 67.029724,597.871948 
	C67.907112,595.957703 68.635223,594.396179 69.655869,592.995972 
	C70.103439,593.317139 70.258469,593.477051 70.517212,593.601379 
	C70.840416,593.414124 70.958397,593.201050 70.941406,592.465088 
	C70.956146,586.991089 71.004364,581.978577 71.025780,576.955444 
	C70.998978,576.944885 70.979744,576.998718 70.979752,576.998718 
z"/>
<path fill="#AC5354" opacity="1.000000" stroke="none" 
	d="
M31.679611,623.411011 
	C32.368221,620.003906 33.186077,616.616821 33.719898,613.185669 
	C35.038105,604.712646 37.503033,596.161987 37.125214,587.749573 
	C36.705555,578.405640 40.209202,572.272034 47.822182,567.159973 
	C49.430176,568.837646 50.370647,570.521912 51.144012,572.502075 
	C45.145252,576.988037 43.514900,582.679321 44.198334,589.666077 
	C45.405472,602.006592 40.235687,613.319824 37.768936,625.064697 
	C37.488804,626.398438 36.197769,627.519897 35.197132,628.381348 
	C33.905724,626.485657 32.792664,624.948303 31.679611,623.411011 
z"/>
<path fill="#B96C6C" opacity="1.000000" stroke="none" 
	d="
M51.311119,572.206177 
	C50.370647,570.521912 49.430176,568.837646 48.127068,567.046509 
	C50.865360,564.617981 53.654606,561.146606 57.129551,560.204529 
	C65.366318,557.971558 73.460213,564.776306 70.822922,576.628296 
	C70.979744,576.998718 70.998978,576.944885 70.668839,576.944336 
	C68.007286,579.581970 65.675880,582.220154 63.425411,584.766724 
	C65.587784,587.704773 67.475563,590.269714 69.363342,592.834656 
	C68.635223,594.396179 67.907112,595.957703 66.733986,597.708496 
	C63.056530,594.792114 59.861984,591.645630 56.579788,588.593323 
	C53.927612,586.126953 54.056850,583.827148 56.596527,581.377686 
	C58.746307,579.304260 61.303600,577.395386 62.682365,574.868958 
	C63.642353,573.109802 62.913319,570.429016 62.938797,568.159912 
	C60.547100,568.189331 58.002113,567.725220 55.812599,568.405396 
	C54.085220,568.941956 52.795319,570.886780 51.311119,572.206177 
M53.501198,567.465515 
	C53.501198,567.465515 53.520145,567.510071 53.501198,567.465515 
z"/>
<path fill="#BF7777" opacity="1.000000" stroke="none" 
	d="
M499.286194,604.192505 
	C499.020325,600.804504 499.043549,597.637329 499.081726,594.093140 
	C509.747162,596.473511 520.153931,597.572815 529.007874,588.946777 
	C531.609558,591.474304 533.945007,593.743225 536.243652,595.976379 
	C529.024780,605.609436 512.266113,609.359436 499.286194,604.192505 
z"/>
<path fill="#BF7777" opacity="1.000000" stroke="none" 
	d="
M501.367920,549.139771 
	C500.471100,547.676636 499.858917,546.147827 499.527130,544.560425 
	C499.195984,542.976074 499.145691,541.333069 498.983429,539.351074 
	C511.243225,533.678955 526.465271,536.738098 536.120911,546.931824 
	C533.620789,549.129578 531.096130,551.348877 528.344971,553.767212 
	C520.602112,547.021667 511.632507,545.464355 501.367920,549.139771 
z"/>
<path fill="#CA9797" opacity="1.000000" stroke="none" 
	d="
M91.042755,560.144470 
	C96.390541,558.974121 100.527489,560.921387 103.354042,565.391602 
	C106.539589,570.429626 105.221107,574.277649 96.643669,585.653625 
	C99.164772,587.440857 101.691193,589.231934 104.594872,591.338806 
	C103.662804,594.044250 102.353485,596.433838 100.745392,598.691895 
	C98.682190,596.816467 96.898621,595.091492 95.156540,593.325623 
	C86.121727,584.167175 85.980522,585.796204 95.147881,576.720520 
	C97.499588,574.392334 99.542671,571.737793 97.026855,568.502319 
	C94.686218,565.492249 91.778481,566.533386 89.116890,567.952026 
	C89.794128,565.134094 90.418442,562.639282 91.042755,560.144470 
z"/>
<path fill="#EEE1E1" opacity="1.000000" stroke="none" 
	d="
M147.236465,472.328033 
	C158.976883,483.295135 162.898560,494.481140 154.097504,510.744476 
	C152.224213,514.206116 149.555115,517.237000 146.810303,520.408813 
	C145.911011,517.899109 145.454056,515.447083 145.096649,512.657227 
	C151.036499,503.607910 155.041992,494.632080 148.891724,484.363831 
	C147.661896,482.310547 146.130463,480.437958 144.914658,478.106964 
	C145.806305,475.930603 146.521393,474.129303 147.236465,472.328033 
z"/>
<path fill="#EEE1E1" opacity="1.000000" stroke="none" 
	d="
M781.256775,602.210388 
	C781.736328,600.500793 782.452209,599.065613 783.384155,597.197144 
	C786.090271,599.605103 788.449951,600.279602 789.908936,596.104492 
	C796.193665,597.217163 801.677917,595.544495 806.767883,591.593811 
	C808.932678,593.700562 811.018555,595.730530 813.057800,597.715088 
	C806.791809,606.780579 792.036621,608.884827 781.256775,602.210388 
z"/>
<path fill="#EEE1E1" opacity="1.000000" stroke="none" 
	d="
M157.867096,579.700256 
	C162.718628,575.414185 169.195541,575.524719 173.718384,579.970886 
	C178.113693,584.291687 178.618210,591.597656 174.423462,596.097290 
	C171.977859,598.720703 168.902786,600.757324 165.412949,602.979614 
	C162.604599,602.182556 160.494232,601.463745 158.587708,600.456909 
	C161.620056,597.937683 164.400620,595.641907 167.291641,593.494812 
	C169.793442,591.636719 171.324066,589.326538 169.819214,586.355774 
	C168.238449,583.235291 165.399765,582.877136 161.916290,584.074951 
	C160.310791,582.559326 159.088943,581.129761 157.867096,579.700256 
z"/>
<path fill="#A23435" opacity="1.000000" stroke="none" 
	d="
M60.793732,517.300659 
	C50.132664,505.986877 46.900547,487.428619 60.548286,475.153198 
	C61.177399,478.025208 61.197342,480.752838 61.165031,483.832153 
	C57.481968,491.652435 57.497784,499.043274 61.503933,506.391174 
	C62.203548,507.674377 62.658043,509.091217 63.146641,510.843140 
	C62.309593,513.260193 61.551659,515.280396 60.793732,517.300659 
z"/>
<path fill="#B96C6C" opacity="1.000000" stroke="none" 
	d="
M60.982418,628.954651 
	C61.963135,630.580566 62.943855,632.206543 63.954842,634.473145 
	C60.292427,639.490601 56.599743,643.867493 52.369839,648.881104 
	C56.462521,649.086487 59.238579,649.225830 61.893959,649.578247 
	C61.479984,651.780518 61.186687,653.769714 60.893394,655.758789 
	C56.579418,655.819336 52.265438,655.879883 47.485371,655.489380 
	C45.945896,652.916992 44.872513,650.795654 43.926186,648.373169 
	C49.696297,641.699585 55.339359,635.327087 60.982418,628.954651 
z"/>
<path fill="#E0C5C6" opacity="1.000000" stroke="none" 
	d="
M131.996948,576.950867 
	C132.770767,576.948608 133.544601,576.946350 134.773254,577.417358 
	C140.008530,583.049133 146.296234,587.645325 141.854309,596.448975 
	C135.276077,601.917297 127.870125,602.701477 120.032372,601.374390 
	C119.685959,599.090820 119.365982,597.171936 119.501755,595.183350 
	C122.953621,595.097168 125.951660,595.005432 128.945389,595.082092 
	C133.084396,595.188049 135.723465,592.813721 136.568497,589.284851 
	C137.527588,585.279602 134.233490,583.944214 130.982452,582.695923 
	C131.312836,580.514465 131.654892,578.732666 131.996948,576.950867 
z"/>
<path fill="#A23435" opacity="1.000000" stroke="none" 
	d="
M25.023022,655.853882 
	C20.882692,655.901672 16.728861,656.160400 12.608458,655.896729 
	C10.878058,655.785950 8.201912,654.928955 7.790159,653.763245 
	C7.302157,652.381714 8.379115,649.963867 9.502052,648.585083 
	C13.260081,643.970703 17.341164,639.619507 21.777943,635.310425 
	C23.921597,636.358643 25.585846,637.263916 27.129436,638.484863 
	C24.421003,641.934509 21.833229,645.068542 18.858646,648.671021 
	C21.466400,648.977234 23.250319,649.186768 25.022972,649.859619 
	C25.015478,652.166687 25.019251,654.010254 25.023022,655.853882 
z"/>
<path fill="#D1A3A3" opacity="1.000000" stroke="none" 
	d="
M119.045998,595.252991 
	C119.365982,597.171936 119.685959,599.090820 119.569244,601.469788 
	C115.174736,601.932678 111.173225,602.286255 107.276299,601.800537 
	C105.108910,601.530518 103.115814,599.861755 101.044167,598.823425 
	C102.353485,596.433838 103.662804,594.044250 104.969254,591.280151 
	C108.076897,588.949463 111.187424,586.993347 114.666946,585.402344 
	C116.175865,587.246338 117.315788,588.725220 118.218132,590.462280 
	C116.188263,591.842651 114.395973,592.964966 111.562073,594.739441 
	C115.085327,594.981201 117.065659,595.117065 119.045998,595.252991 
z"/>
<path fill="#D1A3A3" opacity="1.000000" stroke="none" 
	d="
M111.156570,634.436768 
	C106.638763,639.822937 102.120956,645.209045 97.154610,650.345215 
	C94.710068,649.691956 92.714066,649.288696 90.857193,648.570435 
	C96.303947,642.119324 101.611572,635.983276 107.127670,630.043396 
	C107.854576,629.706177 108.373032,629.172791 109.079506,628.408081 
	C109.831490,628.016113 110.395462,627.855408 110.954597,628.084229 
	C111.018700,630.461365 111.087631,632.449097 111.156570,634.436768 
z"/>
<path fill="#E3D2D2" opacity="1.000000" stroke="none" 
	d="
M142.049500,596.172241 
	C146.296234,587.645325 140.008530,583.049133 135.124207,577.588562 
	C139.901199,578.565308 142.177582,582.242615 143.739960,587.251160 
	C148.318390,584.701416 152.723236,582.248352 157.497589,579.747803 
	C159.088943,581.129761 160.310791,582.559326 161.693527,584.336914 
	C155.252777,588.514099 148.651123,592.343140 142.049500,596.172241 
z"/>
<path fill="#E3D2D2" opacity="1.000000" stroke="none" 
	d="
M158.383881,600.744873 
	C160.494232,601.463745 162.604599,602.182556 165.094666,603.074829 
	C158.847855,608.030457 152.221359,612.812622 145.155121,617.396118 
	C144.073669,615.310791 143.431931,613.424133 143.011841,611.285278 
	C148.283615,607.603638 153.333755,604.174255 158.383881,600.744873 
z"/>
<path fill="#E3D2D2" opacity="1.000000" stroke="none" 
	d="
M169.195435,538.311401 
	C178.914642,542.839722 180.377792,552.292297 172.462769,559.249268 
	C171.481750,560.111633 170.660751,561.156067 169.326202,561.995850 
	C168.598251,559.640259 168.309677,557.405029 168.325775,554.927124 
	C170.483551,551.285767 171.749252,547.923584 168.005127,544.450684 
	C168.392639,542.122925 168.794037,540.217163 169.195435,538.311401 
z"/>
<path fill="#D5AFAF" opacity="1.000000" stroke="none" 
	d="
M111.526108,634.362122 
	C111.087631,632.449097 111.018700,630.461365 111.180130,627.847412 
	C116.547256,624.689209 121.684029,622.157227 127.056091,619.907593 
	C129.246567,621.155945 131.201752,622.121887 133.156952,623.087769 
	C126.069855,626.821045 118.982758,630.554260 111.526108,634.362122 
z"/>
<path fill="#9D2727" opacity="1.000000" stroke="none" 
	d="
M309.017029,537.817505 
	C313.172760,541.412231 313.781738,545.730652 310.866211,548.626282 
	C308.449097,551.026917 303.881653,550.900818 301.464142,548.366760 
	C298.895599,545.674377 299.022400,540.827759 302.247559,538.802185 
	C303.954285,537.730286 306.501801,537.997253 309.017029,537.817505 
z"/>
<path fill="#D5AFAF" opacity="1.000000" stroke="none" 
	d="
M135.155853,532.087646 
	C129.403259,536.314392 123.650642,540.541077 117.374527,544.920959 
	C116.532120,545.094910 116.291702,545.242676 116.129768,545.517517 
	C116.069244,545.685852 116.008728,545.854248 115.467400,545.952026 
	C114.782974,543.860535 114.579361,541.839661 114.602020,539.541504 
	C119.693916,535.772949 124.559525,532.281738 129.802765,528.859253 
	C131.838867,529.981201 133.497360,531.034424 135.155853,532.087646 
z"/>
<path fill="#AC5354" opacity="1.000000" stroke="none" 
	d="
M25.487915,655.903564 
	C25.019251,654.010254 25.015478,652.166687 25.430569,649.836548 
	C31.832664,649.124817 37.815899,648.899597 43.799129,648.674377 
	C44.872513,650.795654 45.945896,652.916992 47.031525,655.441162 
	C40.013447,655.880493 32.983128,655.916870 25.487915,655.903564 
z"/>
<path fill="#E3D2D2" opacity="1.000000" stroke="none" 
	d="
M135.469345,531.960938 
	C133.497360,531.034424 131.838867,529.981201 130.005585,528.578186 
	C134.886230,523.150635 139.941681,518.072815 144.997101,512.994995 
	C145.454056,515.447083 145.911011,517.899109 146.541641,520.610718 
	C143.071167,524.524841 139.427002,528.179565 135.469345,531.960938 
z"/>
<path fill="#BF7777" opacity="1.000000" stroke="none" 
	d="
M89.024261,469.354950 
	C93.677284,472.595398 98.330299,475.835846 103.000290,479.780182 
	C103.020515,482.608429 103.023750,484.732819 102.683182,486.860291 
	C97.301048,483.043335 92.262718,479.223236 87.556557,475.152588 
	C88.267235,473.053009 88.645752,471.203979 89.024261,469.354950 
z"/>
<path fill="#CA9797" opacity="1.000000" stroke="none" 
	d="
M90.718063,648.885437 
	C92.714066,649.288696 94.710068,649.691956 96.850677,650.438232 
	C96.995277,650.781189 96.889702,650.994446 96.447479,651.008789 
	C94.676521,652.593018 93.347786,654.162842 92.019051,655.732788 
	C86.670319,655.803040 81.321594,655.873291 75.504509,655.522766 
	C75.378036,653.192810 75.719917,651.283630 76.516205,649.309448 
	C80.983559,649.257507 84.996513,649.270630 89.125031,649.389282 
	C89.591354,649.579468 89.832718,649.450195 90.137894,649.000122 
	C90.311104,648.893250 90.718071,648.885437 90.718063,648.885437 
z"/>
<path fill="#D5AFAF" opacity="1.000000" stroke="none" 
	d="
M118.455727,590.204102 
	C117.315788,588.725220 116.175865,587.246338 115.019714,585.404236 
	C120.467964,582.264282 125.932442,579.487610 131.696930,576.830933 
	C131.654892,578.732666 131.312836,580.514465 130.709167,582.905762 
	C126.450294,585.744934 122.453018,587.974548 118.455727,590.204102 
z"/>
<path fill="#B96C6C" opacity="1.000000" stroke="none" 
	d="
M91.036736,543.900818 
	C86.737694,540.886353 82.438652,537.871826 78.173264,534.305359 
	C79.136177,532.169983 80.065437,530.586609 81.312759,529.124390 
	C85.429504,532.131470 89.228180,535.017273 93.026176,538.275024 
	C92.362579,540.398193 91.699654,542.149475 91.036736,543.900818 
z"/>
<path fill="#E0C5C6" opacity="1.000000" stroke="none" 
	d="
M133.532776,623.066772 
	C131.201752,622.121887 129.246567,621.155945 127.299561,619.671021 
	C132.468552,616.613831 137.629379,614.075684 142.790192,611.537476 
	C143.431931,613.424133 144.073669,615.310791 144.817230,617.480713 
	C141.248917,619.524597 137.578766,621.285217 133.532776,623.066772 
z"/>
<path fill="#AE494A" opacity="1.000000" stroke="none" 
	d="
M143.659607,562.170776 
	C141.842453,560.325195 140.025284,558.479675 138.383453,556.025085 
	C138.560440,551.194397 138.562088,546.972656 138.563736,542.750977 
	C139.804398,541.491821 141.045059,540.232727 142.800385,539.165527 
	C144.213120,541.062134 145.111206,542.766724 145.690414,544.703247 
	C141.299667,548.054749 142.257080,551.343872 145.083496,554.650574 
	C146.041061,555.770813 147.111847,556.794250 147.779755,557.952515 
	C146.172287,559.419067 144.915955,560.794922 143.659607,562.170776 
z"/>
<path fill="#CA9797" opacity="1.000000" stroke="none" 
	d="
M198.136749,531.660645 
	C197.471985,534.130554 196.807220,536.600403 195.619263,539.014771 
	C195.037552,537.695435 195.113937,536.407471 194.893936,535.172424 
	C194.346558,532.099548 193.664124,529.050781 193.040100,525.651917 
	C193.344299,524.225525 193.644333,523.139587 193.956207,521.628174 
	C193.646973,516.507263 193.325851,511.811798 193.004730,507.116333 
	C194.118195,507.920410 195.740509,508.489746 196.241699,509.576233 
	C197.366760,512.015198 197.934998,514.710938 198.528473,517.758423 
	C198.113388,518.552856 197.899780,518.891052 197.686188,519.229309 
	C198.356903,519.253784 199.027634,519.278259 199.698364,519.302795 
	C199.698364,519.302795 199.529968,519.234863 199.367264,519.681763 
	C199.114319,520.419006 199.024078,520.709351 198.926025,521.250366 
	C198.925064,521.667969 198.931885,521.834961 198.901886,522.325928 
	C198.854782,523.084290 198.844482,523.518677 198.491470,524.081665 
	C198.144760,526.693787 198.140762,529.177185 198.136749,531.660645 
z"/>
<path fill="#C48585" opacity="1.000000" stroke="none" 
	d="
M90.683434,560.130310 
	C90.418442,562.639282 89.794128,565.134094 88.996712,568.251343 
	C86.322632,570.976196 83.821648,573.078674 81.320679,575.181152 
	C80.205750,573.913391 79.090813,572.645691 77.897964,571.007812 
	C81.988083,567.130493 86.156097,563.623352 90.683434,560.130310 
z"/>
<path fill="#C48585" opacity="1.000000" stroke="none" 
	d="
M91.231583,544.171753 
	C91.699654,542.149475 92.362579,540.398193 93.356003,538.383911 
	C97.457687,540.403320 101.228867,542.685669 104.965332,545.263184 
	C104.639832,547.627014 104.349045,549.695557 104.058266,551.764160 
	C99.847664,549.323669 95.637054,546.883179 91.231583,544.171753 
z"/>
<path fill="#AE494A" opacity="1.000000" stroke="none" 
	d="
M60.922573,517.607056 
	C61.551659,515.280396 62.309593,513.260193 63.415245,511.064484 
	C66.855049,514.550964 69.947144,518.212952 72.860916,522.206848 
	C72.071251,524.485779 71.459892,526.432739 70.848541,528.379761 
	C67.582840,524.890930 64.317131,521.402161 60.922573,517.607056 
z"/>
<path fill="#AE494A" opacity="1.000000" stroke="none" 
	d="
M27.250099,638.169189 
	C25.585846,637.263916 23.921597,636.358643 22.067162,635.146484 
	C24.968096,631.173340 28.059219,627.507080 31.414974,623.625916 
	C32.792664,624.948303 33.905724,626.485657 35.061661,628.656860 
	C32.486393,632.250305 29.868248,635.209717 27.250099,638.169189 
z"/>
<path fill="#D1A3A3" opacity="1.000000" stroke="none" 
	d="
M112.364624,474.679138 
	C116.738632,472.349274 121.112633,470.019440 125.722862,468.282867 
	C125.675278,470.769348 125.391464,472.662598 124.874863,474.780396 
	C121.255783,477.001892 117.869492,478.998810 114.380264,480.508911 
	C113.639763,478.241089 113.002190,476.460114 112.364624,474.679138 
z"/>
<path fill="#B96C6C" opacity="1.000000" stroke="none" 
	d="
M193.944351,522.053589 
	C193.644333,523.139587 193.344299,524.225525 192.861755,526.002441 
	C191.829376,529.775208 190.979523,532.857178 190.129669,535.939087 
	C189.503799,534.481262 188.877945,533.023438 188.056595,530.844360 
	C187.572052,526.474548 187.283005,522.826111 186.993973,519.177612 
	C187.920685,516.997192 188.847382,514.816833 190.201721,512.416016 
	C190.892563,514.499939 190.927933,516.864380 191.514206,519.083374 
	C191.811569,520.208923 193.102570,521.071899 193.944351,522.053589 
z"/>
<path fill="#BF7777" opacity="1.000000" stroke="none" 
	d="
M76.061798,649.374512 
	C75.719917,651.283630 75.378036,653.192810 75.042404,655.471191 
	C70.599983,655.865479 66.151299,655.890503 61.298004,655.837158 
	C61.186687,653.769714 61.479984,651.780518 62.352478,649.500061 
	C67.308388,649.263977 71.685089,649.319275 76.061798,649.374512 
z"/>
<path fill="#BF7777" opacity="1.000000" stroke="none" 
	d="
M30.059792,519.627563 
	C28.689947,516.733215 27.320099,513.838867 25.966171,510.170471 
	C25.621784,505.884979 25.261473,502.373505 24.901161,498.862061 
	C25.764994,497.065155 26.628826,495.268280 27.954292,493.516357 
	C28.774029,496.491821 29.132132,499.422272 29.543606,502.789520 
	C30.677221,501.976044 31.314119,501.519012 32.100006,501.257751 
	C32.478966,501.696411 32.749893,501.878265 33.091324,502.368988 
	C32.785015,504.162415 32.449158,505.586029 31.838715,507.258118 
	C31.062681,511.546936 30.561235,515.587280 30.059792,519.627563 
z"/>
<path fill="#E3D2D2" opacity="1.000000" stroke="none" 
	d="
M147.062805,472.066956 
	C146.521393,474.129303 145.806305,475.930603 144.577698,477.990295 
	C141.377335,476.794495 138.690475,475.340302 136.158722,473.567383 
	C138.641815,467.684113 133.019684,468.878784 131.005951,467.005585 
	C137.022354,466.216675 142.148972,468.371948 147.062805,472.066956 
z"/>
<path fill="#CA9797" opacity="1.000000" stroke="none" 
	d="
M188.925308,477.973816 
	C187.966370,481.631378 187.202179,485.358002 185.942368,488.908813 
	C185.504242,490.143677 183.840012,490.943573 182.365112,491.384766 
	C181.996201,485.550720 181.997940,480.274078 182.274796,474.980316 
	C183.173782,474.594208 183.797653,474.225189 184.787781,473.932587 
	C186.411133,475.330597 187.668228,476.652191 188.925308,477.973816 
z"/>
<path fill="#CA9797" opacity="1.000000" stroke="none" 
	d="
M181.814804,440.712616 
	C183.261124,441.526489 185.195496,442.006866 186.035049,443.235413 
	C187.185928,444.919586 187.506088,447.171478 187.878113,449.817993 
	C186.950836,453.326019 186.327728,456.196106 185.437439,458.853882 
	C184.106689,457.577850 183.043152,456.514221 181.904541,455.085785 
	C181.824600,450.051544 181.819702,445.382080 181.814804,440.712616 
z"/>
<path fill="#CA9797" opacity="1.000000" stroke="none" 
	d="
M112.045181,474.745728 
	C113.002190,476.460114 113.639763,478.241089 114.228485,480.779358 
	C110.914284,484.258026 108.474014,488.708923 103.026993,486.857178 
	C103.023750,484.732819 103.020515,482.608429 103.043716,480.108582 
	C107.670395,481.109619 108.798370,476.378387 112.045181,474.745728 
z"/>
<path fill="#CA9797" opacity="1.000000" stroke="none" 
	d="
M104.307793,551.926575 
	C104.349045,549.695557 104.639832,547.627014 105.277893,545.130737 
	C108.542023,543.074951 111.458893,541.446899 114.375748,539.818848 
	C114.579361,541.839661 114.782974,543.860535 115.250877,546.110718 
	C111.862549,548.256348 108.209938,550.172668 104.307793,551.926575 
z"/>
<path fill="#D5AFAF" opacity="1.000000" stroke="none" 
	d="
M32.113300,507.009613 
	C32.449158,505.586029 32.785015,504.162415 33.350742,502.190002 
	C34.313541,499.778656 35.046467,497.916107 35.779388,496.053558 
	C37.066711,497.248322 38.354031,498.443085 39.567558,500.228455 
	C37.365005,503.043732 36.770187,505.155151 39.949089,506.988068 
	C38.347816,509.427673 36.746540,511.867279 34.789742,514.328003 
	C33.660576,511.902618 32.886936,509.456116 32.113300,507.009613 
z"/>
<path fill="#AC5354" opacity="1.000000" stroke="none" 
	d="
M68.033081,469.217682 
	C72.441772,468.447937 76.850456,467.678192 81.426544,467.334259 
	C80.743141,469.711731 79.892342,471.663361 78.586349,473.615234 
	C75.441116,474.068970 72.751060,474.522491 69.972748,474.595825 
	C69.267357,472.549622 68.650223,470.883667 68.033081,469.217682 
z"/>
<path fill="#BF7777" opacity="1.000000" stroke="none" 
	d="
M181.464874,440.775970 
	C181.819702,445.382080 181.824600,450.051544 181.832184,455.451477 
	C180.252335,458.192078 178.669800,460.202148 177.186172,461.881226 
	C176.734726,458.975189 176.184357,456.400208 175.634003,453.825195 
	C177.460983,449.496582 179.287949,445.167938 181.464874,440.775970 
z"/>
<path fill="#B96C6C" opacity="1.000000" stroke="none" 
	d="
M175.389587,454.009796 
	C176.184357,456.400208 176.734726,458.975189 177.138596,462.230804 
	C176.227386,464.119934 175.462677,465.328430 174.736588,466.475861 
	C176.427338,468.369232 177.952499,470.077179 179.183716,472.006165 
	C177.933990,474.148499 176.978226,476.069702 176.022461,477.990936 
	C175.415512,477.187561 174.808548,476.384186 174.095459,474.856384 
	C173.873962,471.328552 173.889740,468.511688 173.601974,465.726166 
	C173.369492,463.475708 172.771088,461.263062 172.334991,459.033630 
	C173.271713,457.420563 174.208435,455.807465 175.389587,454.009796 
z"/>
<path fill="#AC5354" opacity="1.000000" stroke="none" 
	d="
M70.993439,528.657898 
	C71.459892,526.432739 72.071251,524.485779 73.157204,522.367798 
	C76.086098,524.465576 78.540398,526.734375 80.994698,529.003235 
	C80.065437,530.586609 79.136177,532.169983 77.988953,534.038879 
	C75.560097,532.528259 73.349228,530.732117 70.993439,528.657898 
z"/>
<path fill="#BF7777" opacity="1.000000" stroke="none" 
	d="
M176.114456,478.352081 
	C176.978226,476.069702 177.933990,474.148499 179.412888,472.196838 
	C180.623917,473.110077 181.311798,474.053741 181.999680,474.997406 
	C181.997940,480.274078 181.996201,485.550720 181.999786,491.275513 
	C181.078278,490.245148 179.939560,488.855835 179.271393,487.268463 
	C178.097931,484.480621 177.212509,481.571533 176.114456,478.352081 
z"/>
<path fill="#D5AFAF" opacity="1.000000" stroke="none" 
	d="
M185.704620,459.066223 
	C186.327728,456.196106 186.950836,453.326019 187.832809,450.208344 
	C190.014175,453.066895 191.936676,456.173004 193.695999,459.765778 
	C192.714539,462.042969 191.896271,463.833496 190.790451,465.488708 
	C188.903488,463.257690 187.304062,461.161957 185.704620,459.066223 
z"/>
<path fill="#D5AFAF" opacity="1.000000" stroke="none" 
	d="
M168.933502,538.134644 
	C168.794037,540.217163 168.392639,542.122925 167.602661,544.407654 
	C165.228958,545.234375 163.243835,545.682129 160.922272,546.020386 
	C159.735001,544.308960 158.884171,542.707031 158.033340,541.105164 
	C161.236633,538.897400 164.431076,536.659729 168.933502,538.134644 
z"/>
<path fill="#AE494A" opacity="1.000000" stroke="none" 
	d="
M67.695999,469.259033 
	C68.650223,470.883667 69.267357,472.549622 69.783661,474.777344 
	C66.860985,478.052826 64.039131,480.766632 61.217285,483.480438 
	C61.197342,480.752838 61.177399,478.025208 60.849953,475.035339 
	C62.814606,472.948853 65.086761,471.124634 67.695999,469.259033 
z"/>
<path fill="#AC5354" opacity="1.000000" stroke="none" 
	d="
M172.032104,459.164978 
	C172.771088,461.263062 173.369492,463.475708 173.601974,465.726166 
	C173.889740,468.511688 173.873962,471.328552 173.985474,474.575897 
	C172.439606,473.855988 170.897568,472.692078 169.156403,470.903809 
	C168.971573,467.553741 168.985870,464.828064 169.000153,462.102356 
	C169.909836,461.167023 170.819519,460.231659 172.032104,459.164978 
z"/>
<path fill="#E0C5C6" opacity="1.000000" stroke="none" 
	d="
M130.632904,466.919128 
	C133.019684,468.878784 138.641815,467.684113 135.707062,473.639709 
	C131.769409,474.205750 128.438522,474.380798 125.107651,474.555847 
	C125.391464,472.662598 125.675278,470.769348 125.973297,468.464691 
	C127.411621,467.646393 128.835739,467.239502 130.632904,466.919128 
z"/>
<path fill="#B96C6C" opacity="1.000000" stroke="none" 
	d="
M79.041534,473.615021 
	C79.892342,471.663361 80.743141,469.711731 81.764679,467.493958 
	C84.095718,467.789246 86.256012,468.350647 88.720284,469.133484 
	C88.645752,471.203979 88.267235,473.053009 87.204521,475.089294 
	C84.027397,474.722717 81.534470,474.168854 79.041534,473.615021 
z"/>
<path fill="#AE494A" opacity="1.000000" stroke="none" 
	d="
M186.636032,519.231689 
	C187.283005,522.826111 187.572052,526.474548 187.931396,530.521973 
	C186.442123,529.762451 184.745712,528.745056 183.362488,527.404541 
	C182.048080,526.130676 181.061157,524.518860 179.930237,523.055664 
	C181.423248,522.001526 182.889740,520.906250 184.423798,519.915588 
	C184.955643,519.572144 185.655136,519.488220 186.636032,519.231689 
z"/>
<path fill="#D5AFAF" opacity="1.000000" stroke="none" 
	d="
M168.021118,555.169739 
	C168.309677,557.405029 168.598251,559.640259 169.037659,562.195068 
	C167.043991,564.075012 164.899521,565.635376 162.353912,566.906799 
	C161.916962,564.661194 161.881134,562.704529 161.993561,560.456909 
	C164.101578,558.500610 166.061340,556.835205 168.021118,555.169739 
z"/>
<path fill="#B96C6C" opacity="1.000000" stroke="none" 
	d="
M143.837006,562.457153 
	C144.915955,560.794922 146.172287,559.419067 148.068390,558.077759 
	C150.190155,559.181641 151.672180,560.250854 153.021530,561.690918 
	C152.218811,563.761475 151.548752,565.461121 150.878708,567.160767 
	C148.590591,565.688293 146.302490,564.215881 143.837006,562.457153 
z"/>
<path fill="#B96C6C" opacity="1.000000" stroke="none" 
	d="
M146.009293,544.471313 
	C145.111206,542.766724 144.213120,541.062134 143.149017,539.135193 
	C145.168686,538.621887 147.354385,538.330933 149.950684,538.528687 
	C150.955917,539.324951 151.550522,539.632385 152.145126,539.939819 
	C152.145126,539.939819 152.057571,539.944702 152.064117,540.176270 
	C152.071228,540.591187 152.071823,540.774536 152.042160,541.394165 
	C151.985138,543.285034 151.958389,544.739502 151.548370,546.130981 
	C149.446487,545.535706 147.727890,545.003540 146.009293,544.471313 
z"/>
<path fill="#A23435" opacity="1.000000" stroke="none" 
	d="
M168.619675,462.122131 
	C168.985870,464.828064 168.971573,467.553741 168.946808,470.659424 
	C168.461227,470.939423 167.836945,470.997589 167.535583,470.713348 
	C165.793503,469.070282 164.127655,467.346405 162.435989,465.649872 
	C164.370392,464.480560 166.304794,463.311249 168.619675,462.122131 
z"/>
<path fill="#D5AFAF" opacity="1.000000" stroke="none" 
	d="
M189.097260,477.695740 
	C187.668228,476.652191 186.411133,475.330597 184.948639,473.618530 
	C186.884064,471.159637 189.024887,469.091187 191.367279,467.299683 
	C192.348938,469.376526 193.129028,471.176453 193.909119,472.976349 
	C192.362488,474.456787 190.815857,475.937225 189.097260,477.695740 
z"/>
<path fill="#CA9797" opacity="1.000000" stroke="none" 
	d="
M31.838711,507.258118 
	C32.886936,509.456116 33.660576,511.902618 34.644905,514.634033 
	C34.954712,517.778442 34.475262,520.165222 30.415703,519.772705 
	C30.561235,515.587280 31.062681,511.546936 31.838711,507.258118 
z"/>
<path fill="#CA9797" opacity="1.000000" stroke="none" 
	d="
M35.785599,495.657898 
	C35.046467,497.916107 34.313541,499.778656 33.321190,501.820190 
	C32.749893,501.878265 32.478966,501.696411 32.057522,500.905334 
	C31.537561,497.955231 30.916212,495.546173 30.974936,493.153839 
	C31.020414,491.301086 31.916552,489.469208 32.434540,487.628052 
	C33.553627,490.172791 34.672714,492.717499 35.785599,495.657898 
z"/>
<path fill="#A23435" opacity="1.000000" stroke="none" 
	d="
M138.260559,542.899597 
	C138.562088,546.972656 138.560440,551.194397 138.314514,555.700562 
	C134.423706,551.288147 134.399780,548.545593 138.260559,542.899597 
z"/>
<path fill="#E0C5C6" opacity="1.000000" stroke="none" 
	d="
M194.206207,472.876526 
	C193.129028,471.176453 192.348938,469.376526 191.337585,466.950531 
	C191.096878,466.090942 191.087433,465.857483 191.078003,465.624023 
	C191.896271,463.833496 192.714539,462.042969 193.834381,460.086426 
	C194.752380,460.387238 195.368790,460.854034 195.942780,461.816376 
	C196.216339,465.065186 196.532364,467.818451 196.848389,470.571716 
	C196.848389,470.571716 196.853745,470.960205 196.582062,470.912201 
	C196.310364,470.864197 196.126770,470.832977 196.126770,470.832977 
	C196.126770,470.832977 196.400681,471.200958 196.400665,471.200958 
	C195.768204,471.726196 195.135742,472.251434 194.206207,472.876526 
z"/>
<path fill="#EEE1E1" opacity="1.000000" stroke="none" 
	d="
M197.151001,470.384460 
	C196.532364,467.818451 196.216339,465.065186 196.070358,462.078735 
	C196.714981,461.988220 197.269119,462.019653 197.650665,462.292480 
	C199.478806,463.599762 201.260269,464.972412 203.058304,466.321838 
	C201.190079,467.613647 199.321854,468.905457 197.151001,470.384460 
z"/>
<path fill="#E3D2D2" opacity="1.000000" stroke="none" 
	d="
M198.933838,520.999756 
	C199.024078,520.709351 199.114319,520.419006 199.442688,519.731812 
	C200.407730,519.637329 201.182114,519.859863 201.852264,520.257874 
	C203.558716,521.271423 205.218582,522.363342 206.897095,523.423950 
	C205.127899,525.080261 203.358719,526.736572 201.306183,528.196655 
	C200.293289,526.651245 199.563736,525.302185 198.834183,523.953064 
	C198.844482,523.518677 198.854782,523.084290 199.044235,522.228027 
	C199.126862,521.537292 199.030350,521.268555 198.933838,520.999756 
z"/>
<path fill="#C48585" opacity="1.000000" stroke="none" 
	d="
M190.108398,536.325806 
	C190.979523,532.857178 191.829376,529.775208 192.857574,526.342773 
	C193.664124,529.050781 194.346558,532.099548 194.893936,535.172424 
	C195.113937,536.407471 195.037552,537.695435 195.352005,539.234192 
	C192.235199,541.602173 190.830154,539.810852 190.108398,536.325806 
z"/>
<path fill="#C48585" opacity="1.000000" stroke="none" 
	d="
M193.956207,521.628174 
	C193.102570,521.071899 191.811569,520.208923 191.514206,519.083374 
	C190.927933,516.864380 190.892563,514.499939 190.362930,512.107178 
	C190.827225,510.381165 191.557953,508.743683 192.646698,507.111267 
	C193.325851,511.811798 193.646973,516.507263 193.956207,521.628174 
z"/>
<path fill="#CA9797" opacity="1.000000" stroke="none" 
	d="
M161.845306,560.747925 
	C161.881134,562.704529 161.916962,564.661194 162.008331,566.994629 
	C160.120941,568.246948 158.178024,569.122559 156.010071,569.510620 
	C155.868240,566.976257 155.951431,564.929504 156.372162,562.801880 
	C158.421570,562.063354 160.133438,561.405640 161.845306,560.747925 
z"/>
<path fill="#E3D2D2" opacity="1.000000" stroke="none" 
	d="
M40.328167,507.010559 
	C36.770187,505.155151 37.365005,503.043732 39.680157,500.536377 
	C41.515446,501.194946 43.164345,502.136230 44.813248,503.077515 
	C43.444580,504.396027 42.075912,505.714539 40.328167,507.010559 
z"/>
<path fill="#CA9797" opacity="1.000000" stroke="none" 
	d="
M152.072433,540.957825 
	C152.071823,540.774536 152.071228,540.591187 152.065613,540.132507 
	C153.791702,540.246521 155.522842,540.635986 157.643661,541.065308 
	C158.884171,542.707031 159.735001,544.308960 160.753784,546.314575 
	C158.848526,548.457031 157.104492,551.788635 154.080627,547.840271 
	C156.018051,544.503723 156.962646,541.767334 152.072433,540.957825 
z"/>
<path fill="#C48585" opacity="1.000000" stroke="none" 
	d="
M32.382236,487.611633 
	C31.916552,489.469208 31.020414,491.301086 30.974936,493.153839 
	C30.916212,495.546173 31.537561,497.955231 31.908531,500.709534 
	C31.314119,501.519012 30.677221,501.976044 29.543606,502.789520 
	C29.132132,499.422272 28.774029,496.491821 28.154491,493.249969 
	C28.682484,490.922638 29.471914,488.906647 30.804417,487.144714 
	C31.613251,487.605865 31.914097,487.696381 32.250031,487.670288 
	C32.250031,487.670288 32.329937,487.595215 32.382236,487.611633 
z"/>
<path fill="#A23435" opacity="1.000000" stroke="none" 
	d="
M22.652161,507.365479 
	C21.017200,505.849030 19.382242,504.332550 17.747290,502.816101 
	C19.544273,501.685516 21.341251,500.554901 23.338884,499.742432 
	C23.243746,502.495575 22.947954,504.930511 22.652161,507.365479 
z"/>
<path fill="#AC5354" opacity="1.000000" stroke="none" 
	d="
M22.817465,507.625122 
	C22.947954,504.930511 23.243746,502.495575 23.691498,499.727600 
	C24.000727,499.267944 24.157999,499.141357 24.608215,498.938416 
	C25.261473,502.373505 25.621784,505.884979 25.911837,509.792114 
	C24.888643,509.420105 23.935705,508.652466 22.817465,507.625122 
z"/>
<path fill="#C48585" opacity="1.000000" stroke="none" 
	d="
M156.034622,562.882751 
	C155.951431,564.929504 155.868240,566.976257 155.695770,569.386353 
	C154.181808,569.057129 152.757095,568.364624 151.105560,567.416382 
	C151.548752,565.461121 152.218811,563.761475 153.340256,561.782349 
	C154.539307,561.962830 155.286957,562.422791 156.034622,562.882751 
z"/>
<path fill="#E0C5C6" opacity="1.000000" stroke="none" 
	d="
M198.491470,524.081665 
	C199.563736,525.302185 200.293289,526.651245 200.986969,528.313232 
	C200.200241,529.502502 199.449371,530.378845 198.417633,531.457947 
	C198.140762,529.177185 198.144760,526.693787 198.491470,524.081665 
z"/>
<path fill="#D1A3A3" opacity="1.000000" stroke="none" 
	d="
M92.337753,655.725830 
	C93.347786,654.162842 94.676521,652.593018 96.335251,650.969360 
	C95.328979,652.516663 93.992722,654.117737 92.337753,655.725830 
z"/>
<path fill="#CA9797" opacity="1.000000" stroke="none" 
	d="
M632.871460,558.589966 
	C632.420715,558.811707 631.772583,558.822144 631.052002,558.583130 
	C631.544434,558.348694 632.109314,558.363708 632.871460,558.589966 
z"/>
<path fill="#C48585" opacity="1.000000" stroke="none" 
	d="
M579.025757,562.317139 
	C579.382996,562.566711 579.402100,563.005066 579.421204,563.443420 
	C578.996948,563.351990 578.572754,563.260498 578.055664,562.973877 
	C578.204407,562.687866 578.445984,562.596924 579.025757,562.317139 
z"/>
<path fill="#E0C5C6" opacity="1.000000" stroke="none" 
	d="
M199.669769,519.039185 
	C199.027634,519.278259 198.356903,519.253784 197.686188,519.229309 
	C197.899780,518.891052 198.113388,518.552856 198.604492,518.116516 
	C199.135025,518.270813 199.388092,518.523193 199.669769,519.039185 
z"/>
<path fill="#C48585" opacity="1.000000" stroke="none" 
	d="
M151.997223,539.622498 
	C151.550522,539.632385 150.955917,539.324951 150.199188,538.708313 
	C150.641174,538.701111 151.245255,539.003174 151.997223,539.622498 
z"/>
<path fill="#CA9797" opacity="1.000000" stroke="none" 
	d="
M116.322395,545.445007 
	C116.291702,545.242676 116.532120,545.094910 117.078232,545.097046 
	C117.072121,545.299011 116.808647,545.383240 116.322395,545.445007 
z"/>
<path fill="#C48585" opacity="1.000000" stroke="none" 
	d="
M559.676758,605.392822 
	C559.824036,605.257324 560.162415,605.310974 560.705444,605.520996 
	C560.562683,605.645508 560.215271,605.613770 559.676758,605.392822 
z"/>
<path fill="#CA9797" opacity="1.000000" stroke="none" 
	d="
M557.905762,604.753296 
	C558.020874,604.561340 558.275574,604.460144 558.451294,604.569885 
	C558.372253,604.780884 558.045349,604.843994 557.905762,604.753296 
z"/>
<path fill="#EEE1E1" opacity="1.000000" stroke="none" 
	d="
M196.432861,471.192139 
	C196.400681,471.200958 196.126770,470.832977 196.126770,470.832977 
	C196.126770,470.832977 196.310364,470.864197 196.407104,470.996643 
	C196.503845,471.129089 196.465027,471.183350 196.432861,471.192139 
z"/>
<path fill="#CA9797" opacity="1.000000" stroke="none" 
	d="
M32.172646,487.406128 
	C31.914097,487.696381 31.613251,487.605865 31.180544,487.225830 
	C31.374151,487.082611 31.734707,487.112274 32.172646,487.406128 
z"/>
<path fill="#1C1D1E" opacity="1.000000" stroke="none" 
	d="
M428.004333,577.020874 
	C423.893311,577.021790 420.270508,577.021790 416.593414,577.021790 
	C417.447479,571.196960 421.164001,568.091797 427.195587,567.814697 
	C434.499878,567.479187 438.077850,569.892578 439.801178,577.019897 
	C435.922729,577.019897 432.207611,577.019897 428.004333,577.020874 
z"/>
<path fill="#1C1D1E" opacity="1.000000" stroke="none" 
	d="
M628.568054,567.985229 
	C635.308960,570.908569 638.752808,575.610962 638.432373,582.829224 
	C638.056274,591.302612 633.076294,595.947998 623.438232,596.224792 
	C613.350403,593.816956 611.111633,585.273743 612.334473,578.781067 
	C613.746582,571.283447 618.896606,567.784119 628.568054,567.985229 
z"/>
<path fill="#1C1D1E" opacity="1.000000" stroke="none" 
	d="
M570.570435,567.935425 
	C581.919800,574.565247 583.229614,585.459167 574.016846,594.386841 
	C573.868347,594.680298 573.410278,594.783203 572.885864,594.895813 
	C572.077820,595.308716 571.794250,595.609070 571.510681,595.909424 
	C571.020386,595.872620 570.526367,595.777222 570.040283,595.807739 
	C559.470032,596.470581 553.823547,591.740784 553.694580,582.100159 
	C553.562439,572.225586 559.221802,567.356384 570.570435,567.935425 
z"/>
<path fill="#CA9797" opacity="1.000000" stroke="none" 
	d="
M571.789490,595.809509 
	C571.794250,595.609070 572.077820,595.308716 572.674561,594.998047 
	C572.681213,595.228271 572.374756,595.468933 571.789490,595.809509 
z"/>
<path fill="#1C1D1E" opacity="1.000000" stroke="none" 
	d="
M786.479248,577.146240 
	C784.743103,577.079651 783.467712,576.931335 781.952087,576.755188 
	C782.365173,572.441284 785.200195,570.291077 788.804077,568.316223 
	C799.140259,567.085693 802.710144,568.606873 805.453430,575.096191 
	C805.629272,575.512024 805.571106,576.026733 805.683289,577.064514 
	C799.329224,577.064514 793.134644,577.064514 786.479248,577.146240 
z"/>
<path fill="#EEE1E1" opacity="1.000000" stroke="none" 
	d="
M786.056885,593.940796 
	C785.792664,594.367798 785.504211,594.844238 785.215698,595.320679 
	C785.032776,595.170105 784.849792,595.019531 784.666870,594.868958 
	C784.979492,594.599854 785.292114,594.330811 785.859619,593.989136 
	C786.114563,593.916565 786.032654,593.990295 786.056885,593.940796 
z"/>
<path fill="#1C1D1E" opacity="1.000000" stroke="none" 
	d="
M76.516197,649.309448 
	C71.685089,649.319275 67.308388,649.263977 62.473156,649.286987 
	C59.238579,649.225830 56.462521,649.086487 52.369839,648.881104 
	C56.599743,643.867493 60.292427,639.490601 64.097046,634.816833 
	C68.585556,630.773010 71.470726,626.329041 72.834976,620.506409 
	C75.667587,608.416626 79.094666,596.516663 78.223526,583.838928 
	C78.047684,581.279968 80.150688,578.564392 81.261871,575.551086 
	C83.821648,573.078674 86.322632,570.976196 88.943787,568.574463 
	C91.778481,566.533386 94.686218,565.492249 97.026855,568.502319 
	C99.542671,571.737793 97.499588,574.392334 95.147881,576.720520 
	C85.980522,585.796204 86.121727,584.167175 95.156540,593.325623 
	C96.898621,595.091492 98.682190,596.816467 100.745392,598.691895 
	C103.115814,599.861755 105.108910,601.530518 107.276299,601.800537 
	C111.173225,602.286255 115.174736,601.932678 119.595673,601.834473 
	C127.870125,602.701477 135.276077,601.917297 141.854294,596.448975 
	C148.651123,592.343140 155.252777,588.514099 162.077209,584.423096 
	C165.399765,582.877136 168.238449,583.235291 169.819214,586.355774 
	C171.324066,589.326538 169.793442,591.636719 167.291641,593.494812 
	C164.400620,595.641907 161.620056,597.937683 158.587708,600.456909 
	C153.333755,604.174255 148.283615,607.603638 143.011841,611.285278 
	C137.629379,614.075684 132.468552,616.613831 127.064270,619.388611 
	C121.684029,622.157227 116.547256,624.689209 111.184952,627.458008 
	C110.395462,627.855408 109.831490,628.016113 108.781914,628.463318 
	C107.837265,629.115662 107.378227,629.481445 106.919197,629.847229 
	C101.611572,635.983276 96.303947,642.119324 90.857193,648.570435 
	C90.718071,648.885437 90.311104,648.893250 89.890305,648.994995 
	C89.469505,649.096802 89.009476,649.283752 89.009476,649.283752 
	C84.996513,649.270630 80.983559,649.257507 76.516197,649.309448 
z"/>
<path fill="#1C1D1E" opacity="1.000000" stroke="none" 
	d="
M27.129440,638.484863 
	C29.868248,635.209717 32.486393,632.250305 35.240005,629.015259 
	C36.197769,627.519897 37.488804,626.398438 37.768936,625.064697 
	C40.235687,613.319824 45.405472,602.006592 44.198334,589.666077 
	C43.514900,582.679321 45.145252,576.988037 51.144016,572.502075 
	C52.795319,570.886780 54.085220,568.941956 55.812599,568.405396 
	C58.002113,567.725220 60.547100,568.189331 62.938797,568.159912 
	C62.913319,570.429016 63.642353,573.109802 62.682365,574.868958 
	C61.303600,577.395386 58.746307,579.304260 56.596527,581.377686 
	C54.056850,583.827148 53.927612,586.126953 56.579788,588.593323 
	C59.861984,591.645630 63.056530,594.792114 66.584702,598.061218 
	C70.077354,601.093262 70.274796,604.380737 68.840477,608.305237 
	C66.389755,615.010803 66.880409,622.814575 61.126747,628.644897 
	C55.339359,635.327087 49.696297,641.699585 43.926186,648.373169 
	C37.815899,648.899597 31.832664,649.124817 25.441833,649.373169 
	C23.250319,649.186768 21.466400,648.977234 18.858646,648.671021 
	C21.833229,645.068542 24.421003,641.934509 27.129440,638.484863 
z"/>
<path fill="#191A1C" opacity="1.000000" stroke="none" 
	d="
M69.655869,592.995972 
	C67.475563,590.269714 65.587784,587.704773 63.425411,584.766724 
	C65.675880,582.220154 68.007286,579.581970 70.695633,576.954895 
	C71.004364,581.978577 70.956146,586.991089 70.794113,592.637329 
	C70.680290,593.270996 70.413506,593.636902 70.413506,593.636902 
	C70.258469,593.477051 70.103439,593.317139 69.655869,592.995972 
z"/>
<path fill="#B96C6C" opacity="1.000000" stroke="none" 
	d="
M70.517212,593.601379 
	C70.413506,593.636902 70.680290,593.270996 70.827583,593.098755 
	C70.958397,593.201050 70.840416,593.414124 70.517212,593.601379 
z"/>
<path fill="#AC5354" opacity="1.000000" stroke="none" 
	d="
M53.510674,567.487793 
	C53.520145,567.510071 53.501198,567.465515 53.510674,567.487793 
z"/>
<path fill="#1C1D1E" opacity="1.000000" stroke="none" 
	d="
M78.586357,473.615234 
	C81.534470,474.168854 84.027397,474.722717 86.872360,475.339874 
	C92.262718,479.223236 97.301048,483.043335 102.683182,486.860291 
	C108.474014,488.708923 110.914284,484.258026 114.331421,481.266174 
	C117.869492,478.998810 121.255783,477.001892 124.874863,474.780396 
	C128.438522,474.380798 131.769409,474.205750 135.551941,473.958435 
	C138.690475,475.340302 141.377335,476.794495 144.401138,478.365356 
	C146.130463,480.437958 147.661896,482.310547 148.891724,484.363831 
	C155.041992,494.632080 151.036499,503.607910 145.096664,512.657227 
	C139.941681,518.072815 134.886230,523.150635 129.627960,528.509399 
	C124.559525,532.281738 119.693916,535.772949 114.602028,539.541504 
	C111.458893,541.446899 108.542023,543.074951 105.312607,544.835510 
	C101.228867,542.685669 97.457687,540.403320 93.356689,538.012085 
	C89.228180,535.017273 85.429504,532.131470 81.312759,529.124390 
	C78.540398,526.734375 76.086098,524.465576 73.335510,522.035889 
	C69.947144,518.212952 66.855049,514.550964 63.494362,510.667664 
	C62.658043,509.091217 62.203548,507.674377 61.503933,506.391174 
	C57.497784,499.043274 57.481968,491.652435 61.165024,483.832153 
	C64.039131,480.766632 66.860985,478.052826 69.871918,475.157532 
	C72.751060,474.522491 75.441116,474.068970 78.586357,473.615234 
M137.624435,514.172729 
	C138.815475,512.676697 140.006531,511.180664 141.749390,509.203064 
	C145.537384,503.840240 148.659210,498.203003 147.061646,491.329132 
	C146.295288,488.031738 145.360916,484.481506 140.232559,484.005371 
	C135.822189,486.692200 138.662430,489.186279 140.496033,492.435089 
	C140.355637,494.621918 140.215240,496.808777 139.556915,499.430237 
	C138.683884,501.288086 137.810852,503.145966 136.361465,505.312500 
	C135.079102,506.977692 133.461777,508.494751 132.636154,510.361908 
	C132.115326,511.539703 132.305298,513.624329 133.074982,514.574036 
	C133.596817,515.217957 135.678650,514.597534 137.624435,514.172729 
M123.531403,517.949158 
	C122.470673,518.978027 120.787086,519.865356 120.512787,521.072876 
	C120.196564,522.464905 121.124496,524.139648 121.512138,525.691589 
	C123.448158,525.056091 125.659485,524.795715 127.220695,523.649658 
	C128.215393,522.919434 129.049988,520.318115 128.519272,519.554321 
	C127.742897,518.436890 125.677658,518.215027 123.531403,517.949158 
z"/>
<path fill="#1C1D1E" opacity="1.000000" stroke="none" 
	d="
M118.218147,590.462280 
	C122.453018,587.974548 126.450294,585.744934 130.720840,583.305481 
	C134.233490,583.944214 137.527588,585.279602 136.568497,589.284851 
	C135.723465,592.813721 133.084396,595.188049 128.945389,595.082092 
	C125.951660,595.005432 122.953621,595.097168 119.501755,595.183350 
	C117.065659,595.117065 115.085327,594.981201 111.562073,594.739441 
	C114.395973,592.964966 116.188263,591.842651 118.218147,590.462280 
z"/>
<path fill="#D5AFAF" opacity="1.000000" stroke="none" 
	d="
M107.127655,630.043396 
	C107.378227,629.481445 107.837265,629.115662 108.593895,628.694580 
	C108.373032,629.172791 107.854576,629.706177 107.127655,630.043396 
z"/>
<path fill="#1C1D1E" opacity="1.000000" stroke="none" 
	d="
M156.372147,562.801880 
	C155.286957,562.422791 154.539307,561.962830 153.472916,561.411438 
	C151.672180,560.250854 150.190155,559.181641 148.419525,557.987183 
	C147.111847,556.794250 146.041061,555.770813 145.083496,554.650574 
	C142.257080,551.343872 141.299667,548.054749 145.690414,544.703247 
	C147.727890,545.003540 149.446487,545.535706 151.656158,546.400269 
	C152.739166,547.210022 153.331100,547.687256 153.923050,548.164551 
	C157.104492,551.788635 158.848526,548.457031 161.090225,546.424072 
	C163.243835,545.682129 165.228958,545.234375 167.616547,544.829712 
	C171.749252,547.923584 170.483551,551.285767 168.325775,554.927124 
	C166.061340,556.835205 164.101578,558.500610 161.993561,560.456970 
	C160.133438,561.405640 158.421570,562.063354 156.372147,562.801880 
z"/>
<path fill="#B96C6C" opacity="1.000000" stroke="none" 
	d="
M89.125031,649.389282 
	C89.009476,649.283752 89.469505,649.096802 89.717094,649.101929 
	C89.832718,649.450195 89.591354,649.579468 89.125031,649.389282 
z"/>
<path fill="#E0C5C6" opacity="1.000000" stroke="none" 
	d="
M198.926025,521.250366 
	C199.030350,521.268555 199.126862,521.537292 199.081024,521.904053 
	C198.931885,521.834961 198.925064,521.667969 198.926025,521.250366 
z"/>
<path fill="#1C1D1E" opacity="1.000000" stroke="none" 
	d="
M190.790466,465.488708 
	C191.087433,465.857483 191.096878,466.090942 191.136017,466.673584 
	C189.024887,469.091187 186.884064,471.159637 184.582382,473.542114 
	C183.797653,474.225189 183.173782,474.594208 182.274796,474.980316 
	C181.311798,474.053741 180.623917,473.110077 179.706848,471.975769 
	C177.952499,470.077179 176.427338,468.369232 174.736588,466.475861 
	C175.462677,465.328430 176.227386,464.119934 177.039688,462.561829 
	C178.669800,460.202148 180.252335,458.192078 181.907242,455.816284 
	C183.043152,456.514221 184.106689,457.577850 185.437439,458.853882 
	C187.304062,461.161957 188.903488,463.257690 190.790466,465.488708 
z"/>
<path fill="#C48585" opacity="1.000000" stroke="none" 
	d="
M154.080627,547.840271 
	C153.331100,547.687256 152.739166,547.210022 152.039444,546.463379 
	C151.958389,544.739502 151.985138,543.285034 152.042160,541.394165 
	C156.962646,541.767334 156.018051,544.503723 154.080627,547.840271 
z"/>
<path fill="#D5AFAF" opacity="1.000000" stroke="none" 
	d="
M140.074844,498.995605 
	C140.215240,496.808777 140.355637,494.621918 140.594452,491.595093 
	C140.781906,488.520447 140.870941,486.285767 140.959961,484.051086 
	C145.360916,484.481506 146.295288,488.031738 147.061646,491.329132 
	C148.659210,498.203003 145.537384,503.840240 141.463135,509.004333 
	C140.809525,505.535614 140.442184,502.265594 140.074844,498.995605 
z"/>
<path fill="#C48585" opacity="1.000000" stroke="none" 
	d="
M123.846565,517.780334 
	C125.677658,518.215027 127.742897,518.436890 128.519272,519.554321 
	C129.049988,520.318115 128.215393,522.919434 127.220695,523.649658 
	C125.659485,524.795715 123.448158,525.056091 121.512138,525.691589 
	C121.124496,524.139648 120.196564,522.464905 120.512787,521.072876 
	C120.787086,519.865356 122.470673,518.978027 123.846565,517.780334 
z"/>
<path fill="#C48585" opacity="1.000000" stroke="none" 
	d="
M139.815887,499.212921 
	C140.442184,502.265594 140.809525,505.535614 141.187225,509.245117 
	C140.006531,511.180664 138.815475,512.676697 137.326172,513.908691 
	C136.997894,510.764343 136.967850,507.884064 136.937805,505.003815 
	C137.810852,503.145966 138.683884,501.288086 139.815887,499.212921 
z"/>
<path fill="#AC5354" opacity="1.000000" stroke="none" 
	d="
M136.649628,505.158142 
	C136.967850,507.884064 136.997894,510.764343 137.045380,514.093628 
	C135.678650,514.597534 133.596817,515.217957 133.074982,514.574036 
	C132.305298,513.624329 132.115326,511.539703 132.636154,510.361908 
	C133.461777,508.494751 135.079102,506.977692 136.649628,505.158142 
z"/>
<path fill="#C48585" opacity="1.000000" stroke="none" 
	d="
M140.596252,484.028229 
	C140.870941,486.285767 140.781906,488.520447 140.565094,491.231934 
	C138.662430,489.186279 135.822189,486.692200 140.596252,484.028229 
z"/>
</svg>