<svg version="1.1" id="Layer_1" xmlns="http://www.w3.org/2000/svg" xmlns:xlink="http://www.w3.org/1999/xlink" x="0px" y="0px"
	 width="100%" viewBox="0 0 832 228" enable-background="new 0 0 832 228" xml:space="preserve">
<path fill="#212020" opacity="1.000000" stroke="none" 
	d="
M566.000000,229.000000 
	C377.377686,229.000000 189.255356,229.000000 1.066520,229.000000 
	C1.066520,153.062302 1.066520,77.124542 1.066520,1.093387 
	C278.333313,1.093387 555.666626,1.093387 832.968384,1.093387 
	C832.968384,77.078026 832.968384,153.039017 832.968384,229.000000 
	C744.124451,229.000000 655.312256,229.000000 566.000000,229.000000 
M153.026718,132.105484 
	C154.043839,132.690002 155.060944,133.274506 156.532089,134.305923 
	C158.402206,135.130890 160.272339,135.955841 162.919235,136.893692 
	C164.272202,136.198227 165.625168,135.502777 167.663620,134.702927 
	C171.735718,133.137772 174.280685,130.061630 176.804398,126.114983 
	C184.502777,123.002914 185.664246,113.982628 178.642426,107.736618 
	C177.089310,106.847122 175.536179,105.957634 173.408905,104.782196 
	C171.140686,105.296539 168.872482,105.810883 165.912872,106.375648 
	C164.941513,106.991211 163.970154,107.606781 162.288254,108.034073 
	C160.534317,107.247231 158.780365,106.460388 156.425461,105.200172 
	C154.611862,105.159317 152.798264,105.118454 150.276016,105.022163 
	C148.467728,106.326691 146.659439,107.631210 144.286560,109.332413 
	C140.455780,114.692383 140.395737,117.716454 144.194412,123.648132 
	C145.733749,125.250008 147.273071,126.851891 149.161057,128.971848 
	C150.343597,129.851196 151.526123,130.730545 153.026718,132.105484 
M44.619518,66.182655 
	C44.424393,66.115097 44.229263,66.047546 43.703007,65.332855 
	C42.836067,63.567863 41.906216,61.830318 41.120583,60.029846 
	C40.392975,58.362343 39.819618,56.627533 38.842064,54.239288 
	C37.905308,54.184509 36.968548,54.129726 35.325546,54.239933 
	C34.187897,57.784378 33.050243,61.328823 31.268715,65.107452 
	C23.438129,69.399399 23.366730,69.999626 29.987530,76.131981 
	C30.831423,76.913620 31.705181,77.663017 32.756126,79.172264 
	C34.620296,81.641136 32.148556,87.138184 38.672100,86.725273 
	C40.492649,83.172249 42.313198,79.619232 44.686749,75.828003 
	C45.098839,75.401192 45.510925,74.974380 46.585812,74.403130 
	C47.991554,72.902344 49.397293,71.401558 50.803040,69.900772 
	C48.880180,68.814720 46.957325,67.728661 44.619518,66.182655 
M206.627594,86.705322 
	C206.627594,86.705322 206.482925,86.636658 206.147873,86.035583 
	C205.041153,83.709053 203.934433,81.382523 202.978760,78.290771 
	C202.623367,74.528984 201.292389,72.481628 196.704819,75.516426 
	C196.134476,78.006981 195.564117,80.497536 194.620682,83.485771 
	C193.727356,84.615135 192.834030,85.744499 191.127014,86.886093 
	C189.738113,87.855736 187.462097,88.589577 187.129700,89.840057 
	C186.201523,93.331757 188.962372,94.549553 192.143417,95.899849 
	C193.330353,97.441483 194.517288,98.983124 195.672546,101.030647 
	C195.781586,101.347771 195.890610,101.664902 195.803284,102.148026 
	C195.747025,102.458733 195.863754,102.640343 196.141998,103.436234 
	C197.289856,104.753372 198.437714,106.070511 199.585571,107.387657 
	C200.736557,106.063545 202.188049,104.891174 202.954727,103.372993 
	C203.734375,101.829147 203.839172,99.944519 204.816788,97.951164 
	C205.697556,97.060844 206.578308,96.170525 207.954834,94.790245 
	C208.506302,94.528046 209.198166,94.395615 209.582901,93.979309 
	C210.737610,92.729942 211.772415,91.369774 212.854004,90.052834 
	C211.482010,89.322372 210.126511,88.558037 208.729919,87.878098 
	C208.170822,87.605896 207.521255,87.519554 206.950958,87.021233 
	C206.950958,87.021233 206.662613,86.861588 206.627594,86.705322 
M202.402771,37.749405 
	C202.580948,37.774979 202.759140,37.800556 203.619095,37.714928 
	C205.425217,36.070099 207.231339,34.425274 209.037445,32.780445 
	C207.250229,31.688753 205.463013,30.597061 203.217529,29.052164 
	C201.877960,28.000668 200.538406,26.949171 198.999329,25.243048 
	C197.678040,23.491812 196.356750,21.740576 195.161209,19.198305 
	C194.173035,16.229240 193.301376,13.214778 192.166702,10.302795 
	C190.801102,6.798172 188.759598,5.924645 185.750031,9.318622 
	C185.556366,9.531436 185.567062,9.733447 185.447708,10.584071 
	C185.359863,11.066889 185.272034,11.549706 184.758270,12.593493 
	C182.976425,16.672159 181.194595,20.750828 178.864990,25.089304 
	C177.575363,26.410868 176.285751,27.732431 174.209045,29.094376 
	C172.451370,30.257357 170.693710,31.420338 168.936035,32.583321 
	C170.185242,34.076096 171.374023,35.627060 172.720978,37.025719 
	C173.118454,37.438465 173.962799,37.420898 174.968597,38.096771 
	C176.283173,39.117275 177.597748,40.137775 179.174484,41.741383 
	C180.361847,42.962479 181.549210,44.183575 182.917236,46.121227 
	C184.262024,50.094711 185.606812,54.068195 187.453064,58.582443 
	C190.400803,59.601608 191.614838,58.187866 192.105011,55.441742 
	C192.612320,52.599655 193.320465,49.793411 194.162918,46.318966 
	C195.821747,44.241390 197.480560,42.163818 199.640060,39.973251 
	C200.137039,39.592098 200.634018,39.210945 201.936371,38.593121 
	C202.112946,38.133110 202.289505,37.673100 202.402771,37.749405 
M136.197372,33.809849 
	C133.759216,34.437511 131.321075,35.065178 128.134506,35.721436 
	C125.273201,37.443432 122.411896,39.165428 118.919823,41.037624 
	C117.075470,42.617100 115.231125,44.196575 112.810272,46.131191 
	C109.087387,49.072361 108.396057,44.341305 105.867554,42.962215 
	C103.726288,41.554684 101.585022,40.147152 98.983139,38.178799 
	C95.656906,36.910126 92.330673,35.641453 88.279984,34.098392 
	C84.848015,34.364258 81.416046,34.630123 77.261589,34.884869 
	C75.451515,35.781258 73.641449,36.677647 71.142555,37.750294 
	C68.991928,39.776020 66.841301,41.801743 64.165848,44.232536 
	C56.725365,51.296726 54.861801,67.075531 61.572559,75.835411 
	C62.312119,77.198654 63.051682,78.561890 63.882046,80.532234 
	C64.257370,81.002716 64.632690,81.473190 65.133339,82.593704 
	C66.409210,84.068993 67.685081,85.544281 69.202972,87.638000 
	C72.452591,90.794426 75.702209,93.950859 79.223900,97.700317 
	C83.157341,100.765091 87.090775,103.829872 91.414993,107.441284 
	C94.531219,109.422066 97.647453,111.402840 101.157547,113.900475 
	C102.789108,114.929245 104.304131,116.307320 106.081123,116.900200 
	C108.410057,117.677238 110.945724,117.834656 113.954117,117.877602 
	C115.494637,117.010155 117.035156,116.142715 118.719444,115.156952 
	C118.719444,115.156952 118.732933,114.971245 118.769829,114.993134 
	C118.769829,114.993134 118.794128,115.030006 119.417564,114.862595 
	C119.951469,114.504440 120.485367,114.146278 121.493347,113.737175 
	C121.805191,113.604393 122.018471,113.378525 122.807487,112.911179 
	C125.980125,110.662453 129.152756,108.413734 132.933609,105.953110 
	C134.691940,104.495750 136.450287,103.038391 138.872208,101.295792 
	C142.623230,97.734818 146.374237,94.173836 150.763657,90.266869 
	C153.367889,86.835213 155.972137,83.403557 158.979813,79.388489 
	C160.536697,76.105042 162.537186,72.954308 163.566757,69.513084 
	C166.578018,59.448292 164.055573,50.589748 156.736801,42.365089 
	C152.488403,39.863167 148.239990,37.361240 143.306305,34.724293 
	C141.198380,34.469040 139.090439,34.213787 136.197372,33.809849 
M54.308422,133.077667 
	C52.153088,135.364471 49.997749,137.651276 47.239456,140.264053 
	C44.008072,142.463120 43.099693,145.622559 43.388241,149.339615 
	C44.243000,160.350586 42.582073,171.050644 39.460571,181.591949 
	C38.575920,184.579422 38.100315,187.688019 36.909473,191.056366 
	C33.594154,194.996460 30.278837,198.936554 26.389046,203.227737 
	C22.600592,207.578873 18.719990,211.855286 15.088395,216.333633 
	C14.179330,217.454666 13.258365,219.737274 13.786928,220.576385 
	C14.565639,221.812607 16.601490,222.783386 18.169643,222.892395 
	C22.106018,223.166016 26.080406,222.892776 30.958986,222.931976 
	C35.308815,222.898880 39.658642,222.865768 44.918232,222.945221 
	C48.280918,222.915695 51.643600,222.886169 55.909790,222.970032 
	C58.948948,222.930527 61.988102,222.891006 65.945473,222.953720 
	C69.969978,222.918259 73.994476,222.882782 78.926598,222.962402 
	C82.287300,222.925140 85.648003,222.887878 89.907219,222.973907 
	C93.657310,222.144989 98.473320,225.328049 101.452354,219.505814 
	C106.423904,213.723679 111.395454,207.941559 116.992836,201.905396 
	C120.960564,199.839279 124.928299,197.773178 129.551727,195.495392 
	C132.075974,194.178665 134.600204,192.861938 137.870499,191.352737 
	C141.917068,189.253098 145.963623,187.153458 150.739044,184.971802 
	C156.226578,181.175888 161.714127,177.379959 167.861588,173.319901 
	C171.523056,170.461060 175.287216,167.722824 178.821381,164.714432 
	C183.832550,160.448792 184.683777,153.670044 181.068787,148.634796 
	C177.189804,143.231873 171.011276,142.144516 164.202454,145.925491 
	C159.475662,148.729706 154.748886,151.533920 149.550888,153.763046 
	C146.630356,145.171204 142.209579,142.565125 133.020355,144.569641 
	C128.352005,147.396667 123.683647,150.223694 118.331245,153.168823 
	C115.568489,154.920547 112.805733,156.672287 109.332504,158.218964 
	C107.171745,156.277390 105.010979,154.335815 102.544121,152.119202 
	C108.750244,146.044037 114.381470,140.134109 108.677322,131.440521 
	C105.735809,126.957420 100.815697,125.854927 94.305145,127.951782 
	C92.397034,129.397217 90.488922,130.842651 87.816223,132.238739 
	C86.528397,133.789383 85.240570,135.340027 83.715752,137.369232 
	C83.412964,137.807449 83.110184,138.245651 82.257050,138.894852 
	C81.785828,139.240997 81.314613,139.587143 80.127884,139.953125 
	C79.173782,139.953735 78.219673,139.954346 77.164566,139.128708 
	C76.553757,130.699493 73.461182,127.854576 63.269203,126.993301 
	C60.489727,128.936172 57.710251,130.879044 54.308422,133.077667 
M679.546814,134.328217 
	C680.369690,134.255692 681.192505,134.183167 682.717285,134.472580 
	C685.512512,135.787109 688.307800,137.101639 691.109131,138.419052 
	C693.066956,136.635269 695.242188,134.653366 697.637207,132.471161 
	C691.167725,124.402077 682.960327,123.705139 673.325562,125.444054 
	C670.247131,128.207275 665.939697,130.397064 664.330566,133.845856 
	C660.213074,142.670578 665.691956,150.172195 677.721680,152.903519 
	C679.858093,153.713837 682.231384,154.182388 684.053955,155.445526 
	C685.444580,156.409317 687.290100,158.880981 686.892822,159.795013 
	C686.140991,161.524933 684.117249,163.149475 682.260376,163.826965 
	C680.369080,164.517044 678.042725,164.014694 675.378357,163.690781 
	C673.912964,162.879471 672.447571,162.068161 670.702332,160.947876 
	C670.702332,160.947876 670.291992,160.874527 669.985596,160.292480 
	C663.887024,155.691467 664.347717,163.726959 660.092285,164.147400 
	C664.802185,169.239136 669.310181,171.993973 675.739929,172.890717 
	C676.503723,172.896637 677.267456,172.902542 678.384338,173.127167 
	C678.915588,173.067444 679.446838,173.007721 680.812561,173.120712 
	C683.540894,172.599167 686.399597,172.431259 688.970581,171.483063 
	C694.468994,169.455215 697.258606,165.103775 697.688721,159.376358 
	C698.078125,154.189560 696.100403,149.844818 691.487122,147.342529 
	C688.570251,145.760361 685.193359,145.026382 681.438416,143.527893 
	C680.220215,143.098709 678.844788,142.896362 677.821045,142.186615 
	C676.325500,141.149826 674.183533,139.866287 674.000732,138.467834 
	C673.838684,137.227585 675.972656,135.687210 677.730713,134.382248 
	C678.145020,134.279633 678.559265,134.177002 679.546814,134.328217 
M434.341644,163.163177 
	C433.892303,163.199051 433.442993,163.234940 432.345581,163.089767 
	C431.899170,163.057999 431.452759,163.026215 430.491058,162.557220 
	C426.453247,160.824081 423.176697,158.410522 422.041870,152.688965 
	C427.674530,152.688965 432.839691,152.688965 438.931061,152.837570 
	C443.398346,152.861801 447.874725,152.719376 452.329987,152.963013 
	C455.894012,153.157883 456.871979,151.531845 456.992188,148.274796 
	C457.586639,132.164749 443.853729,121.556847 427.251953,125.976128 
	C416.833221,129.262695 410.157196,138.599503 410.376556,149.577484 
	C410.584320,159.977081 417.536255,169.189835 427.752777,172.082764 
	C438.183899,174.857010 448.319122,172.070190 453.293365,165.060013 
	C448.570709,158.711014 448.595673,158.816208 442.212982,161.520996 
	C439.962708,162.474625 437.416687,162.730484 434.341644,163.163177 
M790.776184,159.296677 
	C789.637329,157.435562 788.498474,155.574448 787.038818,153.189056 
	C790.426025,152.967209 792.725586,152.816605 795.943115,152.848389 
	C803.413635,152.867264 810.887512,153.005661 818.351562,152.794708 
	C819.693420,152.756790 821.852783,151.529083 822.174438,150.425201 
	C824.165588,143.591888 819.997559,133.558319 813.625732,128.916870 
	C806.813660,123.954758 796.323730,123.395149 789.103638,127.699875 
	C780.775757,131.670334 776.797852,138.608444 776.296875,147.492950 
	C775.786194,156.549561 778.955688,164.053436 787.462708,169.513016 
	C799.362244,175.762222 812.445557,173.915192 819.070679,164.788132 
	C816.977478,162.841812 814.841553,160.855789 812.607727,158.778763 
	C805.747375,163.894974 798.576538,164.998596 790.776184,159.296677 
M384.261902,124.979668 
	C383.504639,125.045822 382.747406,125.111969 381.319061,125.139091 
	C380.887604,125.249680 380.456146,125.360268 379.326508,125.402512 
	C375.720856,127.257645 372.115204,129.112778 368.139832,131.158127 
	C363.686432,126.250626 357.898163,124.097878 350.266083,125.111542 
	C347.365143,126.201149 344.464203,127.290756 341.371155,128.452515 
	C339.209991,124.399162 335.141663,125.558228 331.858124,126.311592 
	C330.770081,126.561226 329.979492,130.371674 329.944550,132.568314 
	C329.759186,144.219833 330.001007,155.878632 329.778137,167.528839 
	C329.702606,171.477875 331.335236,172.241623 334.821320,172.239029 
	C338.382812,172.236374 340.465576,171.688843 340.285736,167.391220 
	C340.007538,160.743576 340.038177,154.068237 340.281250,147.417206 
	C340.609009,138.450150 342.755310,136.074661 351.783661,134.796555 
	C358.505920,136.582794 360.684296,139.102203 360.821075,145.911224 
	C360.971130,153.379547 361.010193,160.856400 360.825958,168.322830 
	C360.710358,173.008621 363.912720,172.034622 366.585754,172.185699 
	C369.421539,172.345993 371.867676,172.376175 371.747467,168.252747 
	C371.534790,160.953964 371.644470,153.643661 371.719116,146.339203 
	C371.797455,138.674850 373.566315,136.499268 381.804657,134.729523 
	C388.940857,135.831085 391.769104,138.890884 391.865662,145.936783 
	C391.963776,153.094391 392.141876,160.265991 391.805237,167.408844 
	C391.601227,171.737823 393.620789,172.212601 397.163849,172.299179 
	C401.027161,172.393570 402.471405,171.266541 402.324371,167.206772 
	C402.023315,158.893005 402.279175,150.560669 402.188171,142.237274 
	C402.072388,131.645660 395.685089,125.338676 384.261902,124.979668 
M634.600952,173.233200 
	C637.433716,172.448792 640.400085,171.974777 643.074829,170.823303 
	C652.042236,166.962784 657.072144,155.530212 655.070007,144.103851 
	C653.187073,133.357864 645.243530,125.852821 634.148438,124.943207 
	C629.096130,126.124863 624.043884,127.306519 618.835144,128.524765 
	C618.871216,128.677567 618.653442,127.754845 618.039673,126.163933 
	C614.836304,126.006775 611.632996,125.849609 608.375244,125.689781 
	C608.375244,148.137558 608.375244,169.721741 608.375244,191.587494 
	C610.472412,191.587494 612.250061,191.587494 614.838989,191.768265 
	C617.369995,192.103790 618.970886,191.596451 618.827942,188.442383 
	C618.595337,183.307922 618.670105,178.159546 618.792969,172.347458 
	C618.735718,171.893005 618.678528,171.438568 618.766235,170.355255 
	C619.230408,166.044189 621.017944,170.445374 622.539734,170.381165 
	C626.355164,171.263168 630.170532,172.145172 634.600952,173.233200 
M730.078064,172.891251 
	C739.101562,171.028976 744.937866,165.413757 745.733032,156.456009 
	C746.623596,146.424088 745.937500,136.252228 745.937500,125.979591 
	C742.322083,125.979591 738.941772,125.979591 735.253601,125.979591 
	C735.253601,135.006348 735.238403,143.641586 735.259949,152.276749 
	C735.270935,156.688400 733.921997,160.356186 729.411194,162.716675 
	C729.411194,162.716675 729.010010,162.932541 728.495972,162.788696 
	C728.328674,162.849197 728.161316,162.909714 727.323364,162.848557 
	C726.879150,162.932098 726.434937,163.015625 725.333130,162.946640 
	C724.886230,162.975937 724.439331,163.005234 723.386292,162.688034 
	C717.728149,161.116745 716.179810,156.882538 716.186707,151.617752 
	C716.197998,143.041473 716.189758,134.465164 716.189758,126.035103 
	C712.168091,126.035103 708.812439,126.035103 705.279663,126.035103 
	C705.279663,133.135605 705.277161,139.767181 705.281006,146.398758 
	C705.282227,148.556107 705.211731,150.718048 705.323914,152.870071 
	C706.047241,166.748260 715.332886,174.463440 730.078064,172.891251 
M569.825928,173.061783 
	C574.836304,171.912064 579.846680,170.762344 584.871521,169.609299 
	C586.697327,175.389267 591.822266,170.790375 595.708984,172.398315 
	C595.708984,156.423233 595.708984,141.248032 595.708984,125.450768 
	C591.593628,126.711365 586.519165,122.760452 584.448669,129.182037 
	C582.374268,128.189758 580.309753,127.202248 577.683411,125.713783 
	C564.422974,122.382805 553.070984,128.820297 549.385559,141.761047 
	C545.732727,154.587036 552.182373,167.836411 564.620911,172.173538 
	C565.758423,172.389069 566.895935,172.604599 568.492004,172.991455 
	C568.492004,172.991455 568.968079,172.877151 569.825928,173.061783 
M505.511017,171.569061 
	C519.773376,176.010727 534.978516,172.552841 542.192200,163.034103 
	C539.938049,160.758423 537.656067,158.454636 535.238770,156.014282 
	C526.039612,163.749771 515.966980,164.466202 505.105133,160.163727 
	C504.828278,159.759338 504.617584,159.282379 504.265045,158.960999 
	C489.409058,145.417114 491.106689,126.379044 508.981415,115.516312 
	C518.587769,112.509239 527.208862,114.536377 534.978638,121.134583 
	C537.502319,118.482674 539.737122,116.134270 541.946472,113.812592 
	C532.359985,103.403114 515.777710,100.358139 504.127167,106.839096 
	C501.741241,107.883423 499.076813,108.543015 497.015137,110.035324 
	C484.731689,118.926292 479.720673,135.191238 484.740601,150.091064 
	C488.142487,160.188232 494.442322,167.724686 505.511017,171.569061 
M248.680923,104.061569 
	C244.468674,103.429825 242.841370,104.874001 242.852539,109.469879 
	C242.864517,114.404076 245.512558,114.301758 248.917786,114.181198 
	C252.411652,114.057495 255.946533,114.453766 259.403168,114.073837 
	C264.152740,113.551781 265.298065,115.483093 265.229218,119.976288 
	C264.989410,135.630997 265.096680,151.292007 265.206146,166.949661 
	C265.217499,168.569504 265.636505,171.058624 266.699036,171.651138 
	C271.873322,174.536499 276.754211,171.356720 276.755859,165.409531 
	C276.760193,149.917709 276.846375,134.424728 276.668427,118.934868 
	C276.625183,115.170792 277.907349,113.882050 281.583282,114.094635 
	C285.733856,114.334679 289.933960,113.865364 294.066650,114.227661 
	C298.426147,114.609840 298.904999,112.441277 298.969299,108.883118 
	C299.035858,105.200912 297.861664,103.951469 294.111908,103.995850 
	C279.288452,104.171280 264.461700,104.065559 248.680923,104.061569 
M756.813293,148.499939 
	C756.813293,156.286713 756.813293,164.073502 756.813293,172.115051 
	C760.518372,172.115051 763.766235,172.115051 767.123779,172.115051 
	C767.123779,148.792236 767.123779,125.736214 767.123779,102.676552 
	C763.536133,102.676552 760.316223,102.676552 756.813293,102.676552 
	C756.813293,117.881996 756.813293,132.690948 756.813293,148.499939 
M306.959442,169.823929 
	C308.227020,174.928253 312.474091,171.373062 315.159576,172.408905 
	C315.464630,172.526550 317.675385,169.710388 317.700073,168.232849 
	C317.911163,155.616592 317.651489,142.991776 317.911926,130.377365 
	C318.005219,125.859627 315.956512,125.334595 312.198456,125.206306 
	C308.000244,125.063004 306.782745,126.493103 306.855377,130.603226 
	C307.081299,143.385086 306.939392,156.173447 306.959442,169.823929 
M308.772034,105.268150 
	C304.468201,109.880196 305.335724,116.031471 310.640594,116.715706 
	C312.820679,116.996887 316.207672,115.903503 317.318115,114.264755 
	C318.444122,112.603027 318.399658,108.539902 317.126923,107.260612 
	C315.467682,105.592834 312.094238,105.630447 308.772034,105.268150 
z"/>
<path fill="#9D2727" opacity="1.000000" stroke="none" 
	d="
M249.158539,104.062836 
	C264.461700,104.065559 279.288452,104.171280 294.111908,103.995850 
	C297.861664,103.951469 299.035858,105.200912 298.969299,108.883118 
	C298.904999,112.441277 298.426147,114.609840 294.066650,114.227661 
	C289.933960,113.865364 285.733856,114.334679 281.583282,114.094635 
	C277.907349,113.882050 276.625183,115.170792 276.668427,118.934868 
	C276.846375,134.424728 276.760193,149.917709 276.755859,165.409531 
	C276.754211,171.356720 271.873322,174.536499 266.699036,171.651138 
	C265.636505,171.058624 265.217499,168.569504 265.206146,166.949661 
	C265.096680,151.292007 264.989410,135.630997 265.229218,119.976288 
	C265.298065,115.483093 264.152740,113.551781 259.403168,114.073837 
	C255.946533,114.453766 252.411652,114.057495 248.917786,114.181198 
	C245.512558,114.301758 242.864517,114.404076 242.852539,109.469879 
	C242.841370,104.874001 244.468674,103.429825 249.158539,104.062836 
z"/>
<path fill="#B96C6C" opacity="1.000000" stroke="none" 
	d="
M508.139709,115.641632 
	C491.106689,126.379044 489.409058,145.417114 504.265045,158.960999 
	C504.617584,159.282379 504.828278,159.759338 504.928467,160.768188 
	C504.825989,164.600784 504.900116,167.828934 504.974243,171.057068 
	C494.442322,167.724686 488.142487,160.188232 484.740601,150.091064 
	C479.720673,135.191238 484.731689,118.926292 497.015137,110.035324 
	C499.076813,108.543015 501.741241,107.883423 504.540344,107.173042 
	C506.015564,110.218536 507.077637,112.930077 508.139709,115.641632 
z"/>
<path fill="#E9D2D3" opacity="1.000000" stroke="none" 
	d="
M756.813293,147.999924 
	C756.813293,132.690948 756.813293,117.881996 756.813293,102.676552 
	C760.316223,102.676552 763.536133,102.676552 767.123779,102.676552 
	C767.123779,125.736214 767.123779,148.792236 767.123779,172.115051 
	C763.766235,172.115051 760.518372,172.115051 756.813293,172.115051 
	C756.813293,164.073502 756.813293,156.286713 756.813293,147.999924 
z"/>
<path fill="#C48585" opacity="1.000000" stroke="none" 
	d="
M564.014648,171.813278 
	C552.182373,167.836411 545.732727,154.587036 549.385559,141.761047 
	C553.070984,128.820297 564.422974,122.382805 577.877930,126.358109 
	C575.827698,129.826569 577.161743,132.675705 577.618896,135.460175 
	C565.365784,133.311981 558.181396,140.186035 559.910645,151.965164 
	C561.018372,159.511490 566.242615,163.103760 576.152588,163.235229 
	C576.088684,165.449432 575.873108,167.457535 575.600342,169.998566 
	C573.992798,169.998566 572.007996,169.763290 570.107178,170.062027 
	C568.035767,170.387573 566.042175,171.208374 564.014648,171.813278 
M572.536987,131.506134 
	C572.536987,131.506134 572.484802,131.528107 572.536987,131.506134 
z"/>
<path fill="#CC9191" opacity="1.000000" stroke="none" 
	d="
M578.013000,135.521469 
	C577.161743,132.675705 575.827698,129.826569 578.158936,126.608589 
	C580.309753,127.202248 582.374268,128.189758 584.448669,129.182037 
	C586.519165,122.760452 591.593628,126.711365 595.708984,125.450768 
	C595.708984,141.248032 595.708984,156.423233 595.708984,172.398315 
	C591.822266,170.790375 586.697327,175.389267 584.871521,169.609299 
	C579.846680,170.762344 574.836304,171.912064 569.307373,172.851562 
	C568.492676,172.478683 568.240906,172.538284 568.033447,172.820129 
	C566.895935,172.604599 565.758423,172.389069 564.317749,171.993408 
	C566.042175,171.208374 568.035767,170.387573 570.107178,170.062027 
	C572.007996,169.763290 573.992798,169.998566 575.600342,169.998566 
	C575.873108,167.457535 576.088684,165.449432 576.468262,163.085510 
	C582.635559,160.544876 585.579468,156.051453 585.895447,149.872345 
	C586.218323,143.559296 583.856995,138.537720 578.013000,135.521469 
z"/>
<path fill="#A73E3F" opacity="1.000000" stroke="none" 
	d="
M351.018799,125.190086 
	C357.898163,124.097878 363.686432,126.250626 368.139832,131.158127 
	C372.115204,129.112778 375.720856,127.257645 379.671448,125.819145 
	C380.353149,128.999863 380.689941,131.763947 381.026733,134.528030 
	C373.566315,136.499268 371.797455,138.674850 371.719116,146.339203 
	C371.644470,153.643661 371.534790,160.953964 371.747467,168.252747 
	C371.867676,172.376175 369.421539,172.345993 366.585754,172.185699 
	C363.912720,172.034622 360.710358,173.008621 360.825958,168.322830 
	C361.010193,160.856400 360.971130,153.379547 360.821075,145.911224 
	C360.684296,139.102203 358.505920,136.582794 351.397827,134.345825 
	C351.014252,130.993439 351.016541,128.091766 351.018799,125.190086 
z"/>
<path fill="#DBBBBB" opacity="1.000000" stroke="none" 
	d="
M725.990723,163.099152 
	C726.434937,163.015625 726.879150,162.932098 727.769165,163.032471 
	C728.214905,163.216370 728.660767,163.267059 728.660767,163.267059 
	C728.660767,163.267059 729.010010,162.932541 729.010010,162.932541 
	C729.010010,162.932541 729.411194,162.716675 729.620911,162.995590 
	C729.643372,166.452682 729.456116,169.630875 729.268860,172.809052 
	C715.332886,174.463440 706.047241,166.748260 705.323914,152.870071 
	C705.211731,150.718048 705.282227,148.556107 705.281006,146.398758 
	C705.277161,139.767181 705.279663,133.135605 705.279663,126.035103 
	C708.812439,126.035103 712.168091,126.035103 716.189758,126.035103 
	C716.189758,134.465164 716.197998,143.041473 716.186707,151.617752 
	C716.179810,156.882538 717.728149,161.116745 723.746521,163.125641 
	C724.734741,163.408569 725.362732,163.253876 725.990723,163.099152 
z"/>
<path fill="#D19E9D" opacity="1.000000" stroke="none" 
	d="
M622.047546,169.856842 
	C621.017944,170.445374 619.230408,166.044189 618.462402,170.738754 
	C618.310730,171.753845 618.462891,172.385437 618.615112,173.017029 
	C618.670105,178.159546 618.595337,183.307922 618.827942,188.442383 
	C618.970886,191.596451 617.369995,192.103790 614.405029,191.308762 
	C613.327209,188.447418 611.653381,185.761368 612.223694,183.694519 
	C614.331116,176.056824 612.138489,168.924011 611.223206,161.497803 
	C610.233582,153.467972 611.052124,145.221283 610.981567,137.070068 
	C610.935547,131.751343 613.050476,128.133636 618.435669,126.832123 
	C618.653442,127.754845 618.871216,128.677567 618.835144,128.524765 
	C624.043884,127.306519 629.096130,126.124863 634.562805,125.383858 
	C632.372070,129.265793 635.823486,132.118484 635.453003,135.260284 
	C629.746582,134.127213 625.001282,135.524200 620.406372,138.113281 
	C620.188171,137.971695 620.089478,137.939621 619.990723,137.907532 
	C620.135681,138.062744 620.280640,138.217941 620.492432,138.762131 
	C616.276611,147.257370 617.585144,154.738647 623.182983,162.088623 
	C622.869507,164.902847 622.458557,167.379852 622.047546,169.856842 
M620.010132,162.383743 
	C620.107849,162.818680 620.205566,163.253616 620.303284,163.688553 
	C620.646667,163.493790 620.990112,163.299011 621.333496,163.104279 
	C621.056396,162.824615 620.779297,162.544968 620.010132,162.383743 
z"/>
<path fill="#EDE1E1" opacity="1.000000" stroke="none" 
	d="
M789.831177,127.647484 
	C796.323730,123.395149 806.813660,123.954758 813.625732,128.916870 
	C819.997559,133.558319 824.165588,143.591888 822.174438,150.425201 
	C821.852783,151.529083 819.693420,152.756790 818.351562,152.794708 
	C810.887512,153.005661 803.413635,152.867264 795.336914,152.431702 
	C790.566650,151.101639 787.778870,149.171967 789.474243,144.185181 
	C797.126404,144.098175 804.317871,144.098175 811.688782,144.098175 
	C811.550537,142.898468 811.606445,142.379349 811.425537,141.963120 
	C808.335815,134.852905 802.789856,133.048935 792.978882,135.553101 
	C791.924072,132.661987 790.877625,130.154739 789.831177,127.647484 
z"/>
<path fill="#AB5152" opacity="1.000000" stroke="none" 
	d="
M427.031982,171.649384 
	C417.536255,169.189835 410.584320,159.977081 410.376556,149.577484 
	C410.157196,138.599503 416.833221,129.262695 427.631470,126.404953 
	C428.351807,129.630905 428.692596,132.428024 428.798584,135.448639 
	C426.253204,137.950592 423.942688,140.229034 421.632141,142.507477 
	C421.965912,142.916336 422.299652,143.325211 422.633423,143.734085 
	C424.762817,143.898560 426.892242,144.063049 429.035278,144.584961 
	C429.977753,148.449417 430.564362,152.255417 435.834808,151.151382 
	C436.424927,151.027756 437.275208,152.146408 438.004852,152.688965 
	C432.839691,152.688965 427.674530,152.688965 422.041870,152.688965 
	C423.176697,158.410522 426.453247,160.824081 430.599365,163.102371 
	C429.482452,166.314819 428.257233,168.982101 427.031982,171.649384 
z"/>
<path fill="#D2A4A4" opacity="1.000000" stroke="none" 
	d="
M635.897949,135.299362 
	C635.823486,132.118484 632.372070,129.265793 634.990845,125.485229 
	C645.243530,125.852821 653.187073,133.357864 655.070007,144.103851 
	C657.072144,155.530212 652.042236,166.962784 643.074829,170.823303 
	C640.400085,171.974777 637.433716,172.448792 634.533203,172.862762 
	C639.148438,169.168106 636.739563,166.195145 634.339233,163.089584 
	C640.494080,161.131531 643.619934,157.112656 644.301697,151.124725 
	C645.120178,143.936340 642.355408,138.632904 635.897949,135.299362 
z"/>
<path fill="#A33435" opacity="1.000000" stroke="none" 
	d="
M350.642456,125.150818 
	C351.016541,128.091766 351.014252,130.993439 351.020355,134.252045 
	C342.755310,136.074661 340.609009,138.450150 340.281250,147.417206 
	C340.038177,154.068237 340.007538,160.743576 340.285736,167.391220 
	C340.465576,171.688843 338.382812,172.236374 334.821320,172.239029 
	C331.335236,172.241623 329.702606,171.477875 329.778137,167.528839 
	C330.001007,155.878632 329.759186,144.219833 329.944550,132.568314 
	C329.979492,130.371674 330.770081,126.561226 331.858124,126.311592 
	C335.141663,125.558228 339.209991,124.399162 341.371155,128.452515 
	C344.464203,127.290756 347.365143,126.201149 350.642456,125.150818 
z"/>
<path fill="#AE494B" opacity="1.000000" stroke="none" 
	d="
M381.415710,134.628784 
	C380.689941,131.763947 380.353149,128.999863 380.020508,125.853317 
	C380.456146,125.360268 380.887604,125.249680 381.742981,125.447037 
	C383.115540,125.545189 384.064117,125.335388 385.012726,125.125595 
	C395.685089,125.338676 402.072388,131.645660 402.188171,142.237274 
	C402.279175,150.560669 402.023315,158.893005 402.324371,167.206772 
	C402.471405,171.266541 401.027161,172.393570 397.163849,172.299179 
	C393.620789,172.212601 391.601227,171.737823 391.805237,167.408844 
	C392.141876,160.265991 391.963776,153.094391 391.865662,145.936783 
	C391.769104,138.890884 388.940857,135.831085 381.415710,134.628784 
z"/>
<path fill="#E0C5C6" opacity="1.000000" stroke="none" 
	d="
M729.673462,172.850159 
	C729.456116,169.630875 729.643372,166.452682 729.843750,162.948624 
	C733.921997,160.356186 735.270935,156.688400 735.259949,152.276749 
	C735.238403,143.641586 735.253601,135.006348 735.253601,125.979591 
	C738.941772,125.979591 742.322083,125.979591 745.937500,125.979591 
	C745.937500,136.252228 746.623596,146.424088 745.733032,156.456009 
	C744.937866,165.413757 739.101562,171.028976 729.673462,172.850159 
z"/>
<path fill="#B45B5B" opacity="1.000000" stroke="none" 
	d="
M429.033417,135.225143 
	C428.692596,132.428024 428.351807,129.630905 428.005432,126.415421 
	C443.853729,121.556847 457.586639,132.164749 456.992188,148.274796 
	C456.871979,151.531845 455.894012,153.157883 452.329987,152.963013 
	C447.874725,152.719376 443.398346,152.861801 438.467957,152.763275 
	C437.275208,152.146408 436.424927,151.027756 435.834808,151.151382 
	C430.564362,152.255417 429.977753,148.449417 429.496796,144.519501 
	C434.975739,144.132462 440.006805,144.168320 445.162659,144.294357 
	C445.629272,144.438004 445.860107,144.291595 445.987000,143.579529 
	C443.322174,135.500870 439.716644,133.802628 429.033417,135.225143 
M431.886932,127.647148 
	C431.946838,127.546143 432.006744,127.445137 432.066650,127.344139 
	C431.974854,127.386124 431.883057,127.428108 431.886932,127.647148 
z"/>
<path fill="#9C2A2B" opacity="1.000000" stroke="none" 
	d="
M306.949829,169.391602 
	C306.939392,156.173447 307.081299,143.385086 306.855377,130.603226 
	C306.782745,126.493103 308.000244,125.063004 312.198456,125.206306 
	C315.956512,125.334595 318.005219,125.859627 317.911926,130.377365 
	C317.651489,142.991776 317.911163,155.616592 317.700073,168.232849 
	C317.675385,169.710388 315.464630,172.526550 315.159576,172.408905 
	C312.474091,171.373062 308.227020,174.928253 306.949829,169.391602 
z"/>
<path fill="#DBB5B5" opacity="1.000000" stroke="none" 
	d="
M670.291992,160.874527 
	C670.291992,160.874527 670.702332,160.947876 670.944580,161.409592 
	C672.760193,162.592346 674.333496,163.313385 675.906860,164.034439 
	C678.042725,164.014694 680.369080,164.517044 682.260376,163.826965 
	C684.117249,163.149475 686.140991,161.524933 686.892822,159.795013 
	C687.290100,158.880981 685.444580,156.409317 684.053955,155.445526 
	C682.231384,154.182388 679.858093,153.713837 677.405945,152.408295 
	C678.734436,149.246033 680.378601,146.579010 682.022766,143.911987 
	C685.193359,145.026382 688.570251,145.760361 691.487122,147.342529 
	C696.100403,149.844818 698.078125,154.189560 697.688721,159.376358 
	C697.258606,165.103775 694.468994,169.455215 688.970581,171.483063 
	C686.399597,172.431259 683.540894,172.599167 680.238159,172.854279 
	C679.119568,172.694733 678.575439,172.801590 678.031250,172.908447 
	C677.267456,172.902542 676.503723,172.896637 675.290466,172.479279 
	C671.940613,168.928101 669.040222,165.788376 665.762329,162.239960 
	C667.099548,161.836868 668.695740,161.355698 670.291992,160.874527 
z"/>
<path fill="#E3D3D3" opacity="1.000000" stroke="none" 
	d="
M789.467407,127.673676 
	C790.877625,130.154739 791.924072,132.661987 792.823608,135.858459 
	C790.786255,138.805069 786.565857,139.957520 789.013550,144.272186 
	C787.778870,149.171967 790.566650,151.101639 794.877930,152.340515 
	C792.725586,152.816605 790.426025,152.967209 787.038818,153.189056 
	C788.498474,155.574448 789.637329,157.435562 790.624695,159.806122 
	C789.315796,163.206253 788.158386,166.096939 787.000977,168.987625 
	C778.955688,164.053436 775.786194,156.549561 776.296875,147.492950 
	C776.797852,138.608444 780.775757,131.670334 789.467407,127.673676 
z"/>
<path fill="#BE7B7A" opacity="1.000000" stroke="none" 
	d="
M80.843391,139.933289 
	C81.314613,139.587143 81.785828,139.240997 82.744438,139.074203 
	C84.572807,140.542252 85.913780,141.830963 87.077972,143.444916 
	C85.950592,146.271759 84.043953,148.837112 84.205788,151.264557 
	C85.198891,166.160965 80.859802,180.031128 76.322968,193.977112 
	C73.083885,194.388626 71.882347,192.885025 71.571167,189.893768 
	C71.898193,187.941208 72.267052,186.387375 72.723328,184.684250 
	C72.907280,184.317795 72.949440,184.090500 72.940247,183.458099 
	C73.077423,182.415680 73.141937,181.744110 73.356392,181.124435 
	C75.805641,174.047073 77.198830,167.192322 69.939331,162.096909 
	C74.489876,162.003906 72.928932,158.998657 73.289665,157.005829 
	C74.648262,157.993835 75.715691,158.806412 77.556419,160.207657 
	C77.556419,155.863922 77.128899,152.524826 77.675629,149.353714 
	C78.231873,146.127426 79.747734,143.066574 80.843391,139.933289 
z"/>
<path fill="#BF7878" opacity="1.000000" stroke="none" 
	d="
M505.242615,171.313065 
	C504.900116,167.828934 504.825989,164.600784 505.000366,161.105377 
	C515.966980,164.466202 526.039612,163.749771 535.238770,156.014282 
	C537.656067,158.454636 539.938049,160.758423 542.192200,163.034103 
	C534.978516,172.552841 519.773376,176.010727 505.242615,171.313065 
z"/>
<path fill="#C07777" opacity="1.000000" stroke="none" 
	d="
M508.560547,115.578964 
	C507.077637,112.930077 506.015564,110.218536 504.919128,107.103790 
	C515.777710,100.358139 532.359985,103.403114 541.946472,113.812592 
	C539.737122,116.134270 537.502319,118.482674 534.978638,121.134583 
	C527.208862,114.536377 518.587769,112.509239 508.560547,115.578964 
z"/>
<path fill="#C89696" opacity="1.000000" stroke="none" 
	d="
M94.990761,127.891258 
	C100.815697,125.854927 105.735809,126.957420 108.677322,131.440521 
	C114.381470,140.134109 108.750244,146.044037 102.544121,152.119202 
	C105.010979,154.335815 107.171745,156.277390 109.678421,158.725677 
	C109.165726,161.560318 108.307129,163.888275 107.161179,166.090302 
	C105.208023,164.356384 103.495361,162.793793 101.884048,161.132919 
	C91.980438,150.924652 91.821632,153.109772 101.418396,143.370987 
	C103.702141,141.053452 105.362770,138.524689 103.041489,135.547089 
	C100.709274,132.555466 97.800362,133.516159 95.053329,134.801666 
	C95.021988,132.191162 95.006378,130.041214 94.990761,127.891258 
z"/>
<path fill="#B05555" opacity="1.000000" stroke="none" 
	d="
M37.437119,190.741074 
	C38.100315,187.688019 38.575920,184.579422 39.460571,181.591949 
	C42.582073,171.050644 44.243000,160.350586 43.388241,149.339615 
	C43.099693,145.622559 44.008072,142.463120 47.849628,140.176453 
	C48.665325,141.013702 48.783356,141.969650 49.098125,142.855698 
	C49.507557,144.008179 50.073280,145.105164 50.487064,146.670990 
	C51.362049,161.722946 48.548168,175.801193 44.302914,189.652267 
	C43.647606,191.790344 42.330925,193.725708 41.224014,195.357178 
	C39.897652,193.553391 38.667389,192.147232 37.437119,190.741074 
z"/>
<path fill="#EADDDE" opacity="1.000000" stroke="none" 
	d="
M787.231812,169.250320 
	C788.158386,166.096939 789.315796,163.206253 790.782837,160.136414 
	C798.576538,164.998596 805.747375,163.894974 812.607727,158.778763 
	C814.841553,160.855789 816.977478,162.841812 819.070679,164.788132 
	C812.445557,173.915192 799.362244,175.762222 787.231812,169.250320 
z"/>
<path fill="#EEEAE8" opacity="1.000000" stroke="none" 
	d="
M164.911255,145.791229 
	C171.011276,142.144516 177.189804,143.231873 181.068787,148.634796 
	C184.683777,153.670044 183.832550,160.448792 178.821381,164.714432 
	C175.287216,167.722824 171.523056,170.461060 167.452530,173.102798 
	C166.212723,172.464554 165.358063,172.083954 164.557434,171.611725 
	C163.619812,171.058746 162.729233,170.425980 161.824722,169.852692 
	C161.831192,169.877548 161.809647,169.835922 162.146805,169.878693 
	C163.276840,169.189377 164.069717,168.457291 164.961960,167.412079 
	C167.357712,165.236450 169.651489,163.370697 171.952164,161.513474 
	C172.590408,160.998260 173.252655,160.512863 173.897720,160.005936 
	C176.451843,157.998779 177.439178,155.360077 175.444534,152.705139 
	C172.866577,149.273834 169.577042,150.001007 166.176239,151.989685 
	C165.583633,149.782349 165.247437,147.786789 164.911255,145.791229 
z"/>
<path fill="#D2ABAA" opacity="1.000000" stroke="none" 
	d="
M681.730591,143.719940 
	C680.378601,146.579010 678.734436,149.246033 677.062439,152.246414 
	C665.691956,150.172195 660.213074,142.670578 664.330566,133.845856 
	C665.939697,130.397064 670.247131,128.207275 673.647339,125.806549 
	C673.084229,127.523010 671.933289,128.780090 671.394409,130.260010 
	C670.919861,131.562973 671.129517,133.115097 671.036987,134.557190 
	C672.086121,133.870285 673.147583,133.201202 674.177856,132.487091 
	C674.551392,132.228180 674.850342,131.861557 675.543884,131.200378 
	C676.141785,132.388657 676.617432,133.334000 677.093079,134.279327 
	C675.972656,135.687210 673.838684,137.227585 674.000732,138.467834 
	C674.183533,139.866287 676.325500,141.149826 677.821045,142.186615 
	C678.844788,142.896362 680.220215,143.098709 681.730591,143.719940 
M674.540894,150.502457 
	C674.540894,150.502457 674.486206,150.525269 674.540894,150.502457 
z"/>
<path fill="#CA9797" opacity="1.000000" stroke="none" 
	d="
M618.237671,126.498032 
	C613.050476,128.133636 610.935547,131.751343 610.981567,137.070068 
	C611.052124,145.221283 610.233582,153.467972 611.223206,161.497803 
	C612.138489,168.924011 614.331116,176.056824 612.223694,183.694519 
	C611.653381,185.761368 613.327209,188.447418 613.999390,191.218384 
	C612.250061,191.587494 610.472412,191.587494 608.375244,191.587494 
	C608.375244,169.721741 608.375244,148.137558 608.375244,125.689781 
	C611.632996,125.849609 614.836304,126.006775 618.237671,126.498032 
z"/>
<path fill="#BC7272" opacity="1.000000" stroke="none" 
	d="
M72.998489,156.830399 
	C72.928932,158.998657 74.489876,162.003906 69.666824,161.937119 
	C67.382683,160.185547 65.738319,158.565826 64.106300,156.933762 
	C59.616158,152.443497 59.595772,151.780594 63.836014,147.329559 
	C65.313988,145.778107 66.918175,144.334808 68.287178,142.694000 
	C71.591805,138.733246 70.872894,135.974670 66.011948,133.116196 
	C65.346252,130.846207 64.682693,128.941086 64.019127,127.035973 
	C73.461182,127.854576 76.553757,130.699493 77.080788,139.881805 
	C74.455864,144.546753 71.914719,148.458603 69.299194,152.484940 
	C70.463074,153.852112 71.730782,155.341248 72.998489,156.830399 
z"/>
<path fill="#F0E9E9" opacity="1.000000" stroke="none" 
	d="
M156.838913,43.021385 
	C164.055573,50.589748 166.578018,59.448292 163.566757,69.513084 
	C162.537186,72.954308 160.536697,76.105042 158.435516,79.643051 
	C156.911667,77.889923 155.932098,75.882225 155.014648,73.504166 
	C156.040970,69.671722 157.404160,66.263786 157.883026,62.735817 
	C158.772461,56.183090 154.910233,51.228111 151.787323,46.069221 
	C153.687317,44.950481 155.263107,43.985935 156.838913,43.021385 
z"/>
<path fill="#E3C9C9" opacity="1.000000" stroke="none" 
	d="
M133.754471,144.450958 
	C142.209579,142.565125 146.630356,145.171204 149.847275,154.374176 
	C150.097198,157.324066 150.050751,159.662827 149.794617,162.269257 
	C144.417877,165.544540 139.563507,169.387589 133.025543,168.332306 
	C133.026138,166.051315 133.027542,164.173019 133.432556,162.216522 
	C138.704391,161.900879 142.834183,159.084656 142.754883,155.704880 
	C142.655975,151.491150 139.654114,150.404709 135.982086,149.878967 
	C135.189926,147.813950 134.472198,146.132446 133.754471,144.450958 
z"/>
<path fill="#AF5A59" opacity="1.000000" stroke="none" 
	d="
M427.392395,171.866074 
	C428.257233,168.982101 429.482452,166.314819 430.856995,163.320984 
	C431.452759,163.026215 431.899170,163.057999 432.737915,163.415894 
	C433.755371,163.596329 434.380554,163.450623 435.005707,163.304916 
	C437.416687,162.730484 439.962708,162.474625 442.212982,161.520996 
	C448.595673,158.816208 448.570709,158.711014 453.293365,165.060013 
	C448.319122,172.070190 438.183899,174.857010 427.392395,171.866074 
z"/>
<path fill="#D7B2B3" opacity="1.000000" stroke="none" 
	d="
M677.411865,134.330780 
	C676.617432,133.334000 676.141785,132.388657 675.543884,131.200378 
	C674.850342,131.861557 674.551392,132.228180 674.177856,132.487091 
	C673.147583,133.201202 672.086121,133.870285 671.036987,134.557190 
	C671.129517,133.115097 670.919861,131.562973 671.394409,130.260010 
	C671.933289,128.780090 673.084229,127.523010 673.988525,125.832779 
	C682.960327,123.705139 691.167725,124.402077 697.637207,132.471161 
	C695.242188,134.653366 693.066956,136.635269 691.109131,138.419052 
	C688.307800,137.101639 685.512512,135.787109 682.213135,134.074432 
	C680.797241,133.808990 679.885376,133.941681 678.973572,134.074387 
	C678.559265,134.177002 678.145020,134.279633 677.411865,134.330780 
z"/>
<path fill="#A23B3B" opacity="1.000000" stroke="none" 
	d="
M30.039551,222.838837 
	C26.080406,222.892776 22.106018,223.166016 18.169643,222.892395 
	C16.601490,222.783386 14.565639,221.812607 13.786928,220.576385 
	C13.258365,219.737274 14.179330,217.454666 15.088395,216.333633 
	C18.719990,211.855286 22.600592,207.578873 26.704895,203.414703 
	C28.227770,207.720367 31.362127,203.825943 33.140953,205.425720 
	C30.460886,208.882141 27.893049,212.013535 24.922682,215.635788 
	C27.184240,215.946457 28.612854,216.142715 30.033669,216.745346 
	C30.030432,219.047440 30.034990,220.943130 30.039551,222.838837 
z"/>
<path fill="#9D3031" opacity="1.000000" stroke="none" 
	d="
M61.407684,75.178314 
	C54.861801,67.075531 56.725365,51.296726 64.700653,44.261238 
	C65.996925,46.287582 66.758392,48.285229 67.387695,50.635498 
	C63.396214,57.812763 64.141052,64.848488 65.930847,72.032585 
	C64.180649,73.137016 62.794167,74.157669 61.407684,75.178314 
z"/>
<path fill="#B26667" opacity="1.000000" stroke="none" 
	d="
M65.027260,222.851486 
	C61.988102,222.891006 58.948948,222.930527 55.379322,222.527786 
	C54.230450,218.708939 53.612045,215.332321 53.138744,211.657425 
	C55.835228,208.521591 58.386604,205.684036 61.025333,203.188324 
	C62.502605,204.723022 63.892525,205.915894 65.165756,207.434433 
	C63.059471,210.259186 61.069874,212.758270 58.672237,215.769882 
	C61.759438,216.001480 63.896610,216.161804 66.007477,216.687958 
	C65.663193,218.986328 65.345222,220.918915 65.027260,222.851486 
z"/>
<path fill="#D0A7A7" opacity="1.000000" stroke="none" 
	d="
M107.448532,166.216217 
	C108.307129,163.888275 109.165726,161.560318 110.033653,158.828186 
	C112.805733,156.672287 115.568489,154.920547 118.739456,153.456085 
	C120.136307,155.304657 121.124947,156.865982 121.903687,158.654877 
	C120.610031,159.738205 119.526283,160.593918 118.145454,161.684204 
	C119.455017,161.951630 120.243652,162.112671 121.031616,162.641861 
	C121.366425,164.922897 121.701904,166.835800 121.583832,168.835709 
	C116.557739,168.080978 111.201462,171.201172 107.448532,166.216217 
z"/>
<path fill="#CC9C9E" opacity="1.000000" stroke="none" 
	d="
M116.367004,202.159439 
	C111.395454,207.941559 106.423904,213.723679 101.034149,219.546936 
	C99.969345,217.531860 99.322746,215.475677 98.814926,213.129120 
	C103.619965,207.467377 108.286217,202.096024 112.961174,197.155182 
	C112.826744,200.057678 113.197517,202.147934 116.367004,202.159439 
z"/>
<path fill="#BC7D7E" opacity="1.000000" stroke="none" 
	d="
M31.912594,64.873268 
	C33.050243,61.328823 34.187897,57.784378 35.752159,54.450283 
	C36.767033,55.117702 37.355293,55.574768 37.964050,56.031258 
	C37.984554,56.030674 37.952438,56.015800 37.797066,56.367653 
	C37.755859,59.150890 37.870029,61.582268 37.972305,64.341873 
	C37.953835,65.107956 37.947262,65.545807 37.750633,66.181885 
	C38.041565,67.247078 38.522560,68.114052 39.136627,69.303223 
	C39.308640,70.406380 39.436447,71.194740 39.372063,71.967079 
	C38.960407,76.905327 38.506500,81.840050 38.066490,86.775932 
	C32.148556,87.138184 34.620296,81.641136 32.759964,78.319801 
	C32.480068,73.269318 32.196331,69.071289 31.912594,64.873268 
z"/>
<path fill="#9C2A2B" opacity="1.000000" stroke="none" 
	d="
M309.115234,105.101189 
	C312.094238,105.630447 315.467682,105.592834 317.126923,107.260612 
	C318.399658,108.539902 318.444122,112.603027 317.318115,114.264755 
	C316.207672,115.903503 312.820679,116.996887 310.640594,116.715706 
	C305.335724,116.031471 304.468201,109.880196 309.115234,105.101189 
z"/>
<path fill="#E3D6D6" opacity="1.000000" stroke="none" 
	d="
M161.818237,169.827820 
	C162.729233,170.425980 163.619812,171.058746 164.557434,171.611725 
	C165.358063,172.083954 166.212723,172.464554 167.122574,173.234863 
	C161.714127,177.379959 156.226578,181.175888 150.369324,184.654480 
	C149.616364,182.443100 149.233124,180.549042 149.079926,178.418274 
	C153.479385,175.396988 157.648819,172.612396 161.818237,169.827820 
z"/>
<path fill="#E3D6D6" opacity="1.000000" stroke="none" 
	d="
M150.004288,162.001587 
	C150.050751,159.662827 150.097198,157.324066 150.082886,154.661713 
	C154.748886,151.533920 159.475662,148.729706 164.556854,145.858368 
	C165.247437,147.786789 165.583633,149.782349 165.957031,152.260513 
	C160.664276,155.829269 155.334274,158.915436 150.004288,162.001587 
z"/>
<path fill="#D2A0A0" opacity="1.000000" stroke="none" 
	d="
M634.007080,163.238205 
	C636.739563,166.195145 639.148438,169.168106 634.225708,172.759735 
	C630.170532,172.145172 626.355164,171.263168 622.293640,170.119003 
	C622.458557,167.379852 622.869507,164.902847 623.501831,162.153931 
	C624.481934,162.268478 625.240845,162.654968 626.057251,163.301468 
	C626.743103,163.418320 627.371399,163.275131 628.428406,163.104767 
	C630.573792,163.131119 632.290466,163.184662 634.007080,163.238205 
z"/>
<path fill="#C89696" opacity="1.000000" stroke="none" 
	d="
M185.184174,12.032524 
	C185.272034,11.549706 185.359863,11.066889 185.704269,10.153645 
	C186.056107,9.561793 186.092590,9.388023 186.070251,9.201907 
	C188.759598,5.924645 190.801102,6.798172 192.166702,10.302795 
	C193.301376,13.214778 194.173035,16.229240 194.746796,19.596218 
	C193.319458,21.748343 192.306564,23.502552 191.054794,25.076506 
	C190.121048,23.964596 189.426178,23.032942 188.588745,21.910175 
	C187.662842,23.233229 187.032883,24.133406 186.327225,24.543640 
	C185.895752,20.046642 185.539948,16.039583 185.184174,12.032524 
z"/>
<path fill="#D8B5B6" opacity="1.000000" stroke="none" 
	d="
M122.113586,158.427307 
	C121.124947,156.865982 120.136307,155.304657 119.081482,153.397034 
	C123.683647,150.223694 128.352005,147.396667 133.387421,144.510300 
	C134.472198,146.132446 135.189926,147.813950 135.752960,150.117142 
	C131.103378,153.301666 126.608490,155.864487 122.113586,158.427307 
z"/>
<path fill="#A64746" opacity="1.000000" stroke="none" 
	d="
M33.253185,205.100693 
	C31.362127,203.825943 28.227770,207.720367 26.992132,203.239151 
	C30.278837,198.936554 33.594154,194.996460 37.173298,190.898712 
	C38.667389,192.147232 39.897652,193.553391 41.144150,195.648346 
	C38.524651,199.258316 35.888916,202.179504 33.253185,205.100693 
z"/>
<path fill="#DFCBCC" opacity="1.000000" stroke="none" 
	d="
M150.125259,90.612862 
	C146.374237,94.173836 142.623230,97.734818 138.524261,101.079346 
	C137.728668,98.795677 137.281021,96.728462 136.977112,94.372421 
	C140.166885,91.287636 143.212891,88.491699 146.631714,85.869019 
	C148.044769,87.565811 149.085007,89.089333 150.125259,90.612862 
z"/>
<path fill="#B15F5F" opacity="1.000000" stroke="none" 
	d="
M91.024208,106.894653 
	C87.090775,103.829872 83.157341,100.765091 79.317688,97.127480 
	C80.297577,94.938606 81.183685,93.322571 82.379761,91.859955 
	C86.147018,94.901192 89.604286,97.789017 93.037285,101.053780 
	C92.350082,103.252022 91.687141,105.073341 91.024208,106.894653 
z"/>
<path fill="#372C2B" opacity="1.000000" stroke="none" 
	d="
M73.289665,157.005829 
	C71.730782,155.341248 70.463074,153.852112 69.299194,152.484940 
	C71.914719,148.458603 74.455864,144.546753 77.131287,140.294922 
	C78.219673,139.954346 79.173782,139.953735 80.485641,139.943207 
	C79.747734,143.066574 78.231873,146.127426 77.675629,149.353714 
	C77.128899,152.524826 77.556419,155.863922 77.556419,160.207657 
	C75.715691,158.806412 74.648262,157.993835 73.289665,157.005829 
z"/>
<path fill="#D0A7A7" opacity="1.000000" stroke="none" 
	d="
M38.369293,86.750603 
	C38.506500,81.840050 38.960407,76.905327 39.372063,71.967079 
	C39.436447,71.194740 39.308640,70.406380 39.253811,69.030685 
	C38.805511,67.618515 38.373100,66.801094 37.940689,65.983665 
	C37.947262,65.545807 37.953835,65.107956 38.217697,64.042511 
	C38.300800,60.948551 38.126621,58.482178 37.952438,56.015800 
	C37.952438,56.015800 37.984554,56.030674 38.137672,55.811649 
	C38.586639,55.369205 38.882488,55.145782 39.178337,54.922363 
	C39.819618,56.627533 40.392975,58.362343 41.120583,60.029846 
	C41.906216,61.830318 42.836067,63.567863 43.505295,65.798615 
	C41.422211,69.713768 40.538219,73.078766 44.133743,76.066208 
	C42.313198,79.619232 40.492649,83.172249 38.369293,86.750603 
z"/>
<path fill="#E0C5C6" opacity="1.000000" stroke="none" 
	d="
M148.849884,178.654984 
	C149.233124,180.549042 149.616364,182.443100 150.004883,184.695496 
	C145.963623,187.153458 141.917068,189.253098 137.465546,190.954834 
	C137.014816,188.584229 136.969055,186.611542 137.135117,184.383621 
	C141.181259,182.303925 145.015579,180.479446 148.849884,178.654984 
z"/>
<path fill="#B24D4F" opacity="1.000000" stroke="none" 
	d="
M30.499268,222.885406 
	C30.034990,220.943130 30.030432,219.047440 30.491821,216.680176 
	C35.310390,216.261322 39.663006,216.314011 44.012978,216.770599 
	C44.009708,219.060562 44.009090,220.946609 44.008472,222.832672 
	C39.658642,222.865768 35.308815,222.898880 30.499268,222.885406 
z"/>
<path fill="#EDE1E1" opacity="1.000000" stroke="none" 
	d="
M179.124924,108.093033 
	C185.664246,113.982628 184.502777,123.002914 176.389053,125.752548 
	C175.955200,124.554955 175.936691,123.719780 175.782196,122.564590 
	C175.942169,119.754944 176.238129,117.265335 176.759888,114.381859 
	C177.698746,112.023010 178.411835,110.058022 179.124924,108.093033 
z"/>
<path fill="#D2ABAA" opacity="1.000000" stroke="none" 
	d="
M116.679924,202.032410 
	C113.197517,202.147934 112.826744,200.057678 113.173218,196.894714 
	C116.550743,194.713470 119.724930,193.223251 123.125351,191.993134 
	C125.199738,193.404541 127.047882,194.555801 128.896027,195.707062 
	C124.928299,197.773178 120.960564,199.839279 116.679924,202.032410 
z"/>
<path fill="#CC9191" opacity="1.000000" stroke="none" 
	d="
M204.239487,98.209114 
	C203.839172,99.944519 203.734375,101.829147 202.954727,103.372993 
	C202.188049,104.891174 200.736557,106.063545 199.585571,107.387657 
	C198.437714,106.070511 197.289856,104.753372 196.145523,102.879044 
	C196.149048,102.321854 195.999649,101.982025 195.999649,101.982025 
	C195.890610,101.664902 195.781586,101.347771 195.786774,100.369766 
	C196.741348,97.692390 194.965515,94.224899 199.383575,94.007240 
	C200.140350,93.998375 200.573502,93.995422 201.252045,94.218391 
	C202.411453,95.699249 203.325470,96.954178 204.239487,98.209114 
z"/>
<path fill="#C48A8B" opacity="1.000000" stroke="none" 
	d="
M94.647949,127.921524 
	C95.006378,130.041214 95.021988,132.191162 94.922379,135.096649 
	C92.289680,138.274673 89.772224,140.697174 87.254761,143.119659 
	C85.913780,141.830963 84.572807,140.542252 83.019615,138.968719 
	C83.110184,138.245651 83.412964,137.807449 84.131531,136.997742 
	C85.891808,135.180206 87.236305,133.734146 88.580811,132.288086 
	C90.488922,130.842651 92.397034,129.397217 94.647949,127.921524 
z"/>
<path fill="#C07777" opacity="1.000000" stroke="none" 
	d="
M65.486366,222.902603 
	C65.345222,220.918915 65.663193,218.986328 66.464745,216.622253 
	C70.974411,216.239609 75.000504,216.288467 79.020157,216.706207 
	C78.682144,218.999161 78.350563,220.923248 78.018982,222.847321 
	C73.994476,222.882782 69.969978,222.918259 65.486366,222.902603 
z"/>
<path fill="#AE494B" opacity="1.000000" stroke="none" 
	d="
M82.069786,91.706535 
	C81.183685,93.322571 80.297577,94.938606 79.181656,96.830963 
	C75.702209,93.950859 72.452591,90.794426 69.393547,87.179352 
	C70.849182,85.739159 72.114250,84.757607 73.676895,83.894165 
	C75.991066,85.969452 78.007652,87.926628 80.179184,90.111420 
	C80.631966,90.550217 80.929787,90.761406 81.416016,91.032379 
	C81.848015,91.229942 82.003143,91.434738 82.069786,91.706535 
z"/>
<path fill="#A23B3B" opacity="1.000000" stroke="none" 
	d="
M73.379318,83.776062 
	C72.114250,84.757607 70.849182,85.739159 69.272537,86.870132 
	C67.685081,85.544281 66.409210,84.068993 65.016235,81.968689 
	C64.529839,80.870834 64.160538,80.397980 63.791241,79.925133 
	C63.051682,78.561890 62.312119,77.198654 61.490120,75.506866 
	C62.794167,74.157669 64.180649,73.137016 66.118805,72.292542 
	C68.906754,76.237831 71.143036,80.006950 73.379318,83.776062 
z"/>
<path fill="#E3D3D3" opacity="1.000000" stroke="none" 
	d="
M156.787857,42.693237 
	C155.263107,43.985935 153.687317,44.950481 151.484146,45.948189 
	C148.236221,44.316349 145.615677,42.651344 143.045258,40.678829 
	C143.394135,38.533985 143.692871,36.696648 143.991592,34.859314 
	C148.239990,37.361240 152.488403,39.863167 156.787857,42.693237 
z"/>
<path fill="#D8B5B6" opacity="1.000000" stroke="none" 
	d="
M129.223877,195.601227 
	C127.047882,194.555801 125.199738,193.404541 123.344925,191.744141 
	C127.866592,189.036285 132.394928,186.837570 136.923279,184.638855 
	C136.969055,186.611542 137.014816,188.584229 137.092514,191.051056 
	C134.600204,192.861938 132.075974,194.178665 129.223877,195.601227 
M133.509796,187.462097 
	C133.509796,187.462097 133.540329,187.524612 133.509796,187.462097 
z"/>
<path fill="#C48585" opacity="1.000000" stroke="none" 
	d="
M113.392471,118.258583 
	C110.945724,117.834656 108.410057,117.677238 106.081123,116.900200 
	C104.304131,116.307320 102.789108,114.929245 101.155861,113.292030 
	C101.803741,110.981956 102.453308,109.280327 103.463356,107.684647 
	C106.948021,109.529770 109.687286,112.598297 113.877396,111.087151 
	C113.723869,113.737045 113.558167,115.997818 113.392471,118.258583 
z"/>
<path fill="#CC9191" opacity="1.000000" stroke="none" 
	d="
M98.676147,213.419495 
	C99.322746,215.475677 99.969345,217.531860 100.824402,219.803040 
	C98.473320,225.328049 93.657310,222.144989 89.386658,222.555832 
	C88.584343,220.217316 88.302605,218.296875 88.455193,216.295868 
	C92.331230,215.911682 96.203484,217.115204 98.676147,213.419495 
z"/>
<path fill="#AF5A59" opacity="1.000000" stroke="none" 
	d="
M174.996124,29.053995 
	C176.285751,27.732431 177.575363,26.410868 179.515381,25.143578 
	C180.804062,26.920113 181.442337,28.642374 182.016571,30.700706 
	C181.720810,32.311005 181.489090,33.585236 181.062164,35.069221 
	C180.215408,37.238743 179.563858,39.198509 178.912323,41.158272 
	C177.597748,40.137775 176.283173,39.117275 174.883682,37.359856 
	C174.864548,34.099960 174.930344,31.576977 174.996124,29.053995 
z"/>
<path fill="#D2ABAA" opacity="1.000000" stroke="none" 
	d="
M670.138794,160.583496 
	C668.695740,161.355698 667.099548,161.836868 665.762329,162.239960 
	C669.040222,165.788376 671.940613,168.928101 674.931152,172.339050 
	C669.310181,171.993973 664.802185,169.239136 660.092285,164.147400 
	C664.347717,163.726959 663.887024,155.691467 670.138794,160.583496 
z"/>
<path fill="#B45B5B" opacity="1.000000" stroke="none" 
	d="
M44.463352,222.888947 
	C44.009090,220.946609 44.009708,219.060562 44.398949,216.662598 
	C47.522930,214.752380 50.258286,213.354050 52.993641,211.955719 
	C53.612045,215.332321 54.230450,218.708939 54.927570,222.471100 
	C51.643600,222.886169 48.280918,222.915695 44.463352,222.888947 
z"/>
<path fill="#D2ABAA" opacity="1.000000" stroke="none" 
	d="
M121.019272,113.788124 
	C120.485367,114.146278 119.951469,114.504440 118.975372,114.530502 
	C119.254959,111.611305 119.976730,109.024193 120.919441,106.201218 
	C123.741829,104.265869 126.343269,102.566376 129.013977,101.239250 
	C130.163971,103.129417 131.244690,104.647209 132.325394,106.165009 
	C129.152756,108.413734 125.980125,110.662453 122.244537,113.036324 
	C121.388016,113.293411 121.167244,113.502296 121.019272,113.788124 
z"/>
<path fill="#BC7272" opacity="1.000000" stroke="none" 
	d="
M103.102859,107.578690 
	C102.453308,109.280327 101.803741,110.981956 100.958931,113.033600 
	C97.647453,111.402840 94.531219,109.422066 91.219604,107.167969 
	C91.687141,105.073341 92.350082,103.252022 93.366089,101.182625 
	C96.847061,103.149261 99.974960,105.363976 103.102859,107.578690 
z"/>
<path fill="#CA9797" opacity="1.000000" stroke="none" 
	d="
M193.940765,46.971489 
	C193.320465,49.793411 192.612320,52.599655 192.105011,55.441742 
	C191.614838,58.187866 190.400803,59.601608 187.373810,57.936211 
	C187.518082,54.891884 187.834534,52.497887 187.940323,50.094612 
	C188.057556,47.431683 187.982193,44.760273 188.274948,42.081123 
	C189.189835,41.670433 189.820496,41.271172 190.752533,41.078705 
	C192.016190,43.180832 192.978470,45.076160 193.940765,46.971489 
z"/>
<path fill="#EADDDE" opacity="1.000000" stroke="none" 
	d="
M150.444458,90.439865 
	C149.085007,89.089333 148.044769,87.565811 146.772797,85.536552 
	C149.344910,81.312057 152.148712,77.593292 154.952515,73.874527 
	C155.932098,75.882225 156.911667,77.889923 158.233810,79.934769 
	C155.972137,83.403557 153.367889,86.835213 150.444458,90.439865 
z"/>
<path fill="#B26667" opacity="1.000000" stroke="none" 
	d="
M63.644165,127.014633 
	C64.682693,128.941086 65.346252,130.846207 65.649193,133.219727 
	C62.912983,135.258377 60.537399,136.828613 57.989883,138.069977 
	C56.855560,136.101364 55.893169,134.461639 54.930779,132.821899 
	C57.710251,130.879044 60.489727,128.936172 63.644165,127.014633 
z"/>
<path fill="#A64746" opacity="1.000000" stroke="none" 
	d="
M144.851135,108.935738 
	C146.659439,107.631210 148.467728,106.326691 150.631622,105.457489 
	C150.687729,108.028542 150.388245,110.164276 149.916992,112.596596 
	C146.102432,116.480682 149.380600,119.130028 150.617584,122.134384 
	C149.773880,124.325867 149.293137,126.389816 148.812408,128.453766 
	C147.273071,126.851891 145.733749,125.250008 144.391205,123.162659 
	C147.558395,118.151909 146.957993,113.558250 144.851135,108.935738 
z"/>
<path fill="#C48A8B" opacity="1.000000" stroke="none" 
	d="
M106.165535,43.505627 
	C108.396057,44.341305 109.087387,49.072361 113.405670,46.192360 
	C113.974205,48.696033 113.947350,51.138531 113.682495,53.771091 
	C108.223389,55.986217 106.119698,51.425831 103.064117,48.665245 
	C104.142014,46.711544 105.153770,45.108585 106.165535,43.505627 
z"/>
<path fill="#B96C6C" opacity="1.000000" stroke="none" 
	d="
M199.059937,94.013153 
	C194.965515,94.224899 196.741348,97.692390 195.802597,100.116829 
	C194.517288,98.983124 193.330353,97.441483 192.046600,95.258331 
	C191.946747,92.035828 191.943726,89.454842 191.940704,86.873856 
	C192.834030,85.744499 193.727356,84.615135 195.036591,83.489487 
	C196.702271,85.644714 197.952057,87.796219 199.420181,90.175400 
	C200.457443,90.594627 201.276382,90.786201 202.020569,91.261063 
	C201.698868,91.842262 201.451904,92.140167 200.888794,92.381348 
	C200.068405,92.887474 199.564178,93.450310 199.059937,94.013153 
z"/>
<path fill="#B15F5F" opacity="1.000000" stroke="none" 
	d="
M54.619602,132.949799 
	C55.893169,134.461639 56.855560,136.101364 57.859497,138.356903 
	C55.457943,141.390503 53.014839,143.808258 50.571739,146.226028 
	C50.073280,145.105164 49.507557,144.008179 49.098125,142.855698 
	C48.783356,141.969650 48.665325,141.013702 48.151108,140.013458 
	C49.997749,137.651276 52.153088,135.364471 54.619602,132.949799 
z"/>
<path fill="#D8B5B6" opacity="1.000000" stroke="none" 
	d="
M175.918182,122.884613 
	C175.936691,123.719780 175.955200,124.554955 176.014099,125.806290 
	C174.280685,130.061630 171.735718,133.137772 167.334457,134.337067 
	C166.466309,132.237305 165.927338,130.503403 165.625305,128.500946 
	C169.214233,126.449799 172.566208,124.667206 175.918182,122.884613 
z"/>
<path fill="#BC7272" opacity="1.000000" stroke="none" 
	d="
M182.080612,30.364635 
	C181.442337,28.642374 180.804062,26.920113 179.789261,25.013674 
	C181.194595,20.750828 182.976425,16.672159 184.971222,12.313007 
	C185.539948,16.039583 185.895752,20.046642 186.257645,24.837473 
	C184.869370,27.202375 183.474991,28.783504 182.080612,30.364635 
z"/>
<path fill="#CC9C9E" opacity="1.000000" stroke="none" 
	d="
M113.920494,53.581032 
	C113.947350,51.138531 113.974205,48.696033 113.693916,46.014790 
	C115.231125,44.196575 117.075470,42.617100 119.623039,41.032028 
	C121.215492,42.674931 122.104729,44.323425 122.841614,46.269897 
	C119.766342,48.905590 116.843422,51.243313 113.920494,53.581032 
z"/>
<path fill="#B05555" opacity="1.000000" stroke="none" 
	d="
M31.590656,64.990356 
	C32.196331,69.071289 32.480068,73.269318 32.664452,77.947342 
	C31.705181,77.663017 30.831423,76.913620 29.987530,76.131981 
	C23.366730,69.999626 23.438129,69.399399 31.590656,64.990356 
z"/>
<path fill="#DBBBBB" opacity="1.000000" stroke="none" 
	d="
M132.629501,106.059059 
	C131.244690,104.647209 130.163971,103.129417 129.172791,100.950119 
	C131.786011,98.412834 134.309677,96.537041 136.833374,94.661255 
	C137.281021,96.728462 137.728668,98.795677 138.192474,101.221962 
	C136.450287,103.038391 134.691940,104.495750 132.629501,106.059059 
z"/>
<path fill="#C48585" opacity="1.000000" stroke="none" 
	d="
M88.020859,216.376434 
	C88.302605,218.296875 88.584343,220.217316 88.937393,222.494202 
	C85.648003,222.887878 82.287300,222.925140 78.472794,222.904861 
	C78.350563,220.923248 78.682144,218.999161 79.463867,216.629944 
	C82.616287,216.248657 85.318573,216.312546 88.020859,216.376434 
z"/>
<path fill="#B96C6C" opacity="1.000000" stroke="none" 
	d="
M89.004440,34.372780 
	C92.330673,35.641453 95.656906,36.910126 98.903481,38.561913 
	C98.161621,40.749374 97.499420,42.553730 96.476181,44.285919 
	C93.010506,42.958580 89.905869,41.703403 87.030098,40.109444 
	C87.840782,37.971371 88.422615,36.172073 89.004440,34.372780 
z"/>
<path fill="#C08080" opacity="1.000000" stroke="none" 
	d="
M187.990707,42.092552 
	C187.982193,44.760273 188.057556,47.431683 187.940323,50.094612 
	C187.834534,52.497887 187.518082,54.891884 187.123077,57.665825 
	C185.606812,54.068195 184.262024,50.094711 182.990448,45.438629 
	C183.835373,42.760574 184.607086,40.765114 185.644104,38.922493 
	C186.603195,40.081070 187.296951,41.086811 187.990707,42.092552 
z"/>
<path fill="#AF5A59" opacity="1.000000" stroke="none" 
	d="
M88.642212,34.235588 
	C88.422615,36.172073 87.840782,37.971371 86.635101,40.097023 
	C83.672035,40.619862 81.332825,40.816345 78.974991,40.625587 
	C78.632278,38.457554 78.308182,36.676769 77.984085,34.895988 
	C81.416046,34.630123 84.848015,34.364258 88.642212,34.235588 
z"/>
<path fill="#D2ABAA" opacity="1.000000" stroke="none" 
	d="
M122.993965,45.971924 
	C122.104729,44.323425 121.215492,42.674931 119.938416,40.956924 
	C122.411896,39.165428 125.273201,37.443432 128.548584,36.107544 
	C129.689072,38.171593 130.415512,39.849529 130.907684,41.747044 
	C128.113617,43.301723 125.553787,44.636826 122.993965,45.971924 
z"/>
<path fill="#BE7B7A" opacity="1.000000" stroke="none" 
	d="
M96.837219,44.358086 
	C97.499420,42.553730 98.161621,40.749374 99.133789,38.842319 
	C101.585022,40.147152 103.726288,41.554684 106.016541,43.233921 
	C105.153770,45.108585 104.142014,46.711544 102.748123,48.568336 
	C100.523079,47.334141 98.680145,45.846115 96.837219,44.358086 
z"/>
<path fill="#E0C5C6" opacity="1.000000" stroke="none" 
	d="
M199.198853,25.897671 
	C200.538406,26.949171 201.877960,28.000668 203.096649,29.605513 
	C202.962967,32.714619 202.950150,35.270378 202.937332,37.826138 
	C202.759140,37.800556 202.580948,37.774979 202.105209,37.646233 
	C201.582092,37.971973 201.356537,38.400883 201.130981,38.829788 
	C200.634018,39.210945 200.137039,39.592098 199.107559,39.793129 
	C197.497299,38.326912 196.419525,37.040817 195.526001,35.472527 
	C196.080627,34.236996 196.451050,33.283653 196.988983,31.971710 
	C197.837296,29.707958 198.518082,27.802814 199.198853,25.897671 
z"/>
<path fill="#9D3838" opacity="1.000000" stroke="none" 
	d="
M144.568848,109.134079 
	C146.957993,113.558250 147.558395,118.151909 144.301498,122.843155 
	C140.395737,117.716454 140.455780,114.692383 144.568848,109.134079 
z"/>
<path fill="#A23B3B" opacity="1.000000" stroke="none" 
	d="
M67.519852,50.282875 
	C66.758392,48.285229 65.996925,46.287582 64.963074,44.058701 
	C66.841301,41.801743 68.991928,39.776020 71.526031,38.110802 
	C72.342323,40.341393 72.775131,42.211479 72.990616,44.337509 
	C71.022141,46.489925 69.270996,48.386398 67.519852,50.282875 
z"/>
<path fill="#D7B2B3" opacity="1.000000" stroke="none" 
	d="
M199.099091,25.570358 
	C198.518082,27.802814 197.837296,29.707958 196.678085,31.821629 
	C194.564316,29.772356 192.928986,27.514559 191.293655,25.256762 
	C192.306564,23.502552 193.319458,21.748343 194.683899,19.991735 
	C196.356750,21.740576 197.678040,23.491812 199.099091,25.570358 
z"/>
<path fill="#D2ABAA" opacity="1.000000" stroke="none" 
	d="
M195.341766,35.754726 
	C196.419525,37.040817 197.497299,38.326912 198.857224,39.849625 
	C197.480560,42.163818 195.821747,44.241390 194.051849,46.645229 
	C192.978470,45.076160 192.016190,43.180832 190.907288,40.775223 
	C192.287689,38.761536 193.814728,37.258133 195.341766,35.754726 
z"/>
<path fill="#D7B2B3" opacity="1.000000" stroke="none" 
	d="
M201.204926,92.438065 
	C201.451904,92.140167 201.698868,91.842262 202.201965,91.024384 
	C202.581284,86.688263 202.704498,82.872131 202.827728,79.056000 
	C203.934433,81.382523 205.041153,83.709053 206.177826,86.484077 
	C206.359390,86.908905 206.511002,86.885246 206.662613,86.861588 
	C206.662613,86.861588 206.950958,87.021233 206.692657,87.635376 
	C206.775925,90.593079 207.117508,92.936638 207.459076,95.280205 
	C206.578308,96.170525 205.697556,97.060844 204.528137,98.080139 
	C203.325470,96.954178 202.411453,95.699249 201.271515,93.956451 
	C201.098694,93.125084 201.151810,92.781570 201.204926,92.438065 
z"/>
<path fill="#C89696" opacity="1.000000" stroke="none" 
	d="
M202.903229,78.673386 
	C202.704498,82.872131 202.581284,86.688263 202.276688,90.741081 
	C201.276382,90.786201 200.457443,90.594627 199.618317,89.851776 
	C199.489502,86.584877 199.337143,83.870079 199.285828,81.153374 
	C199.243500,78.911247 200.813507,76.188248 197.322327,75.071991 
	C201.292389,72.481628 202.623367,74.528984 202.903229,78.673386 
z"/>
<path fill="#C48585" opacity="1.000000" stroke="none" 
	d="
M197.013580,75.294205 
	C200.813507,76.188248 199.243500,78.911247 199.285828,81.153374 
	C199.337143,83.870079 199.489502,86.584877 199.399994,89.624115 
	C197.952057,87.796219 196.702271,85.644714 195.223114,83.240646 
	C195.564117,80.497536 196.134476,78.006981 197.013580,75.294205 
z"/>
<path fill="#C89696" opacity="1.000000" stroke="none" 
	d="
M120.698502,106.437088 
	C119.976730,109.024193 119.254959,111.611305 118.663658,114.614212 
	C118.794128,115.030006 118.769829,114.993134 118.601013,114.809792 
	C118.293465,114.640442 118.154747,114.654434 118.016022,114.668427 
	C118.202568,114.870705 118.389122,115.072983 118.575668,115.275269 
	C117.035156,116.142715 115.494637,117.010155 113.673294,118.068092 
	C113.558167,115.997818 113.723869,113.737045 114.104431,110.850449 
	C116.445709,108.962105 118.572105,107.699593 120.698502,106.437088 
z"/>
<path fill="#A64746" opacity="1.000000" stroke="none" 
	d="
M73.207939,44.081566 
	C72.775131,42.211479 72.342323,40.341393 71.870445,38.022671 
	C73.641449,36.677647 75.451515,35.781258 77.622833,34.890427 
	C78.308182,36.676769 78.632278,38.457554 78.720398,40.836449 
	C76.725586,42.316895 74.966759,43.199226 73.207939,44.081566 
z"/>
<path fill="#DBBBBB" opacity="1.000000" stroke="none" 
	d="
M131.141937,41.527466 
	C130.415512,39.849529 129.689072,38.171593 128.922791,36.093250 
	C131.321075,35.065178 133.759216,34.437511 136.590088,34.327919 
	C136.984207,36.622520 136.985626,38.399052 136.664047,40.365425 
	C134.608017,40.879330 132.874969,41.203400 131.141937,41.527466 
z"/>
<path fill="#E3C9C9" opacity="1.000000" stroke="none" 
	d="
M136.987045,40.175587 
	C136.985626,38.399052 136.984207,36.622520 136.982666,34.402260 
	C139.090439,34.213787 141.198380,34.469040 143.648956,34.791801 
	C143.692871,36.696648 143.394135,38.533985 142.660858,40.718765 
	C140.479889,40.769341 138.733475,40.472462 136.987045,40.175587 
z"/>
<path fill="#D8B5B6" opacity="1.000000" stroke="none" 
	d="
M166.604279,106.325226 
	C168.872482,105.810883 171.140686,105.296539 173.694733,105.281616 
	C173.334091,107.674881 172.687592,109.568726 171.670685,111.552780 
	C169.887543,112.185524 168.474838,112.728065 167.047043,112.775665 
	C166.889389,110.295563 166.746826,108.310387 166.604279,106.325226 
z"/>
<path fill="#C08080" opacity="1.000000" stroke="none" 
	d="
M157.026413,105.673538 
	C158.780365,106.460388 160.534317,107.247231 162.482086,108.320007 
	C162.413376,111.207947 162.150833,113.809959 161.533386,116.376663 
	C159.138306,114.812614 157.098160,113.283882 155.318771,111.509674 
	C156.061829,109.400642 156.544128,107.537094 157.026413,105.673538 
z"/>
<path fill="#EADDDE" opacity="1.000000" stroke="none" 
	d="
M203.278214,37.770531 
	C202.950150,35.270378 202.962967,32.714619 203.325790,29.832115 
	C205.463013,30.597061 207.250229,31.688753 209.037445,32.780445 
	C207.231339,34.425274 205.425217,36.070099 203.278214,37.770531 
z"/>
<path fill="#9D3838" opacity="1.000000" stroke="none" 
	d="
M174.602585,29.074184 
	C174.930344,31.576977 174.864548,34.099960 174.700562,37.111732 
	C173.962799,37.420898 173.118454,37.438465 172.720978,37.025719 
	C171.374023,35.627060 170.185242,34.076096 168.936035,32.583321 
	C170.693710,31.420338 172.451370,30.257357 174.602585,29.074184 
z"/>
<path fill="#B26667" opacity="1.000000" stroke="none" 
	d="
M156.725937,105.436859 
	C156.544128,107.537094 156.061829,109.400642 154.896240,111.513123 
	C152.838211,111.941376 151.463501,112.120689 150.088776,112.300003 
	C150.388245,110.164276 150.687729,108.028542 150.985931,105.485199 
	C152.798264,105.118454 154.611862,105.159317 156.725937,105.436859 
z"/>
<path fill="#E3D6D6" opacity="1.000000" stroke="none" 
	d="
M207.706970,95.035225 
	C207.117508,92.936638 206.775925,90.593079 206.673615,87.799065 
	C207.521255,87.519554 208.170822,87.605896 208.729919,87.878098 
	C210.126511,88.558037 211.482010,89.322372 212.854004,90.052834 
	C211.772415,91.369774 210.737610,92.729942 209.582901,93.979309 
	C209.198166,94.395615 208.506302,94.528046 207.706970,95.035225 
z"/>
<path fill="#E3D3D3" opacity="1.000000" stroke="none" 
	d="
M172.041107,111.462563 
	C172.687592,109.568726 173.334091,107.674881 173.981812,105.424591 
	C175.536179,105.957634 177.089310,106.847122 178.883667,107.914825 
	C178.411835,110.058022 177.698746,112.023010 176.503510,114.118782 
	C174.694626,113.320564 173.367859,112.391563 172.041107,111.462563 
z"/>
<path fill="#BC7D7E" opacity="1.000000" stroke="none" 
	d="
M162.142456,136.780807 
	C160.272339,135.955841 158.402206,135.130890 156.508286,133.851501 
	C157.076492,131.545517 157.668503,129.693924 158.560944,127.915344 
	C159.918900,128.627090 160.976425,129.265854 162.017059,130.388672 
	C162.047592,132.842102 162.095016,134.811447 162.142456,136.780807 
z"/>
<path fill="#A64746" opacity="1.000000" stroke="none" 
	d="
M191.533875,86.879974 
	C191.943726,89.454842 191.946747,92.035828 191.859253,94.993195 
	C188.962372,94.549553 186.201523,93.331757 187.129700,89.840057 
	C187.462097,88.589577 189.738113,87.855736 191.533875,86.879974 
z"/>
<path fill="#E0C5C6" opacity="1.000000" stroke="none" 
	d="
M44.410248,75.947105 
	C40.538219,73.078766 41.422211,69.713768 43.670860,66.122177 
	C44.229263,66.047546 44.424393,66.115097 44.927582,66.747131 
	C45.464771,69.723602 45.693893,72.135582 45.923012,74.547569 
	C45.510925,74.974380 45.098839,75.401192 44.410248,75.947105 
z"/>
<path fill="#AF5A59" opacity="1.000000" stroke="none" 
	d="
M148.986725,128.712799 
	C149.293137,126.389816 149.773880,124.325867 150.874466,122.288513 
	C152.347351,123.139671 153.200363,123.964241 153.977051,125.206055 
	C153.503357,127.618828 153.106018,129.614365 152.708664,131.609894 
	C151.526123,130.730545 150.343597,129.851196 148.986725,128.712799 
z"/>
<path fill="#B66E6E" opacity="1.000000" stroke="none" 
	d="
M185.378784,38.769653 
	C184.607086,40.765114 183.835373,42.760574 182.900116,45.080353 
	C181.549210,44.183575 180.361847,42.962479 179.043396,41.449829 
	C179.563858,39.198509 180.215408,37.238743 181.352478,35.195839 
	C183.018265,36.331684 184.198532,37.550667 185.378784,38.769653 
z"/>
<path fill="#C89696" opacity="1.000000" stroke="none" 
	d="
M161.888306,116.411972 
	C162.150833,113.809959 162.413376,111.207947 162.837357,108.414139 
	C163.970154,107.606781 164.941513,106.991211 166.258575,106.350433 
	C166.746826,108.310387 166.889389,110.295563 166.894394,113.088127 
	C165.133987,114.734337 163.511154,115.573158 161.888306,116.411972 
z"/>
<path fill="#E3D6D6" opacity="1.000000" stroke="none" 
	d="
M46.254414,74.475349 
	C45.693893,72.135582 45.464771,69.723602 45.135056,66.977112 
	C46.957325,67.728661 48.880180,68.814720 50.803040,69.900772 
	C49.397293,71.401558 47.991554,72.902344 46.254414,74.475349 
z"/>
<path fill="#B26667" opacity="1.000000" stroke="none" 
	d="
M152.867691,131.857697 
	C153.106018,129.614365 153.503357,127.618828 154.286896,125.315102 
	C155.868896,125.952057 157.064697,126.897202 158.260498,127.842346 
	C157.668503,129.693924 157.076492,131.545517 156.281281,133.628052 
	C155.060944,133.274506 154.043839,132.690002 152.867691,131.857697 
z"/>
<path fill="#CC9C9E" opacity="1.000000" stroke="none" 
	d="
M162.530853,136.837250 
	C162.095016,134.811447 162.047592,132.842102 162.305084,130.315521 
	C163.536118,129.428696 164.462234,129.099106 165.388351,128.769516 
	C165.927338,130.503403 166.466309,132.237305 166.991699,134.389252 
	C165.625168,135.502777 164.272202,136.198227 162.530853,136.837250 
z"/>
<path fill="#372C2B" opacity="1.000000" stroke="none" 
	d="
M88.198517,132.263412 
	C87.236305,133.734146 85.891808,135.180206 84.250023,136.758469 
	C85.240570,135.340027 86.528397,133.789383 88.198517,132.263412 
z"/>
<path fill="#D2ABAA" opacity="1.000000" stroke="none" 
	d="
M675.642578,163.862610 
	C674.333496,163.313385 672.760193,162.592346 671.084473,161.564087 
	C672.447571,162.068161 673.912964,162.879471 675.642578,163.862610 
z"/>
<path fill="#A73E3F" opacity="1.000000" stroke="none" 
	d="
M384.637329,125.052628 
	C384.064117,125.335388 383.115540,125.545189 382.078552,125.466553 
	C382.747406,125.111969 383.504639,125.045822 384.637329,125.052628 
z"/>
<path fill="#D2ABAA" opacity="1.000000" stroke="none" 
	d="
M679.260193,134.201294 
	C679.885376,133.941681 680.797241,133.808990 681.862183,133.893463 
	C681.192505,134.183167 680.369690,134.255692 679.260193,134.201294 
z"/>
<path fill="#D19E9D" opacity="1.000000" stroke="none" 
	d="
M39.010201,54.580826 
	C38.882488,55.145782 38.586639,55.369205 38.117172,55.812233 
	C37.355293,55.574768 36.767033,55.117702 36.105286,54.367790 
	C36.968548,54.129726 37.905308,54.184509 39.010201,54.580826 
z"/>
<path fill="#D2ABAA" opacity="1.000000" stroke="none" 
	d="
M678.207764,173.017807 
	C678.575439,172.801590 679.119568,172.694733 679.820923,172.767944 
	C679.446838,173.007721 678.915588,173.067444 678.207764,173.017807 
z"/>
<path fill="#CA9797" opacity="1.000000" stroke="none" 
	d="
M618.704041,172.682251 
	C618.462891,172.385437 618.310730,171.753845 618.389893,171.053192 
	C618.678528,171.438568 618.735718,171.893005 618.704041,172.682251 
z"/>
<path fill="#E0C5C6" opacity="1.000000" stroke="none" 
	d="
M725.661926,163.022903 
	C725.362732,163.253876 724.734741,163.408569 724.049561,163.298889 
	C724.439331,163.005234 724.886230,162.975937 725.661926,163.022903 
z"/>
<path fill="#AB5152" opacity="1.000000" stroke="none" 
	d="
M434.673676,163.234039 
	C434.380554,163.450623 433.755371,163.596329 433.061951,163.506439 
	C433.442993,163.234940 433.892303,163.199051 434.673676,163.234039 
z"/>
<path fill="#9D3031" opacity="1.000000" stroke="none" 
	d="
M63.836643,80.228683 
	C64.160538,80.397980 64.529839,80.870834 64.953583,81.643677 
	C64.632690,81.473190 64.257370,81.002716 63.836643,80.228683 
z"/>
<path fill="#B96C6C" opacity="1.000000" stroke="none" 
	d="
M195.901459,102.065025 
	C195.999649,101.982025 196.149048,102.321854 196.151245,102.507362 
	C195.863754,102.640343 195.747025,102.458733 195.901459,102.065025 
z"/>
<path fill="#BC7272" opacity="1.000000" stroke="none" 
	d="
M185.910141,9.260264 
	C186.092590,9.388023 186.056107,9.561793 185.871490,9.823936 
	C185.567062,9.733447 185.556366,9.531436 185.910141,9.260264 
z"/>
<path fill="#E0C5C6" opacity="1.000000" stroke="none" 
	d="
M728.752991,162.860626 
	C729.010010,162.932541 728.660767,163.267059 728.660767,163.267059 
	C728.660767,163.267059 728.214905,163.216370 728.104492,163.093292 
	C728.161316,162.909714 728.328674,162.849197 728.752991,162.860626 
z"/>
<path fill="#C48585" opacity="1.000000" stroke="none" 
	d="
M568.262695,172.905792 
	C568.240906,172.538284 568.492676,172.478683 568.878418,172.759247 
	C568.968079,172.877151 568.492004,172.991455 568.262695,172.905792 
z"/>
<path fill="#E3D6D6" opacity="1.000000" stroke="none" 
	d="
M206.645111,86.783455 
	C206.511002,86.885246 206.359390,86.908905 206.345352,86.784615 
	C206.482925,86.636658 206.627594,86.705322 206.645111,86.783455 
z"/>
<path fill="#C89696" opacity="1.000000" stroke="none" 
	d="
M121.256310,113.762650 
	C121.167244,113.502296 121.388016,113.293411 121.907379,113.110519 
	C122.018471,113.378525 121.805191,113.604393 121.256310,113.762650 
z"/>
<path fill="#D2ABAA" opacity="1.000000" stroke="none" 
	d="
M118.647552,115.216110 
	C118.389122,115.072983 118.202568,114.870705 118.016022,114.668427 
	C118.154747,114.654434 118.293465,114.640442 118.582565,114.798843 
	C118.732933,114.971245 118.719444,115.156952 118.647552,115.216110 
z"/>
<path fill="#EADDDE" opacity="1.000000" stroke="none" 
	d="
M201.533676,38.711456 
	C201.356537,38.400883 201.582092,37.971973 202.136856,37.378078 
	C202.289505,37.673100 202.112946,38.133110 201.533676,38.711456 
z"/>
<path fill="#242222" opacity="1.000000" stroke="none" 
	d="
M577.618896,135.460175 
	C583.856995,138.537720 586.218323,143.559296 585.895447,149.872345 
	C585.579468,156.051453 582.635559,160.544876 576.316528,162.879425 
	C566.242615,163.103760 561.018372,159.511490 559.910645,151.965164 
	C558.181396,140.186035 565.365784,133.311981 577.618896,135.460175 
z"/>
<path fill="#CC9191" opacity="1.000000" stroke="none" 
	d="
M572.510864,131.517120 
	C572.484802,131.528107 572.536987,131.506134 572.510864,131.517120 
z"/>
<path fill="#262424" opacity="1.000000" stroke="none" 
	d="
M625.999695,163.041443 
	C625.240845,162.654968 624.481934,162.268478 623.404297,161.816681 
	C617.585144,154.738647 616.276611,147.257370 620.506409,138.717148 
	C620.453491,138.283173 620.525818,138.222794 620.525818,138.222794 
	C625.001282,135.524200 629.746582,134.127213 635.453003,135.260284 
	C642.355408,138.632904 645.120178,143.936340 644.301697,151.124725 
	C643.619934,157.112656 640.494080,161.131531 634.339233,163.089584 
	C632.290466,163.184662 630.573792,163.131119 628.106567,162.978333 
	C626.903870,162.933197 626.451782,162.987320 625.999695,163.041443 
z"/>
<path fill="#D2A0A0" opacity="1.000000" stroke="none" 
	d="
M620.256165,162.324524 
	C620.779297,162.544968 621.056396,162.824615 621.333496,163.104263 
	C620.990112,163.299011 620.646667,163.493790 620.303284,163.688568 
	C620.205566,163.253616 620.107849,162.818680 620.256165,162.324524 
z"/>
<path fill="#CA9797" opacity="1.000000" stroke="none" 
	d="
M620.439575,138.328156 
	C620.280640,138.217941 620.135681,138.062744 619.990723,137.907532 
	C620.089478,137.939621 620.188171,137.971695 620.406372,138.113281 
	C620.525818,138.222794 620.453491,138.283173 620.439575,138.328156 
z"/>
<path fill="#292827" opacity="1.000000" stroke="none" 
	d="
M789.474243,144.185181 
	C786.565857,139.957520 790.786255,138.805069 792.832031,136.242325 
	C802.789856,133.048935 808.335815,134.852905 811.425537,141.963120 
	C811.606445,142.379349 811.550537,142.898468 811.688782,144.098175 
	C804.317871,144.098175 797.126404,144.098175 789.474243,144.185181 
z"/>
<path fill="#242222" opacity="1.000000" stroke="none" 
	d="
M445.037903,144.204178 
	C440.006805,144.168320 434.975739,144.132462 429.483154,144.162064 
	C426.892242,144.063049 424.762817,143.898560 422.633423,143.734085 
	C422.299652,143.325211 421.965912,142.916336 421.632141,142.507477 
	C423.942688,140.229034 426.253204,137.950592 428.798584,135.448639 
	C439.716644,133.802628 443.322174,135.500870 445.744263,143.617783 
	C445.494385,144.021820 445.037903,144.204178 445.037903,144.204178 
z"/>
<path fill="#AB5152" opacity="1.000000" stroke="none" 
	d="
M431.839111,127.558624 
	C431.883057,127.428108 431.974854,127.386124 432.066650,127.344131 
	C432.006744,127.445137 431.946838,127.546143 431.839111,127.558624 
z"/>
<path fill="#AB5152" opacity="1.000000" stroke="none" 
	d="
M445.162659,144.294357 
	C445.037903,144.204178 445.494385,144.021820 445.737122,143.983582 
	C445.860107,144.291595 445.629272,144.438004 445.162659,144.294357 
z"/>
<path fill="#232222" opacity="1.000000" stroke="none" 
	d="
M88.455193,216.295868 
	C85.318573,216.312546 82.616287,216.248657 79.470291,216.261063 
	C75.000504,216.288467 70.974411,216.239609 66.491058,216.256439 
	C63.896610,216.161804 61.759438,216.001480 58.672237,215.769882 
	C61.069874,212.758270 63.059471,210.259186 65.446121,207.273895 
	C69.470222,202.516220 73.097267,198.244781 76.724319,193.973343 
	C80.859802,180.031128 85.198891,166.160965 84.205788,151.264557 
	C84.043953,148.837112 85.950592,146.271759 87.077972,143.444916 
	C89.772224,140.697174 92.289680,138.274673 94.938095,135.557205 
	C97.800362,133.516159 100.709274,132.555466 103.041489,135.547089 
	C105.362770,138.524689 103.702141,141.053452 101.418396,143.370987 
	C91.821632,153.109772 91.980438,150.924652 101.884048,161.132919 
	C103.495361,162.793793 105.208023,164.356384 107.161179,166.090302 
	C111.201462,171.201172 116.557739,168.080978 122.035759,168.900513 
	C126.302948,168.830536 129.664642,168.782776 133.026352,168.735016 
	C139.563507,169.387589 144.417877,165.544540 149.794617,162.269257 
	C155.334274,158.915436 160.664276,155.829269 166.213470,152.472290 
	C169.577042,150.001007 172.866577,149.273834 175.444534,152.705139 
	C177.439178,155.360077 176.451843,157.998779 173.897720,160.005936 
	C173.252655,160.512863 172.590408,160.998260 171.952164,161.513474 
	C169.651489,163.370697 167.357712,165.236450 164.645874,167.480728 
	C163.423492,168.520294 162.616562,169.178101 161.809647,169.835907 
	C161.809647,169.835922 161.831192,169.877548 161.824707,169.852676 
	C157.648819,172.612396 153.479385,175.396988 149.079926,178.418274 
	C145.015579,180.479446 141.181259,182.303925 137.135117,184.383606 
	C132.394928,186.837570 127.866592,189.036285 123.118683,191.484009 
	C119.724930,193.223251 116.550743,194.713470 113.164520,196.464188 
	C108.286217,202.096024 103.619965,207.467377 98.814926,213.129120 
	C96.203484,217.115204 92.331230,215.911682 88.455193,216.295868 
z"/>
<path fill="#242222" opacity="1.000000" stroke="none" 
	d="
M50.487064,146.670990 
	C53.014839,143.808258 55.457943,141.390503 58.031429,138.685791 
	C60.537399,136.828613 62.912983,135.258377 65.651321,133.584610 
	C70.872894,135.974670 71.591805,138.733246 68.287178,142.694000 
	C66.918175,144.334808 65.313988,145.778107 63.836014,147.329559 
	C59.595772,151.780594 59.616158,152.443497 64.106300,156.933762 
	C65.738319,158.565826 67.382683,160.185547 69.293915,161.970688 
	C77.198830,167.192322 75.805641,174.047073 73.356392,181.124435 
	C73.141937,181.744110 73.077423,182.415680 72.818024,183.595337 
	C72.561996,184.353912 72.543037,184.589233 72.635918,184.833527 
	C72.267052,186.387375 71.898193,187.941208 71.293800,190.095413 
	C67.684837,194.746002 64.311409,198.796249 60.937981,202.846497 
	C58.386604,205.684036 55.835228,208.521591 53.138744,211.657425 
	C50.258286,213.354050 47.522930,214.752380 44.401600,216.258713 
	C39.663006,216.314011 35.310390,216.261322 30.499619,216.273804 
	C28.612854,216.142715 27.184240,215.946457 24.922682,215.635788 
	C27.893049,212.013535 30.460886,208.882141 33.140953,205.425720 
	C35.888916,202.179504 38.524651,199.258316 41.240246,196.045975 
	C42.330925,193.725708 43.647606,191.790344 44.302914,189.652267 
	C48.548168,175.801193 51.362049,161.722946 50.487064,146.670990 
z"/>
<path fill="#B66E6E" opacity="1.000000" stroke="none" 
	d="
M61.025330,203.188324 
	C64.311409,198.796249 67.684837,194.746002 71.335632,190.494141 
	C71.882347,192.885025 73.083885,194.388626 76.322968,193.977112 
	C73.097267,198.244781 69.470222,202.516220 65.562805,206.948212 
	C63.892525,205.915894 62.502605,204.723022 61.025330,203.188324 
z"/>
<path fill="#B66E6E" opacity="1.000000" stroke="none" 
	d="
M72.723328,184.684250 
	C72.543037,184.589233 72.561996,184.353912 72.815002,183.990311 
	C72.949440,184.090500 72.907280,184.317795 72.723328,184.684250 
z"/>
<path fill="#E3D6D6" opacity="1.000000" stroke="none" 
	d="
M162.146805,169.878693 
	C162.616562,169.178101 163.423492,168.520294 164.546509,167.793854 
	C164.069717,168.457291 163.276840,169.189377 162.146805,169.878693 
z"/>
<path fill="#DBB5B5" opacity="1.000000" stroke="none" 
	d="
M674.513550,150.513855 
	C674.486206,150.525269 674.540894,150.502457 674.513550,150.513855 
z"/>
<path fill="#242222" opacity="1.000000" stroke="none" 
	d="
M136.664047,40.365425 
	C138.733475,40.472462 140.479889,40.769341 142.610718,41.026276 
	C145.615677,42.651344 148.236221,44.316349 151.159943,46.102386 
	C154.910233,51.228111 158.772461,56.183090 157.883026,62.735817 
	C157.404160,66.263786 156.040970,69.671722 155.014648,73.504166 
	C152.148712,77.593292 149.344910,81.312057 146.399994,85.363289 
	C143.212891,88.491699 140.166885,91.287636 136.977112,94.372421 
	C134.309677,96.537041 131.786011,98.412834 129.103516,100.577744 
	C126.343269,102.566376 123.741829,104.265869 120.919449,106.201225 
	C118.572105,107.699593 116.445709,108.962105 114.092270,110.461319 
	C109.687286,112.598297 106.948021,109.529770 103.463348,107.684647 
	C99.974960,105.363976 96.847061,103.149261 93.390366,100.805695 
	C89.604286,97.789017 86.147018,94.901192 82.379761,91.859955 
	C82.003143,91.434738 81.848015,91.229942 81.268578,90.795212 
	C80.629913,90.293449 80.327080,90.088631 80.024239,89.883812 
	C78.007652,87.926628 75.991066,85.969452 73.676895,83.894165 
	C71.143036,80.006950 68.906754,76.237831 66.482513,72.208755 
	C64.141052,64.848488 63.396214,57.812763 67.387695,50.635498 
	C69.270996,48.386398 71.022141,46.489925 72.990616,44.337509 
	C74.966759,43.199226 76.725586,42.316895 78.739014,41.223698 
	C81.332825,40.816345 83.672035,40.619862 86.406250,40.435799 
	C89.905869,41.703403 93.010506,42.958580 96.476181,44.285919 
	C98.680145,45.846115 100.523079,47.334141 102.681992,48.919075 
	C106.119698,51.425831 108.223389,55.986217 113.682495,53.771091 
	C116.843422,51.243313 119.766342,48.905590 122.841614,46.269897 
	C125.553787,44.636826 128.113617,43.301723 130.907684,41.747044 
	C132.874969,41.203400 134.608017,40.879330 136.664047,40.365425 
M145.642929,79.051048 
	C147.172104,76.435043 148.701263,73.819038 150.828796,70.809288 
	C154.814743,62.750626 154.316559,57.561588 149.043411,51.675438 
	C145.176224,50.772556 142.719681,52.620262 144.451065,55.340267 
	C148.015213,60.939548 145.949951,65.805267 143.149979,71.245407 
	C142.053558,72.861115 140.558105,74.347282 139.979050,76.130959 
	C139.457230,77.738358 139.939331,79.671684 139.978668,81.461266 
	C141.677795,80.799706 143.376907,80.138138 145.642929,79.051048 
z"/>
<path fill="#2C2A2A" opacity="1.000000" stroke="none" 
	d="
M121.903687,158.654892 
	C126.608490,155.864487 131.103378,153.301666 135.827393,150.500671 
	C139.654114,150.404709 142.655975,151.491150 142.754883,155.704880 
	C142.834183,159.084656 138.704391,161.900879 132.978561,162.122437 
	C128.424744,162.162292 124.728523,162.218002 121.032295,162.273712 
	C120.243652,162.112671 119.455017,161.951630 118.145454,161.684204 
	C119.526283,160.593918 120.610031,159.738205 121.903687,158.654892 
z"/>
<path fill="#DBBBBB" opacity="1.000000" stroke="none" 
	d="
M121.031616,162.641861 
	C124.728523,162.218002 128.424744,162.162292 132.574951,162.200653 
	C133.027542,164.173019 133.026138,166.051315 133.025543,168.332306 
	C129.664642,168.782776 126.302948,168.830536 122.489319,168.813492 
	C121.701904,166.835800 121.366425,164.922897 121.031616,162.641861 
z"/>
<path fill="#D19E9D" opacity="1.000000" stroke="none" 
	d="
M37.797066,56.367653 
	C38.126621,58.482178 38.300800,60.948551 38.229591,63.714287 
	C37.870029,61.582268 37.755859,59.150890 37.797066,56.367653 
z"/>
<path fill="#D19E9D" opacity="1.000000" stroke="none" 
	d="
M37.750633,66.181885 
	C38.373100,66.801094 38.805511,67.618515 39.120739,68.708481 
	C38.522560,68.114052 38.041565,67.247078 37.750633,66.181885 
z"/>
<path fill="#D19E9D" opacity="1.000000" stroke="none" 
	d="
M626.057251,163.301468 
	C626.451782,162.987320 626.903870,162.933197 627.677795,163.005508 
	C627.371399,163.275131 626.743103,163.418320 626.057251,163.301468 
z"/>
<path fill="#2B2626" opacity="1.000000" stroke="none" 
	d="
M185.644104,38.922493 
	C184.198532,37.550667 183.018265,36.331684 181.547699,34.986084 
	C181.489090,33.585236 181.720810,32.311005 182.016571,30.700706 
	C183.474991,28.783504 184.869370,27.202375 186.333328,25.327412 
	C187.032883,24.133406 187.662842,23.233229 188.588745,21.910175 
	C189.426178,23.032942 190.121048,23.964596 191.054794,25.076506 
	C192.928986,27.514559 194.564316,29.772356 196.510559,32.180233 
	C196.451050,33.283653 196.080627,34.236996 195.526001,35.472534 
	C193.814728,37.258133 192.287689,38.761536 190.605896,40.568424 
	C189.820496,41.271172 189.189835,41.670433 188.274948,42.081123 
	C187.296951,41.086811 186.603195,40.081070 185.644104,38.922493 
z"/>
<path fill="#282525" opacity="1.000000" stroke="none" 
	d="
M165.625305,128.500946 
	C164.462234,129.099106 163.536118,129.428696 162.321976,129.831451 
	C160.976425,129.265854 159.918900,128.627090 158.560944,127.915344 
	C157.064697,126.897202 155.868896,125.952057 154.363251,124.897865 
	C153.200363,123.964241 152.347351,123.139671 151.237457,122.160980 
	C149.380600,119.130028 146.102432,116.480682 149.916992,112.596596 
	C151.463501,112.120689 152.838211,111.941376 154.635468,111.758606 
	C157.098160,113.283882 159.138306,114.812614 161.533386,116.376663 
	C163.511154,115.573158 165.133987,114.734337 166.909485,113.583061 
	C168.474838,112.728065 169.887543,112.185524 171.670685,111.552780 
	C173.367859,112.391563 174.694626,113.320564 176.277740,114.512642 
	C176.238129,117.265335 175.942169,119.754944 175.782196,122.564590 
	C172.566208,124.667206 169.214233,126.449799 165.625305,128.500946 
z"/>
<path fill="#C89696" opacity="1.000000" stroke="none" 
	d="
M200.888779,92.381348 
	C201.151810,92.781570 201.098694,93.125084 201.026123,93.730530 
	C200.573502,93.995422 200.140350,93.998375 199.383575,94.007248 
	C199.564178,93.450310 200.068405,92.887474 200.888779,92.381348 
z"/>
<path fill="#B15F5F" opacity="1.000000" stroke="none" 
	d="
M80.179184,90.111420 
	C80.327080,90.088631 80.629913,90.293449 81.080185,90.735435 
	C80.929787,90.761406 80.631966,90.550217 80.179184,90.111420 
z"/>
<path fill="#E0C5C6" opacity="1.000000" stroke="none" 
	d="
M133.525055,187.493347 
	C133.540329,187.524612 133.509796,187.462097 133.525055,187.493347 
z"/>
<path fill="#CC9C9E" opacity="1.000000" stroke="none" 
	d="
M143.716522,70.876434 
	C145.949951,65.805267 148.015213,60.939548 144.451065,55.340267 
	C142.719681,52.620262 145.176224,50.772556 148.998505,52.525608 
	C148.727631,55.475487 148.146713,57.610653 148.352127,59.667274 
	C148.738602,63.536461 149.578842,67.360329 150.230423,71.203033 
	C148.701263,73.819038 147.172104,76.435043 145.328430,78.795166 
	C144.581451,75.985001 144.148987,73.430717 143.716522,70.876434 
z"/>
<path fill="#E3C9C9" opacity="1.000000" stroke="none" 
	d="
M150.529602,71.006165 
	C149.578842,67.360329 148.738602,63.536461 148.352127,59.667274 
	C148.146713,57.610653 148.727631,55.475487 149.008606,52.899666 
	C154.316559,57.561588 154.814743,62.750626 150.529602,71.006165 
z"/>
<path fill="#B26667" opacity="1.000000" stroke="none" 
	d="
M143.433258,71.060921 
	C144.148987,73.430717 144.581451,75.985001 145.044968,79.007935 
	C143.376907,80.138138 141.677795,80.799706 139.978668,81.461258 
	C139.939331,79.671684 139.457230,77.738358 139.979050,76.130959 
	C140.558105,74.347282 142.053558,72.861115 143.433258,71.060921 
z"/>
</svg>